G04*
G04 #@! TF.GenerationSoftware,Altium Limited,Altium Designer,25.1.2 (22)*
G04*
G04 Layer_Color=65535*
%FSLAX25Y25*%
%MOIN*%
G70*
G04*
G04 #@! TF.SameCoordinates,8C14AA3A-0FC9-406D-BE4B-2EB75CFADBCC*
G04*
G04*
G04 #@! TF.FilePolarity,Positive*
G04*
G01*
G75*
%ADD10C,0.00787*%
%ADD11C,0.02362*%
%ADD12C,0.00984*%
%ADD13C,0.00500*%
%ADD14C,0.01000*%
D10*
X466614Y163386D02*
G03*
X466614Y163386I-394J0D01*
G01*
X378031D02*
G03*
X378031Y163386I-394J0D01*
G01*
X271732D02*
G03*
X271732Y163386I-394J0D01*
G01*
X183780D02*
G03*
X183780Y163386I-394J0D01*
G01*
X258937Y234469D02*
G03*
X258937Y239469I0J2500D01*
G01*
X470079Y176673D02*
X473032D01*
X470079Y169783D02*
X473032D01*
X469800Y185705D02*
X474508D01*
X469800Y192248D02*
X474508D01*
X449415Y176969D02*
X452160D01*
X449415Y169488D02*
X452160D01*
X446752Y185705D02*
X451460D01*
X446752Y192248D02*
X451460D01*
X381217Y185705D02*
X385925D01*
X381217Y192248D02*
X385925D01*
X381496Y176673D02*
X384449D01*
X381496Y169783D02*
X384449D01*
X360832Y176969D02*
X363577D01*
X360832Y169488D02*
X363577D01*
X358170Y185705D02*
X362878D01*
X358170Y192248D02*
X362878D01*
X275197Y176673D02*
X278150D01*
X275197Y169783D02*
X278150D01*
X274918Y185705D02*
X279626D01*
X274918Y192248D02*
X279626D01*
X255617Y176969D02*
X258362D01*
X255617Y169488D02*
X258362D01*
X253552Y185705D02*
X258260D01*
X253552Y192248D02*
X258260D01*
X187244Y176673D02*
X190197D01*
X187244Y169783D02*
X190197D01*
X186965Y185705D02*
X191673D01*
X186965Y192248D02*
X191673D01*
X167664Y176969D02*
X170410D01*
X167664Y169488D02*
X170410D01*
X165599Y185705D02*
X170307D01*
X165599Y192248D02*
X170307D01*
X245079Y234842D02*
Y237598D01*
X250984Y234842D02*
Y237598D01*
X336496Y226535D02*
Y247402D01*
X258937Y239469D02*
Y247402D01*
Y226535D02*
Y234469D01*
Y247402D02*
X336496D01*
X258937Y226535D02*
X336496D01*
X474606Y333661D02*
X478937D01*
X439764D02*
X460827D01*
X432874Y291831D02*
Y294193D01*
X472047Y285630D02*
X472835D01*
X439764D02*
X463583D01*
X478937Y291142D02*
Y333661D01*
X448154Y261713D02*
Y266421D01*
X441610Y261713D02*
Y266421D01*
X459965Y261713D02*
Y266421D01*
X453421Y261713D02*
Y266421D01*
X471776Y261713D02*
Y266421D01*
X465232Y261713D02*
Y266421D01*
X475074Y351689D02*
Y356397D01*
X481618Y351689D02*
Y356397D01*
X470768Y352559D02*
Y355315D01*
X464862Y352559D02*
Y355315D01*
X441610Y351689D02*
Y356397D01*
X448154Y351689D02*
Y356397D01*
X453421Y351689D02*
Y356397D01*
X459965Y351689D02*
Y356397D01*
D11*
X264055Y230472D02*
G03*
X264055Y230472I-1181J0D01*
G01*
D12*
X263091Y221969D02*
G03*
X263091Y221969I-492J0D01*
G01*
X429232Y297146D02*
G03*
X429232Y297146I-492J0D01*
G01*
D13*
X437185Y101890D02*
Y160709D01*
X461890D01*
X495256Y101890D02*
Y160709D01*
X437185Y101890D02*
X495256D01*
X480236Y160709D02*
X495256D01*
X348602Y101890D02*
Y160709D01*
X373307D01*
X406673Y101890D02*
Y160709D01*
X348602Y101890D02*
X406673D01*
X391653Y160709D02*
X406673D01*
X242303Y101890D02*
Y160709D01*
X267008D01*
X300374Y101890D02*
Y160709D01*
X242303Y101890D02*
X300374D01*
X285354Y160709D02*
X300374D01*
X154350Y101890D02*
Y160709D01*
X179055D01*
X212421Y101890D02*
Y160709D01*
X154350Y101890D02*
X212421D01*
X197402Y160709D02*
X212421D01*
D14*
X269510Y381444D02*
Y376446D01*
X270509Y375446D01*
X272509D01*
X273508Y376446D01*
Y381444D01*
X279506Y375446D02*
X275507D01*
X279506Y379445D01*
Y380444D01*
X278507Y381444D01*
X276507D01*
X275507Y380444D01*
X485628Y170229D02*
Y176227D01*
X488627D01*
X489627Y175228D01*
Y173228D01*
X488627Y172229D01*
X485628D01*
X487627D02*
X489627Y170229D01*
X491626D02*
X493625D01*
X492626D01*
Y176227D01*
X491626Y175228D01*
X496625Y170229D02*
X498624D01*
X497624D01*
Y176227D01*
X496625Y175228D01*
X484628Y185977D02*
Y191975D01*
X487627D01*
X488627Y190976D01*
Y188976D01*
X487627Y187977D01*
X484628D01*
X486628D02*
X488627Y185977D01*
X490626D02*
X492626D01*
X491626D01*
Y191975D01*
X490626Y190976D01*
X499624Y185977D02*
X495625D01*
X499624Y189976D01*
Y190976D01*
X498624Y191975D01*
X496625D01*
X495625Y190976D01*
X432071Y175228D02*
X431072Y176227D01*
X429072D01*
X428073Y175228D01*
Y171229D01*
X429072Y170229D01*
X431072D01*
X432071Y171229D01*
X437070Y170229D02*
Y176227D01*
X434071Y173228D01*
X438069D01*
X426166Y160479D02*
X424166D01*
X425166D01*
Y155481D01*
X424166Y154481D01*
X423167D01*
X422167Y155481D01*
X431164Y154481D02*
Y160479D01*
X428165Y157480D01*
X432164D01*
X421636Y185977D02*
Y191975D01*
X424635D01*
X425635Y190976D01*
Y188976D01*
X424635Y187977D01*
X421636D01*
X423636D02*
X425635Y185977D01*
X427634D02*
X429634D01*
X428634D01*
Y191975D01*
X427634Y190976D01*
X432633D02*
X433632Y191975D01*
X435632D01*
X436631Y190976D01*
Y186977D01*
X435632Y185977D01*
X433632D01*
X432633Y186977D01*
Y190976D01*
X396576Y185977D02*
Y191975D01*
X399575D01*
X400575Y190976D01*
Y188976D01*
X399575Y187977D01*
X396576D01*
X398576D02*
X400575Y185977D01*
X402574Y186977D02*
X403574Y185977D01*
X405574D01*
X406573Y186977D01*
Y190976D01*
X405574Y191975D01*
X403574D01*
X402574Y190976D01*
Y189976D01*
X403574Y188976D01*
X406573D01*
X396576Y170229D02*
Y176227D01*
X399575D01*
X400575Y175228D01*
Y173228D01*
X399575Y172229D01*
X396576D01*
X398576D02*
X400575Y170229D01*
X402574Y175228D02*
X403574Y176227D01*
X405574D01*
X406573Y175228D01*
Y174228D01*
X405574Y173228D01*
X406573Y172229D01*
Y171229D01*
X405574Y170229D01*
X403574D01*
X402574Y171229D01*
Y172229D01*
X403574Y173228D01*
X402574Y174228D01*
Y175228D01*
X403574Y173228D02*
X405574D01*
X341520Y175228D02*
X340520Y176227D01*
X338521D01*
X337521Y175228D01*
Y171229D01*
X338521Y170229D01*
X340520D01*
X341520Y171229D01*
X343519Y175228D02*
X344519Y176227D01*
X346518D01*
X347518Y175228D01*
Y174228D01*
X346518Y173228D01*
X345519D01*
X346518D01*
X347518Y172229D01*
Y171229D01*
X346518Y170229D01*
X344519D01*
X343519Y171229D01*
X337521Y185977D02*
Y191975D01*
X340520D01*
X341520Y190976D01*
Y188976D01*
X340520Y187977D01*
X337521D01*
X339521D02*
X341520Y185977D01*
X343519Y191975D02*
X347518D01*
Y190976D01*
X343519Y186977D01*
Y185977D01*
X337583Y160479D02*
X335584D01*
X336583D01*
Y155481D01*
X335584Y154481D01*
X334584D01*
X333584Y155481D01*
X339582Y159480D02*
X340582Y160479D01*
X342581D01*
X343581Y159480D01*
Y158480D01*
X342581Y157480D01*
X341582D01*
X342581D01*
X343581Y156481D01*
Y155481D01*
X342581Y154481D01*
X340582D01*
X339582Y155481D01*
X290277Y170229D02*
Y176227D01*
X293276D01*
X294276Y175228D01*
Y173228D01*
X293276Y172229D01*
X290277D01*
X292277D02*
X294276Y170229D01*
X300274Y176227D02*
X296275D01*
Y173228D01*
X298275Y174228D01*
X299274D01*
X300274Y173228D01*
Y171229D01*
X299274Y170229D01*
X297275D01*
X296275Y171229D01*
X290277Y185977D02*
Y191975D01*
X293276D01*
X294276Y190976D01*
Y188976D01*
X293276Y187977D01*
X290277D01*
X292277D02*
X294276Y185977D01*
X300274Y191975D02*
X298275Y190976D01*
X296275Y188976D01*
Y186977D01*
X297275Y185977D01*
X299274D01*
X300274Y186977D01*
Y187977D01*
X299274Y188976D01*
X296275D01*
X237189Y177196D02*
X236190Y178196D01*
X234190D01*
X233191Y177196D01*
Y173197D01*
X234190Y172198D01*
X236190D01*
X237189Y173197D01*
X243187Y172198D02*
X239189D01*
X243187Y176197D01*
Y177196D01*
X242188Y178196D01*
X240188D01*
X239189Y177196D01*
X231284Y160479D02*
X229284D01*
X230284D01*
Y155481D01*
X229284Y154481D01*
X228285D01*
X227285Y155481D01*
X237282Y154481D02*
X233283D01*
X237282Y158480D01*
Y159480D01*
X236282Y160479D01*
X234283D01*
X233283Y159480D01*
X233191Y185977D02*
Y191975D01*
X236190D01*
X237189Y190976D01*
Y188976D01*
X236190Y187977D01*
X233191D01*
X235190D02*
X237189Y185977D01*
X242188D02*
Y191975D01*
X239189Y188976D01*
X243187D01*
X201694Y170229D02*
Y176227D01*
X204694D01*
X205693Y175228D01*
Y173228D01*
X204694Y172229D01*
X201694D01*
X203694D02*
X205693Y170229D01*
X211691D02*
X207693D01*
X211691Y174228D01*
Y175228D01*
X210692Y176227D01*
X208692D01*
X207693Y175228D01*
X201694Y185977D02*
Y191975D01*
X204694D01*
X205693Y190976D01*
Y188976D01*
X204694Y187977D01*
X201694D01*
X203694D02*
X205693Y185977D01*
X207693Y190976D02*
X208692Y191975D01*
X210692D01*
X211691Y190976D01*
Y189976D01*
X210692Y188976D01*
X209692D01*
X210692D01*
X211691Y187977D01*
Y186977D01*
X210692Y185977D01*
X208692D01*
X207693Y186977D01*
X151575Y175228D02*
X150575Y176227D01*
X148576D01*
X147576Y175228D01*
Y171229D01*
X148576Y170229D01*
X150575D01*
X151575Y171229D01*
X153574Y170229D02*
X155573D01*
X154574D01*
Y176227D01*
X153574Y175228D01*
X147576Y185977D02*
Y191975D01*
X150575D01*
X151575Y190976D01*
Y188976D01*
X150575Y187977D01*
X147576D01*
X149575D02*
X151575Y185977D01*
X153574D02*
X155573D01*
X154574D01*
Y191975D01*
X153574Y190976D01*
X145669Y160479D02*
X143670D01*
X144670D01*
Y155481D01*
X143670Y154481D01*
X142670D01*
X141671Y155481D01*
X147669Y154481D02*
X149668D01*
X148668D01*
Y160479D01*
X147669Y159480D01*
X235221Y240188D02*
X234221Y241188D01*
X232222D01*
X231222Y240188D01*
Y236190D01*
X232222Y235190D01*
X234221D01*
X235221Y236190D01*
X241219Y241188D02*
X239219Y240188D01*
X237220Y238189D01*
Y236190D01*
X238220Y235190D01*
X240219D01*
X241219Y236190D01*
Y237189D01*
X240219Y238189D01*
X237220D01*
X293245Y264810D02*
Y259812D01*
X294245Y258812D01*
X296244D01*
X297244Y259812D01*
Y264810D01*
X299243Y258812D02*
X301243D01*
X300243D01*
Y264810D01*
X299243Y263810D01*
X432071Y343550D02*
X430072D01*
X431072D01*
Y338552D01*
X430072Y337552D01*
X429072D01*
X428073Y338552D01*
X438069Y343550D02*
X434071D01*
Y340551D01*
X436070Y341551D01*
X437070D01*
X438069Y340551D01*
Y338552D01*
X437070Y337552D01*
X435070D01*
X434071Y338552D01*
X441883Y251592D02*
X447881D01*
Y248593D01*
X446881Y247593D01*
X444882D01*
X443882Y248593D01*
Y251592D01*
Y249593D02*
X441883Y247593D01*
Y245594D02*
Y243595D01*
Y244594D01*
X447881D01*
X446881Y245594D01*
Y240596D02*
X447881Y239596D01*
Y237597D01*
X446881Y236597D01*
X445882D01*
X444882Y237597D01*
Y238596D01*
Y237597D01*
X443882Y236597D01*
X442882D01*
X441883Y237597D01*
Y239596D01*
X442882Y240596D01*
X453694Y251592D02*
X459692D01*
Y248593D01*
X458692Y247593D01*
X456693D01*
X455693Y248593D01*
Y251592D01*
Y249593D02*
X453694Y247593D01*
Y245594D02*
Y243595D01*
Y244594D01*
X459692D01*
X458692Y245594D01*
X453694Y237597D02*
X459692D01*
X456693Y240596D01*
Y236597D01*
X465505Y251592D02*
X471503D01*
Y248593D01*
X470503Y247593D01*
X468504D01*
X467504Y248593D01*
Y251592D01*
Y249593D02*
X465505Y247593D01*
Y245594D02*
Y243595D01*
Y244594D01*
X471503D01*
X470503Y245594D01*
X471503Y236597D02*
Y240596D01*
X468504D01*
X469504Y238596D01*
Y237597D01*
X468504Y236597D01*
X466505D01*
X465505Y237597D01*
Y239596D01*
X466505Y240596D01*
X475347Y381513D02*
X481346D01*
Y378514D01*
X480346Y377515D01*
X478346D01*
X477347Y378514D01*
Y381513D01*
Y379514D02*
X475347Y377515D01*
Y375515D02*
Y373516D01*
Y374516D01*
X481346D01*
X480346Y375515D01*
X481346Y366518D02*
X480346Y368517D01*
X478346Y370517D01*
X476347D01*
X475347Y369517D01*
Y367518D01*
X476347Y366518D01*
X477347D01*
X478346Y367518D01*
Y370517D01*
X469519Y372063D02*
X470519Y373062D01*
Y375062D01*
X469519Y376061D01*
X465520D01*
X464521Y375062D01*
Y373062D01*
X465520Y372063D01*
X470519Y366065D02*
Y370063D01*
X467520D01*
X468519Y368064D01*
Y367064D01*
X467520Y366065D01*
X465520D01*
X464521Y367064D01*
Y369064D01*
X465520Y370063D01*
X441883Y381513D02*
X447881D01*
Y378514D01*
X446881Y377515D01*
X444882D01*
X443882Y378514D01*
Y381513D01*
Y379514D02*
X441883Y377515D01*
Y375515D02*
Y373516D01*
Y374516D01*
X447881D01*
X446881Y375515D01*
Y370517D02*
X447881Y369517D01*
Y367518D01*
X446881Y366518D01*
X445882D01*
X444882Y367518D01*
X443882Y366518D01*
X442882D01*
X441883Y367518D01*
Y369517D01*
X442882Y370517D01*
X443882D01*
X444882Y369517D01*
X445882Y370517D01*
X446881D01*
X444882Y369517D02*
Y367518D01*
X453694Y381513D02*
X459692D01*
Y378514D01*
X458692Y377515D01*
X456693D01*
X455693Y378514D01*
Y381513D01*
Y379514D02*
X453694Y377515D01*
Y375515D02*
Y373516D01*
Y374516D01*
X459692D01*
X458692Y375515D01*
X459692Y370517D02*
Y366518D01*
X458692D01*
X454694Y370517D01*
X453694D01*
M02*
