G04*
G04 #@! TF.GenerationSoftware,Altium Limited,Altium Designer,25.1.2 (22)*
G04*
G04 Layer_Color=16711935*
%FSLAX25Y25*%
%MOIN*%
G70*
G04*
G04 #@! TF.SameCoordinates,8C14AA3A-0FC9-406D-BE4B-2EB75CFADBCC*
G04*
G04*
G04 #@! TF.FilePolarity,Positive*
G04*
G01*
G75*
%ADD10C,0.00787*%
%ADD13C,0.00500*%
%ADD14C,0.01000*%
%ADD45C,0.00394*%
D10*
X466614Y163386D02*
G03*
X466614Y163386I-394J0D01*
G01*
X378031D02*
G03*
X378031Y163386I-394J0D01*
G01*
X271732D02*
G03*
X271732Y163386I-394J0D01*
G01*
X183780D02*
G03*
X183780Y163386I-394J0D01*
G01*
X478051Y169783D02*
Y176673D01*
X465059D02*
X478051D01*
X465059Y169783D02*
Y176673D01*
Y169783D02*
X478051D01*
X478256Y185925D02*
Y192028D01*
X466051D02*
X478256D01*
X466051Y185925D02*
Y192028D01*
Y185925D02*
X478256D01*
X444488Y170079D02*
Y176378D01*
Y170079D02*
X457087D01*
Y176378D01*
X444488D02*
X457087D01*
X455209Y185925D02*
Y192028D01*
X443004D02*
X455209D01*
X443004Y185925D02*
Y192028D01*
Y185925D02*
X455209D01*
X389673D02*
Y192028D01*
X377468D02*
X389673D01*
X377468Y185925D02*
Y192028D01*
Y185925D02*
X389673D01*
X389469Y169783D02*
Y176673D01*
X376476D02*
X389469D01*
X376476Y169783D02*
Y176673D01*
Y169783D02*
X389469D01*
X355906Y170079D02*
Y176378D01*
Y170079D02*
X368504D01*
Y176378D01*
X355906D02*
X368504D01*
X366626Y185925D02*
Y192028D01*
X354421D02*
X366626D01*
X354421Y185925D02*
Y192028D01*
Y185925D02*
X366626D01*
X283169Y169783D02*
Y176673D01*
X270177D02*
X283169D01*
X270177Y169783D02*
Y176673D01*
Y169783D02*
X283169D01*
X283374Y185925D02*
Y192028D01*
X271169D02*
X283374D01*
X271169Y185925D02*
Y192028D01*
Y185925D02*
X283374D01*
X250690Y170079D02*
Y176378D01*
Y170079D02*
X263289D01*
Y176378D01*
X250690D02*
X263289D01*
X262008Y185925D02*
Y192028D01*
X249803D02*
X262008D01*
X249803Y185925D02*
Y192028D01*
Y185925D02*
X262008D01*
X195217Y169783D02*
Y176673D01*
X182224D02*
X195217D01*
X182224Y169783D02*
Y176673D01*
Y169783D02*
X195217D01*
X195421Y185925D02*
Y192028D01*
X183217D02*
X195421D01*
X183217Y185925D02*
Y192028D01*
Y185925D02*
X195421D01*
X162738Y170079D02*
Y176378D01*
Y170079D02*
X175336D01*
Y176378D01*
X162738D02*
X175336D01*
X174055Y185925D02*
Y192028D01*
X161850D02*
X174055D01*
X161850Y185925D02*
Y192028D01*
Y185925D02*
X174055D01*
X432874Y333661D02*
X478937D01*
X432874Y285630D02*
Y333661D01*
Y285630D02*
X478937D01*
Y333661D01*
X441831Y270169D02*
X447933D01*
X441831Y257965D02*
Y270169D01*
Y257965D02*
X447933D01*
Y270169D01*
X453642D02*
X459744D01*
X453642Y257965D02*
Y270169D01*
Y257965D02*
X459744D01*
Y270169D01*
X465453D02*
X471555D01*
X465453Y257965D02*
Y270169D01*
Y257965D02*
X471555D01*
Y270169D01*
X475295Y347941D02*
X481398D01*
Y360146D01*
X475295D02*
X481398D01*
X475295Y347941D02*
Y360146D01*
X441831Y347941D02*
X447933D01*
Y360146D01*
X441831D02*
X447933D01*
X441831Y347941D02*
Y360146D01*
X453642Y347941D02*
X459744D01*
Y360146D01*
X453642D02*
X459744D01*
X453642Y347941D02*
Y360146D01*
D13*
X437185Y160709D02*
X495256D01*
Y101890D02*
Y160709D01*
Y101890D02*
X497520D01*
X434921D02*
X437185D01*
Y160709D01*
X434921Y21969D02*
Y101890D01*
Y21969D02*
X497520D01*
Y101890D01*
X550256D01*
X495256D02*
X497520D01*
X437185D02*
X495256D01*
X348602Y160709D02*
X406673D01*
Y101890D02*
Y160709D01*
Y101890D02*
X408937D01*
X346339D02*
X348602D01*
Y160709D01*
X346339Y21969D02*
Y101890D01*
Y21969D02*
X408937D01*
Y101890D01*
X461673D01*
X406673D02*
X408937D01*
X348602D02*
X406673D01*
X242303Y160709D02*
X300374D01*
Y101890D02*
Y160709D01*
Y101890D02*
X302638D01*
X240039D02*
X242303D01*
Y160709D01*
X240039Y21969D02*
Y101890D01*
Y21969D02*
X302638D01*
Y101890D01*
X355374D01*
X300374D02*
X302638D01*
X242303D02*
X300374D01*
X154350Y160709D02*
X212421D01*
Y101890D02*
Y160709D01*
Y101890D02*
X214685D01*
X152087D02*
X154350D01*
Y160709D01*
X152087Y21969D02*
Y101890D01*
Y21969D02*
X214685D01*
Y101890D01*
X267421D01*
X212421D02*
X214685D01*
X154350D02*
X212421D01*
D14*
X501221Y107795D02*
Y114793D01*
X504719D01*
X505886Y113627D01*
Y111294D01*
X504719Y110128D01*
X501221D01*
X512883Y113627D02*
X511717Y114793D01*
X509384D01*
X508218Y113627D01*
Y108962D01*
X509384Y107795D01*
X511717D01*
X512883Y108962D01*
X515216Y114793D02*
Y107795D01*
X518715D01*
X519881Y108962D01*
Y110128D01*
X518715Y111294D01*
X515216D01*
X518715D01*
X519881Y112460D01*
Y113627D01*
X518715Y114793D01*
X515216D01*
X533877D02*
X529211D01*
Y107795D01*
X533877D01*
X529211Y111294D02*
X531544D01*
X536209Y114793D02*
Y107795D01*
X539708D01*
X540874Y108962D01*
Y113627D01*
X539708Y114793D01*
X536209D01*
X547872Y113627D02*
X546706Y114793D01*
X544373D01*
X543207Y113627D01*
Y108962D01*
X544373Y107795D01*
X546706D01*
X547872Y108962D01*
Y111294D01*
X545540D01*
X554870Y114793D02*
X550205D01*
Y107795D01*
X554870D01*
X550205Y111294D02*
X552537D01*
X412638Y107795D02*
Y114793D01*
X416137D01*
X417303Y113627D01*
Y111294D01*
X416137Y110128D01*
X412638D01*
X424301Y113627D02*
X423134Y114793D01*
X420802D01*
X419635Y113627D01*
Y108962D01*
X420802Y107795D01*
X423134D01*
X424301Y108962D01*
X426633Y114793D02*
Y107795D01*
X430132D01*
X431298Y108962D01*
Y110128D01*
X430132Y111294D01*
X426633D01*
X430132D01*
X431298Y112460D01*
Y113627D01*
X430132Y114793D01*
X426633D01*
X445294D02*
X440629D01*
Y107795D01*
X445294D01*
X440629Y111294D02*
X442961D01*
X447626Y114793D02*
Y107795D01*
X451125D01*
X452292Y108962D01*
Y113627D01*
X451125Y114793D01*
X447626D01*
X459289Y113627D02*
X458123Y114793D01*
X455791D01*
X454624Y113627D01*
Y108962D01*
X455791Y107795D01*
X458123D01*
X459289Y108962D01*
Y111294D01*
X456957D01*
X466287Y114793D02*
X461622D01*
Y107795D01*
X466287D01*
X461622Y111294D02*
X463955D01*
X306339Y107795D02*
Y114793D01*
X309837D01*
X311004Y113627D01*
Y111294D01*
X309837Y110128D01*
X306339D01*
X318002Y113627D02*
X316835Y114793D01*
X314503D01*
X313336Y113627D01*
Y108962D01*
X314503Y107795D01*
X316835D01*
X318002Y108962D01*
X320334Y114793D02*
Y107795D01*
X323833D01*
X324999Y108962D01*
Y110128D01*
X323833Y111294D01*
X320334D01*
X323833D01*
X324999Y112460D01*
Y113627D01*
X323833Y114793D01*
X320334D01*
X338995D02*
X334330D01*
Y107795D01*
X338995D01*
X334330Y111294D02*
X336662D01*
X341327Y114793D02*
Y107795D01*
X344826D01*
X345992Y108962D01*
Y113627D01*
X344826Y114793D01*
X341327D01*
X352990Y113627D02*
X351824Y114793D01*
X349491D01*
X348325Y113627D01*
Y108962D01*
X349491Y107795D01*
X351824D01*
X352990Y108962D01*
Y111294D01*
X350658D01*
X359988Y114793D02*
X355323D01*
Y107795D01*
X359988D01*
X355323Y111294D02*
X357655D01*
X218386Y107795D02*
Y114793D01*
X221885D01*
X223051Y113627D01*
Y111294D01*
X221885Y110128D01*
X218386D01*
X230049Y113627D02*
X228882Y114793D01*
X226550D01*
X225384Y113627D01*
Y108962D01*
X226550Y107795D01*
X228882D01*
X230049Y108962D01*
X232381Y114793D02*
Y107795D01*
X235880D01*
X237047Y108962D01*
Y110128D01*
X235880Y111294D01*
X232381D01*
X235880D01*
X237047Y112460D01*
Y113627D01*
X235880Y114793D01*
X232381D01*
X251042D02*
X246377D01*
Y107795D01*
X251042D01*
X246377Y111294D02*
X248709D01*
X253375Y114793D02*
Y107795D01*
X256873D01*
X258040Y108962D01*
Y113627D01*
X256873Y114793D01*
X253375D01*
X265037Y113627D02*
X263871Y114793D01*
X261539D01*
X260372Y113627D01*
Y108962D01*
X261539Y107795D01*
X263871D01*
X265037Y108962D01*
Y111294D01*
X262705D01*
X272035Y114793D02*
X267370D01*
Y107795D01*
X272035D01*
X267370Y111294D02*
X269703D01*
D45*
X264449Y226535D02*
G03*
X264449Y226535I-1969J0D01*
G01*
X244488Y229528D02*
Y242913D01*
X251575Y229528D02*
Y242913D01*
X244488Y229528D02*
X251575D01*
X244488Y242913D02*
X251575D01*
X336496Y222992D02*
Y250945D01*
X258937Y222992D02*
Y250945D01*
X336496D01*
X258937Y222992D02*
X336496D01*
X471358Y347244D02*
Y360630D01*
X464272Y347244D02*
Y360630D01*
X471358D01*
X464272Y347244D02*
X471358D01*
M02*
