G04*
G04 #@! TF.GenerationSoftware,Altium Limited,Altium Designer,25.1.2 (22)*
G04*
G04 Layer_Physical_Order=1*
G04 Layer_Color=255*
%FSLAX25Y25*%
%MOIN*%
G70*
G04*
G04 #@! TF.SameCoordinates,8C14AA3A-0FC9-406D-BE4B-2EB75CFADBCC*
G04*
G04*
G04 #@! TF.FilePolarity,Positive*
G04*
G01*
G75*
%ADD14C,0.01000*%
%ADD15R,0.04134X0.07087*%
%ADD16R,0.04166X0.06544*%
%ADD17R,0.04935X0.07103*%
%ADD18R,0.06693X0.04331*%
%ADD19R,0.03937X0.06102*%
%ADD20R,0.06102X0.03937*%
%ADD21R,0.05512X0.03150*%
%ADD22R,0.05906X0.03150*%
%ADD23R,0.05906X0.05118*%
%ADD24R,0.05906X0.05906*%
%ADD25R,0.06890X0.02756*%
%ADD26R,0.06544X0.04166*%
%ADD35C,0.02500*%
%ADD36C,0.02000*%
%ADD37C,0.01400*%
%ADD38C,0.07000*%
%ADD39R,0.05504X0.05504*%
%ADD40C,0.05504*%
%ADD41C,0.11811*%
%ADD42C,0.05906*%
%ADD43C,0.05000*%
D14*
X317717Y221969D02*
X327716D01*
X183701Y188976D02*
X187402D01*
X211024Y212598D01*
X279528D01*
X173571Y188976D02*
X183701D01*
X261524D02*
X274724D01*
X307716Y221969D01*
X366142Y200787D02*
Y228346D01*
X454724Y200787D02*
Y206693D01*
X291339Y259842D02*
X401575D01*
X454724Y206693D01*
Y188976D02*
Y200787D01*
X422680Y312837D02*
Y320219D01*
X389075Y279232D02*
X422680Y312837D01*
Y320219D02*
X425492Y323031D01*
X434842D01*
X314961Y279232D02*
X389075D01*
X311206Y282987D02*
X314961Y279232D01*
X428445Y314370D02*
X434842D01*
X312106Y276476D02*
X390551D01*
X428445Y314370D01*
X443799Y319183D02*
Y321654D01*
X461221Y339075D01*
X439202Y314585D02*
X443799Y319183D01*
X434842Y323031D02*
X435720Y323909D01*
X438279D01*
X461221Y339075D02*
X467807D01*
X436909Y305709D02*
X468504Y274114D01*
Y269685D02*
Y274114D01*
X434842Y305709D02*
X436909D01*
X424409D02*
X434842D01*
X240650Y239075D02*
Y286713D01*
Y239075D02*
X243012Y236713D01*
X240650Y286713D02*
X241339Y287402D01*
X243012Y236713D02*
X302972D01*
X424409Y301378D02*
X434842D01*
X298858Y269882D02*
X392913D01*
X424409Y301378D01*
X301339Y281831D02*
X309941Y273228D01*
X391929D01*
X424409Y305709D01*
X306299Y282283D02*
X312106Y276476D01*
X444882Y269685D02*
Y290453D01*
X439037Y296298D02*
X444882Y290453D01*
X435592Y296298D02*
X439037D01*
X434842Y297047D02*
X435592Y296298D01*
X435720Y300500D02*
X438870D01*
X456693Y269685D02*
Y282677D01*
X438870Y300500D02*
X456693Y282677D01*
X434842Y301378D02*
X435720Y300500D01*
X467807Y339075D02*
X477157Y348425D01*
X435057Y314585D02*
X439202D01*
X434842Y314370D02*
X435057Y314585D01*
X477157Y348425D02*
X478346D01*
X438279Y323909D02*
X456693Y342323D01*
Y348425D01*
X444882Y334566D02*
Y348425D01*
X438556Y328240D02*
X444882Y334566D01*
X434842Y327362D02*
X435720Y328240D01*
X438556D01*
X304134Y292913D02*
X306299Y290748D01*
Y282283D02*
Y290748D01*
X281339Y287402D02*
X298858Y269882D01*
X311206Y282987D02*
Y287268D01*
X311339Y287402D01*
X296850Y292913D02*
X304134D01*
X291339Y287402D02*
X296850Y292913D01*
X301339Y281831D02*
Y287402D01*
X445766Y178829D02*
X454724Y187787D01*
X445766Y173228D02*
Y178829D01*
X164016Y178280D02*
X171940Y186205D01*
X164016Y173228D02*
Y178280D01*
X279528Y212598D02*
X287717Y220787D01*
X231339Y233228D02*
X242598Y221969D01*
X267717D01*
X231339Y233228D02*
Y287402D01*
X261339Y275768D02*
Y287402D01*
Y275768D02*
X282579Y254528D01*
Y249902D02*
Y254528D01*
Y249902D02*
X285236Y247244D01*
X290453D01*
X292815Y249606D01*
X295768Y257480D02*
X312205D01*
X292815Y249606D02*
Y254528D01*
X295768Y257480D01*
X312205D02*
X317717Y251969D01*
X315591Y244094D02*
X350394D01*
X366142Y228346D01*
X307716Y251969D02*
X315591Y244094D01*
X317717Y251969D02*
X327716D01*
X251339Y268347D02*
Y287402D01*
Y268347D02*
X267717Y251969D01*
X277716D01*
X302972Y236713D02*
X317717Y221969D01*
X267717D02*
X277716D01*
X366142Y188976D02*
Y200787D01*
X287717Y256221D02*
X291339Y259842D01*
X287717Y251969D02*
Y256221D01*
Y220787D02*
Y221969D01*
X261524Y187787D02*
Y188976D01*
X259941Y186205D02*
X261524Y187787D01*
X259893Y186205D02*
X259941D01*
X251969Y178280D02*
X259893Y186205D01*
X251969Y173228D02*
Y178280D01*
X173571Y187787D02*
Y188976D01*
X171988Y186205D02*
X173571Y187787D01*
X171940Y186205D02*
X171988D01*
X357184Y178829D02*
X366142Y187787D01*
Y188976D01*
X357184Y173228D02*
Y178829D01*
X454724Y188976D02*
X466535D01*
X454724Y187787D02*
Y188976D01*
X455808Y173228D02*
X466535D01*
Y158110D02*
Y173228D01*
X466221Y157795D02*
X466535Y158110D01*
X366142Y188976D02*
X377953D01*
X367226Y173228D02*
X377953D01*
Y158110D02*
Y173228D01*
X377638Y157795D02*
X377953Y158110D01*
X262011Y173228D02*
X271654D01*
Y158110D02*
Y173228D01*
X271339Y157795D02*
X271654Y158110D01*
X174058Y173228D02*
X183701D01*
X183386Y172913D02*
X183701Y173228D01*
X183386Y157795D02*
Y172913D01*
D15*
X466535Y173228D02*
D03*
X476575D02*
D03*
X377953D02*
D03*
X387992D02*
D03*
X271654D02*
D03*
X281693D02*
D03*
X183701D02*
D03*
X193740D02*
D03*
D16*
X466535Y188976D02*
D03*
X477772D02*
D03*
X443488D02*
D03*
X454724D02*
D03*
X377953D02*
D03*
X389189D02*
D03*
X354906D02*
D03*
X366142D02*
D03*
X271654D02*
D03*
X282890D02*
D03*
X250287D02*
D03*
X261524D02*
D03*
X183701D02*
D03*
X194937D02*
D03*
X162335D02*
D03*
X173571D02*
D03*
D17*
X455808Y173228D02*
D03*
X445766D02*
D03*
X367226D02*
D03*
X357184D02*
D03*
X262011D02*
D03*
X251969D02*
D03*
X174058D02*
D03*
X164016D02*
D03*
D18*
X248031Y231102D02*
D03*
Y241339D02*
D03*
X467815Y359055D02*
D03*
Y348819D02*
D03*
D19*
X471161Y331988D02*
D03*
D20*
X477362Y287697D02*
D03*
D21*
X467815Y286122D02*
D03*
D22*
X465256Y333169D02*
D03*
D23*
X435335Y332087D02*
D03*
D24*
Y287402D02*
D03*
X267717Y221969D02*
D03*
D25*
X434842Y327362D02*
D03*
Y323031D02*
D03*
Y318701D02*
D03*
Y314370D02*
D03*
Y310039D02*
D03*
Y305709D02*
D03*
Y301378D02*
D03*
Y297047D02*
D03*
D26*
X444882Y258449D02*
D03*
Y269685D02*
D03*
X456693Y258449D02*
D03*
Y269685D02*
D03*
X468504Y258449D02*
D03*
Y269685D02*
D03*
X478346Y359661D02*
D03*
Y348425D02*
D03*
X444882Y359661D02*
D03*
Y348425D02*
D03*
X456693Y359661D02*
D03*
Y348425D02*
D03*
D35*
X388287Y172933D02*
G03*
X389075Y173721I0J787D01*
G01*
X389189Y188976D02*
G03*
X389075Y188862I0J-114D01*
G01*
X387638Y157795D02*
G03*
X388287Y158445I0J650D01*
G01*
X476575Y173228D02*
G03*
X477772Y174425I0J1197D01*
G01*
X476575Y173228D02*
G03*
X476221Y172874I0J-354D01*
G01*
X250287Y188976D02*
X251004Y189693D01*
Y193918D01*
X264173Y207087D01*
X283661D01*
X344488Y149606D02*
Y177370D01*
Y149606D02*
X433071D01*
X344488Y177370D02*
X354906Y187787D01*
X238189Y149606D02*
X344488D01*
X354906Y187787D02*
Y188976D01*
X169921Y149606D02*
X238189D01*
X154173Y179626D02*
X162335Y187787D01*
X154173Y165354D02*
Y179626D01*
Y165354D02*
X169921Y149606D01*
X162335Y187787D02*
Y188976D01*
X193563Y174528D02*
X194937Y175901D01*
Y188976D01*
X193563Y157973D02*
Y174528D01*
X193386Y157795D02*
X193563Y157973D01*
X281516D02*
Y174528D01*
X282890Y175901D01*
Y188976D01*
X281339Y157795D02*
X281516Y157973D01*
X389075Y173721D02*
Y188862D01*
X388287Y158445D02*
Y172933D01*
X477772Y174425D02*
Y188976D01*
X476221Y157795D02*
Y172874D01*
X162335Y188976D02*
Y214205D01*
X201339Y253209D01*
Y287402D01*
X456693Y359661D02*
X478346D01*
X238189Y149606D02*
Y175689D01*
X250287Y187787D01*
X433071Y149606D02*
X485236D01*
X502658Y167028D02*
Y268799D01*
X485236Y149606D02*
X502658Y167028D01*
X283661Y207087D02*
X297716Y221142D01*
X294390Y243209D02*
X297716Y246535D01*
X251083Y243209D02*
X294390D01*
X249213Y241339D02*
X251083Y243209D01*
X297716Y221142D02*
Y221969D01*
X250287Y187787D02*
Y190165D01*
X433071Y177370D02*
X443488Y187787D01*
X474197Y258449D02*
X476772Y261024D01*
X456693Y258449D02*
X468504D01*
X443488Y187787D02*
Y188976D01*
X502658Y268799D02*
Y350492D01*
X478346Y359661D02*
X493488D01*
X248031Y231102D02*
X248819Y230315D01*
X433071Y149606D02*
Y177370D01*
X493488Y359661D02*
X502658Y350492D01*
X468504Y258449D02*
X474197D01*
X476772Y268701D02*
X502559D01*
X476772Y261024D02*
Y268701D01*
X289370Y230315D02*
X297244Y222441D01*
X444882Y359661D02*
X456693D01*
X248819Y230315D02*
X289370D01*
X444882Y258449D02*
X456693D01*
X502559Y268701D02*
X502658Y268799D01*
X478346Y359661D02*
X478346Y359661D01*
X297716Y246535D02*
Y251969D01*
X248031Y241339D02*
X249213D01*
D36*
X473524Y279626D02*
X476772Y276378D01*
Y268701D02*
Y276378D01*
X466831Y279626D02*
X473524D01*
X451181Y295276D02*
X466831Y279626D01*
X451181Y295276D02*
Y304035D01*
X434842Y310039D02*
X445177D01*
X451181Y304035D01*
D37*
X434695Y318553D02*
X434842Y318701D01*
X427411Y318553D02*
X434695D01*
X427264Y318406D02*
X427411Y318553D01*
X434842Y318701D02*
X439862D01*
X441339Y320177D02*
Y323524D01*
X466634Y348819D01*
X439862Y318701D02*
X441339Y320177D01*
X466634Y348819D02*
X467815D01*
D38*
X191339Y287402D02*
D03*
X201339D02*
D03*
X211339D02*
D03*
X221339D02*
D03*
X341339D02*
D03*
X331339D02*
D03*
X321339D02*
D03*
X311339D02*
D03*
X301339D02*
D03*
X291339D02*
D03*
X281339D02*
D03*
X271339D02*
D03*
X261339D02*
D03*
X251339D02*
D03*
X241339D02*
D03*
X231339D02*
D03*
X341339Y367402D02*
D03*
X331339D02*
D03*
X321339D02*
D03*
X311339D02*
D03*
X301339D02*
D03*
X291339D02*
D03*
X281339D02*
D03*
X271339D02*
D03*
X261339D02*
D03*
X251339D02*
D03*
X241339D02*
D03*
X231339D02*
D03*
D39*
X466221Y157795D02*
D03*
X377638D02*
D03*
X271339D02*
D03*
X183386D02*
D03*
D40*
X476221D02*
D03*
X387638D02*
D03*
X281339D02*
D03*
X193386D02*
D03*
D41*
X446220Y137795D02*
D03*
X486221D02*
D03*
X357638D02*
D03*
X397638D02*
D03*
X251339D02*
D03*
X291339D02*
D03*
X163386D02*
D03*
X203386D02*
D03*
D42*
X327716Y251969D02*
D03*
X317717D02*
D03*
X307716D02*
D03*
X297716D02*
D03*
X287717D02*
D03*
X277716D02*
D03*
X267717D02*
D03*
X327716Y221969D02*
D03*
X317717D02*
D03*
X307716D02*
D03*
X297716D02*
D03*
X287717D02*
D03*
X277716D02*
D03*
D43*
X427264Y318406D02*
D03*
M02*
