G04*
G04 #@! TF.GenerationSoftware,Altium Limited,Altium Designer,25.1.2 (22)*
G04*
G04 Layer_Color=16711935*
%FSLAX25Y25*%
%MOIN*%
G70*
G04*
G04 #@! TF.SameCoordinates,8C14AA3A-0FC9-406D-BE4B-2EB75CFADBCC*
G04*
G04*
G04 #@! TF.FilePolarity,Positive*
G04*
G01*
G75*
%ADD10C,0.00787*%
G36*
X471555Y170705D02*
X470384D01*
X470353Y170709D01*
X470323D01*
X470246Y170713D01*
X470165Y170721D01*
X470081Y170736D01*
X470000Y170752D01*
X469962Y170763D01*
X469927Y170775D01*
X469923D01*
X469919Y170779D01*
X469896Y170786D01*
X469866Y170805D01*
X469827Y170832D01*
X469781Y170863D01*
X469735Y170905D01*
X469689Y170955D01*
X469647Y171017D01*
X469643Y171024D01*
X469631Y171047D01*
X469612Y171082D01*
X469593Y171128D01*
X469574Y171186D01*
X469555Y171251D01*
X469543Y171320D01*
X469539Y171397D01*
Y171401D01*
Y171408D01*
Y171424D01*
X469543Y171443D01*
Y171466D01*
X469547Y171493D01*
X469562Y171554D01*
X469581Y171627D01*
X469612Y171700D01*
X469658Y171777D01*
X469685Y171815D01*
X469716Y171850D01*
X469724Y171858D01*
X469735Y171865D01*
X469746Y171881D01*
X469766Y171892D01*
X469789Y171911D01*
X469816Y171927D01*
X469846Y171946D01*
X469881Y171965D01*
X469923Y171984D01*
X469965Y172003D01*
X470015Y172023D01*
X470065Y172042D01*
X470123Y172057D01*
X470184Y172069D01*
X470250Y172080D01*
X470242Y172084D01*
X470226Y172092D01*
X470203Y172103D01*
X470177Y172119D01*
X470111Y172161D01*
X470077Y172184D01*
X470050Y172207D01*
X470042Y172215D01*
X470023Y172230D01*
X469996Y172261D01*
X469962Y172299D01*
X469919Y172349D01*
X469873Y172407D01*
X469823Y172472D01*
X469773Y172545D01*
X469336Y173228D01*
X469754D01*
X470088Y172706D01*
Y172702D01*
X470096Y172695D01*
X470104Y172683D01*
X470111Y172668D01*
X470138Y172629D01*
X470173Y172579D01*
X470211Y172522D01*
X470253Y172464D01*
X470292Y172411D01*
X470330Y172361D01*
X470334Y172357D01*
X470346Y172341D01*
X470365Y172318D01*
X470384Y172291D01*
X470442Y172238D01*
X470468Y172211D01*
X470499Y172192D01*
X470503Y172188D01*
X470511Y172184D01*
X470526Y172176D01*
X470545Y172165D01*
X470591Y172142D01*
X470649Y172123D01*
X470653D01*
X470660Y172119D01*
X470676D01*
X470695Y172115D01*
X470722Y172111D01*
X470753D01*
X470791Y172107D01*
X471221D01*
Y173228D01*
X471555D01*
Y170705D01*
D02*
G37*
G36*
X468287Y171255D02*
X468291Y171258D01*
X468306Y171274D01*
X468333Y171293D01*
X468368Y171320D01*
X468410Y171354D01*
X468460Y171389D01*
X468518Y171431D01*
X468583Y171470D01*
X468587D01*
X468591Y171474D01*
X468614Y171489D01*
X468648Y171508D01*
X468690Y171531D01*
X468740Y171558D01*
X468794Y171581D01*
X468852Y171608D01*
X468906Y171631D01*
Y171328D01*
X468902D01*
X468894Y171324D01*
X468879Y171316D01*
X468863Y171305D01*
X468840Y171293D01*
X468813Y171282D01*
X468752Y171247D01*
X468683Y171205D01*
X468606Y171155D01*
X468529Y171097D01*
X468456Y171036D01*
X468452Y171032D01*
X468449Y171028D01*
X468426Y171005D01*
X468391Y170970D01*
X468349Y170928D01*
X468303Y170875D01*
X468257Y170817D01*
X468214Y170755D01*
X468180Y170694D01*
X467976D01*
Y173228D01*
X468287D01*
Y171255D01*
D02*
G37*
G36*
X466329D02*
X466333Y171258D01*
X466348Y171274D01*
X466375Y171293D01*
X466410Y171320D01*
X466452Y171354D01*
X466502Y171389D01*
X466559Y171431D01*
X466625Y171470D01*
X466628D01*
X466632Y171474D01*
X466655Y171489D01*
X466690Y171508D01*
X466732Y171531D01*
X466782Y171558D01*
X466836Y171581D01*
X466893Y171608D01*
X466947Y171631D01*
Y171328D01*
X466943D01*
X466936Y171324D01*
X466920Y171316D01*
X466905Y171305D01*
X466882Y171293D01*
X466855Y171282D01*
X466793Y171247D01*
X466724Y171205D01*
X466648Y171155D01*
X466571Y171097D01*
X466498Y171036D01*
X466494Y171032D01*
X466490Y171028D01*
X466467Y171005D01*
X466433Y170970D01*
X466390Y170928D01*
X466344Y170875D01*
X466298Y170817D01*
X466256Y170755D01*
X466221Y170694D01*
X466018D01*
Y173228D01*
X466329D01*
Y171255D01*
D02*
G37*
G36*
X472154Y186453D02*
X470982D01*
X470952Y186457D01*
X470921D01*
X470844Y186461D01*
X470763Y186469D01*
X470679Y186484D01*
X470598Y186500D01*
X470560Y186511D01*
X470525Y186523D01*
X470522D01*
X470518Y186527D01*
X470495Y186534D01*
X470464Y186553D01*
X470426Y186580D01*
X470379Y186611D01*
X470333Y186653D01*
X470287Y186703D01*
X470245Y186765D01*
X470241Y186772D01*
X470230Y186795D01*
X470211Y186830D01*
X470191Y186876D01*
X470172Y186934D01*
X470153Y186999D01*
X470141Y187068D01*
X470138Y187145D01*
Y187149D01*
Y187156D01*
Y187172D01*
X470141Y187191D01*
Y187214D01*
X470145Y187241D01*
X470161Y187302D01*
X470180Y187375D01*
X470211Y187448D01*
X470257Y187525D01*
X470284Y187563D01*
X470314Y187598D01*
X470322Y187606D01*
X470333Y187613D01*
X470345Y187629D01*
X470364Y187640D01*
X470387Y187659D01*
X470414Y187675D01*
X470445Y187694D01*
X470479Y187713D01*
X470522Y187732D01*
X470564Y187751D01*
X470614Y187771D01*
X470664Y187790D01*
X470721Y187805D01*
X470783Y187817D01*
X470848Y187828D01*
X470840Y187832D01*
X470825Y187840D01*
X470802Y187851D01*
X470775Y187867D01*
X470710Y187909D01*
X470675Y187932D01*
X470648Y187955D01*
X470641Y187963D01*
X470621Y187978D01*
X470595Y188009D01*
X470560Y188047D01*
X470518Y188097D01*
X470472Y188155D01*
X470422Y188220D01*
X470372Y188293D01*
X469934Y188976D01*
X470353D01*
X470687Y188454D01*
Y188450D01*
X470694Y188443D01*
X470702Y188431D01*
X470710Y188416D01*
X470737Y188377D01*
X470771Y188327D01*
X470810Y188270D01*
X470852Y188212D01*
X470890Y188159D01*
X470929Y188109D01*
X470932Y188105D01*
X470944Y188089D01*
X470963Y188066D01*
X470982Y188040D01*
X471040Y187986D01*
X471067Y187959D01*
X471098Y187940D01*
X471101Y187936D01*
X471109Y187932D01*
X471124Y187924D01*
X471144Y187913D01*
X471190Y187890D01*
X471247Y187871D01*
X471251D01*
X471259Y187867D01*
X471274D01*
X471293Y187863D01*
X471320Y187859D01*
X471351D01*
X471389Y187855D01*
X471819D01*
Y188976D01*
X472154D01*
Y186453D01*
D02*
G37*
G36*
X468886Y187003D02*
X468890Y187006D01*
X468905Y187022D01*
X468932Y187041D01*
X468966Y187068D01*
X469009Y187102D01*
X469059Y187137D01*
X469116Y187179D01*
X469181Y187218D01*
X469185D01*
X469189Y187222D01*
X469212Y187237D01*
X469247Y187256D01*
X469289Y187279D01*
X469339Y187306D01*
X469393Y187329D01*
X469450Y187356D01*
X469504Y187379D01*
Y187076D01*
X469500D01*
X469492Y187072D01*
X469477Y187064D01*
X469462Y187053D01*
X469439Y187041D01*
X469412Y187030D01*
X469350Y186995D01*
X469281Y186953D01*
X469204Y186903D01*
X469128Y186845D01*
X469055Y186784D01*
X469051Y186780D01*
X469047Y186776D01*
X469024Y186753D01*
X468989Y186718D01*
X468947Y186676D01*
X468901Y186623D01*
X468855Y186565D01*
X468813Y186503D01*
X468778Y186442D01*
X468575D01*
Y188976D01*
X468886D01*
Y187003D01*
D02*
G37*
G36*
X467826Y188973D02*
Y188957D01*
Y188934D01*
X467822Y188907D01*
X467818Y188877D01*
X467814Y188842D01*
X467803Y188804D01*
X467791Y188765D01*
Y188761D01*
X467788Y188758D01*
X467780Y188734D01*
X467764Y188704D01*
X467741Y188658D01*
X467715Y188608D01*
X467676Y188550D01*
X467638Y188493D01*
X467588Y188431D01*
Y188427D01*
X467580Y188424D01*
X467561Y188400D01*
X467530Y188366D01*
X467484Y188320D01*
X467426Y188266D01*
X467357Y188201D01*
X467273Y188128D01*
X467181Y188047D01*
X467177Y188043D01*
X467162Y188032D01*
X467142Y188016D01*
X467115Y187989D01*
X467081Y187963D01*
X467042Y187928D01*
X466958Y187855D01*
X466866Y187767D01*
X466774Y187679D01*
X466728Y187636D01*
X466689Y187594D01*
X466655Y187552D01*
X466624Y187513D01*
Y187510D01*
X466616Y187506D01*
X466609Y187494D01*
X466601Y187479D01*
X466578Y187440D01*
X466551Y187390D01*
X466524Y187333D01*
X466501Y187271D01*
X466486Y187202D01*
X466478Y187137D01*
Y187133D01*
Y187129D01*
X466482Y187106D01*
X466486Y187072D01*
X466493Y187030D01*
X466513Y186980D01*
X466536Y186930D01*
X466566Y186876D01*
X466612Y186826D01*
X466620Y186822D01*
X466636Y186807D01*
X466666Y186788D01*
X466705Y186761D01*
X466754Y186738D01*
X466812Y186718D01*
X466881Y186703D01*
X466958Y186699D01*
X466981D01*
X466996Y186703D01*
X467035Y186707D01*
X467085Y186715D01*
X467142Y186734D01*
X467204Y186757D01*
X467261Y186792D01*
X467315Y186837D01*
X467319Y186845D01*
X467334Y186861D01*
X467357Y186891D01*
X467380Y186934D01*
X467407Y186987D01*
X467426Y187049D01*
X467442Y187122D01*
X467450Y187206D01*
X467768Y187172D01*
Y187168D01*
Y187156D01*
X467764Y187137D01*
X467761Y187114D01*
X467753Y187083D01*
X467749Y187049D01*
X467726Y186972D01*
X467695Y186884D01*
X467653Y186795D01*
X467595Y186707D01*
X467565Y186669D01*
X467526Y186630D01*
X467522Y186626D01*
X467515Y186623D01*
X467503Y186611D01*
X467488Y186600D01*
X467465Y186588D01*
X467438Y186569D01*
X467407Y186553D01*
X467373Y186534D01*
X467334Y186519D01*
X467292Y186500D01*
X467242Y186484D01*
X467192Y186473D01*
X467077Y186450D01*
X467016Y186446D01*
X466950Y186442D01*
X466916D01*
X466889Y186446D01*
X466858Y186450D01*
X466824Y186453D01*
X466785Y186457D01*
X466743Y186469D01*
X466651Y186492D01*
X466555Y186527D01*
X466505Y186549D01*
X466459Y186576D01*
X466417Y186611D01*
X466374Y186645D01*
X466370Y186649D01*
X466367Y186653D01*
X466355Y186665D01*
X466340Y186680D01*
X466324Y186703D01*
X466305Y186726D01*
X466267Y186784D01*
X466228Y186857D01*
X466194Y186941D01*
X466167Y187037D01*
X466163Y187091D01*
X466159Y187145D01*
Y187152D01*
Y187172D01*
X466163Y187202D01*
X466167Y187241D01*
X466175Y187287D01*
X466186Y187337D01*
X466202Y187390D01*
X466225Y187444D01*
X466228Y187452D01*
X466236Y187471D01*
X466252Y187498D01*
X466274Y187536D01*
X466301Y187583D01*
X466336Y187636D01*
X466382Y187690D01*
X466432Y187751D01*
X466440Y187759D01*
X466459Y187782D01*
X466493Y187817D01*
X466516Y187840D01*
X466543Y187867D01*
X466574Y187897D01*
X466612Y187932D01*
X466651Y187967D01*
X466693Y188009D01*
X466739Y188051D01*
X466793Y188097D01*
X466847Y188143D01*
X466908Y188197D01*
X466912Y188201D01*
X466920Y188208D01*
X466935Y188220D01*
X466954Y188235D01*
X467000Y188274D01*
X467058Y188324D01*
X467115Y188377D01*
X467177Y188431D01*
X467227Y188477D01*
X467246Y188496D01*
X467265Y188516D01*
X467269Y188520D01*
X467277Y188531D01*
X467292Y188546D01*
X467311Y188569D01*
X467353Y188619D01*
X467396Y188681D01*
X466155D01*
Y188976D01*
X467826D01*
Y188973D01*
D02*
G37*
G36*
X452039Y175832D02*
X452070Y175828D01*
X452108Y175824D01*
X452151Y175820D01*
X452197Y175813D01*
X452296Y175790D01*
X452404Y175755D01*
X452458Y175732D01*
X452512Y175705D01*
X452561Y175674D01*
X452611Y175640D01*
X452615Y175636D01*
X452623Y175632D01*
X452634Y175621D01*
X452654Y175605D01*
X452673Y175586D01*
X452700Y175559D01*
X452727Y175532D01*
X452753Y175502D01*
X452784Y175463D01*
X452811Y175425D01*
X452842Y175379D01*
X452873Y175329D01*
X452899Y175279D01*
X452926Y175221D01*
X452972Y175098D01*
X452642Y175022D01*
Y175025D01*
X452638Y175033D01*
X452634Y175048D01*
X452627Y175068D01*
X452615Y175091D01*
X452604Y175118D01*
X452577Y175175D01*
X452542Y175241D01*
X452496Y175310D01*
X452446Y175371D01*
X452385Y175425D01*
X452377Y175429D01*
X452354Y175444D01*
X452319Y175463D01*
X452270Y175490D01*
X452212Y175513D01*
X452139Y175532D01*
X452058Y175548D01*
X451966Y175551D01*
X451939D01*
X451920Y175548D01*
X451893D01*
X451866Y175544D01*
X451797Y175532D01*
X451721Y175517D01*
X451640Y175490D01*
X451559Y175455D01*
X451482Y175409D01*
X451478D01*
X451475Y175402D01*
X451452Y175382D01*
X451417Y175352D01*
X451375Y175310D01*
X451333Y175256D01*
X451287Y175194D01*
X451244Y175118D01*
X451210Y175033D01*
Y175029D01*
X451206Y175022D01*
X451202Y175010D01*
X451198Y174991D01*
X451191Y174972D01*
X451187Y174945D01*
X451171Y174883D01*
X451156Y174810D01*
X451145Y174730D01*
X451137Y174641D01*
X451133Y174549D01*
Y174545D01*
Y174534D01*
Y174519D01*
Y174495D01*
X451137Y174469D01*
Y174434D01*
X451141Y174399D01*
X451145Y174361D01*
X451156Y174273D01*
X451171Y174177D01*
X451194Y174081D01*
X451225Y173989D01*
Y173985D01*
X451229Y173977D01*
X451237Y173966D01*
X451244Y173950D01*
X451264Y173904D01*
X451294Y173854D01*
X451336Y173793D01*
X451386Y173735D01*
X451444Y173678D01*
X451513Y173628D01*
X451517D01*
X451521Y173624D01*
X451532Y173616D01*
X451548Y173609D01*
X451590Y173593D01*
X451644Y173570D01*
X451705Y173551D01*
X451778Y173532D01*
X451859Y173516D01*
X451943Y173512D01*
X451970D01*
X451989Y173516D01*
X452012D01*
X452043Y173520D01*
X452108Y173532D01*
X452181Y173551D01*
X452262Y173582D01*
X452339Y173620D01*
X452416Y173674D01*
X452419Y173678D01*
X452423Y173681D01*
X452446Y173705D01*
X452481Y173743D01*
X452523Y173793D01*
X452565Y173862D01*
X452611Y173942D01*
X452650Y174042D01*
X452680Y174154D01*
X453015Y174069D01*
Y174065D01*
X453011Y174050D01*
X453003Y174031D01*
X452995Y174000D01*
X452980Y173969D01*
X452965Y173927D01*
X452949Y173885D01*
X452926Y173839D01*
X452876Y173735D01*
X452807Y173632D01*
X452730Y173532D01*
X452684Y173486D01*
X452634Y173443D01*
X452631Y173440D01*
X452623Y173436D01*
X452607Y173424D01*
X452585Y173409D01*
X452558Y173393D01*
X452527Y173374D01*
X452492Y173355D01*
X452450Y173336D01*
X452404Y173317D01*
X452354Y173297D01*
X452296Y173278D01*
X452239Y173263D01*
X452112Y173236D01*
X452043Y173232D01*
X451970Y173228D01*
X451932D01*
X451901Y173232D01*
X451866D01*
X451828Y173236D01*
X451782Y173244D01*
X451736Y173248D01*
X451628Y173270D01*
X451517Y173297D01*
X451409Y173340D01*
X451356Y173363D01*
X451306Y173393D01*
X451302Y173397D01*
X451294Y173401D01*
X451283Y173413D01*
X451264Y173424D01*
X451217Y173462D01*
X451164Y173516D01*
X451098Y173582D01*
X451037Y173666D01*
X450972Y173762D01*
X450918Y173873D01*
Y173877D01*
X450914Y173889D01*
X450906Y173904D01*
X450899Y173927D01*
X450887Y173958D01*
X450876Y173993D01*
X450864Y174031D01*
X450853Y174077D01*
X450841Y174123D01*
X450830Y174177D01*
X450807Y174292D01*
X450791Y174415D01*
X450787Y174549D01*
Y174553D01*
Y174568D01*
Y174588D01*
X450791Y174615D01*
Y174649D01*
X450795Y174691D01*
X450799Y174734D01*
X450807Y174784D01*
X450826Y174891D01*
X450849Y175006D01*
X450887Y175125D01*
X450937Y175237D01*
Y175241D01*
X450945Y175248D01*
X450952Y175264D01*
X450964Y175286D01*
X450979Y175310D01*
X450998Y175337D01*
X451049Y175402D01*
X451106Y175475D01*
X451179Y175548D01*
X451267Y175621D01*
X451363Y175682D01*
X451367D01*
X451375Y175690D01*
X451390Y175697D01*
X451413Y175705D01*
X451436Y175717D01*
X451467Y175732D01*
X451505Y175743D01*
X451544Y175759D01*
X451586Y175774D01*
X451632Y175786D01*
X451736Y175813D01*
X451851Y175828D01*
X451974Y175836D01*
X452012D01*
X452039Y175832D01*
D02*
G37*
G36*
X454600Y174158D02*
X454942D01*
Y173873D01*
X454600D01*
Y173270D01*
X454289D01*
Y173873D01*
X453195D01*
Y174158D01*
X454347Y175790D01*
X454600D01*
Y174158D01*
D02*
G37*
G36*
X449106Y186411D02*
X447935D01*
X447904Y186415D01*
X447874D01*
X447797Y186419D01*
X447716Y186427D01*
X447632Y186442D01*
X447551Y186457D01*
X447513Y186469D01*
X447478Y186480D01*
X447474D01*
X447471Y186484D01*
X447447Y186492D01*
X447417Y186511D01*
X447378Y186538D01*
X447332Y186569D01*
X447286Y186611D01*
X447240Y186661D01*
X447198Y186722D01*
X447194Y186730D01*
X447183Y186753D01*
X447163Y186788D01*
X447144Y186834D01*
X447125Y186891D01*
X447106Y186957D01*
X447094Y187026D01*
X447090Y187102D01*
Y187106D01*
Y187114D01*
Y187129D01*
X447094Y187149D01*
Y187172D01*
X447098Y187198D01*
X447113Y187260D01*
X447133Y187333D01*
X447163Y187406D01*
X447209Y187483D01*
X447236Y187521D01*
X447267Y187556D01*
X447275Y187563D01*
X447286Y187571D01*
X447298Y187586D01*
X447317Y187598D01*
X447340Y187617D01*
X447367Y187632D01*
X447398Y187652D01*
X447432Y187671D01*
X447474Y187690D01*
X447517Y187709D01*
X447567Y187728D01*
X447616Y187748D01*
X447674Y187763D01*
X447736Y187775D01*
X447801Y187786D01*
X447793Y187790D01*
X447778Y187797D01*
X447755Y187809D01*
X447728Y187824D01*
X447662Y187867D01*
X447628Y187890D01*
X447601Y187913D01*
X447593Y187920D01*
X447574Y187936D01*
X447547Y187967D01*
X447513Y188005D01*
X447471Y188055D01*
X447424Y188112D01*
X447374Y188178D01*
X447325Y188251D01*
X446887Y188934D01*
X447305D01*
X447640Y188412D01*
Y188408D01*
X447647Y188400D01*
X447655Y188389D01*
X447662Y188373D01*
X447689Y188335D01*
X447724Y188285D01*
X447762Y188228D01*
X447805Y188170D01*
X447843Y188116D01*
X447881Y188066D01*
X447885Y188063D01*
X447897Y188047D01*
X447916Y188024D01*
X447935Y187997D01*
X447993Y187943D01*
X448020Y187917D01*
X448050Y187897D01*
X448054Y187893D01*
X448062Y187890D01*
X448077Y187882D01*
X448096Y187871D01*
X448142Y187847D01*
X448200Y187828D01*
X448204D01*
X448212Y187824D01*
X448227D01*
X448246Y187821D01*
X448273Y187817D01*
X448304D01*
X448342Y187813D01*
X448772D01*
Y188934D01*
X449106D01*
Y186411D01*
D02*
G37*
G36*
X445838Y186960D02*
X445842Y186964D01*
X445858Y186980D01*
X445885Y186999D01*
X445919Y187026D01*
X445961Y187060D01*
X446011Y187095D01*
X446069Y187137D01*
X446134Y187176D01*
X446138D01*
X446142Y187179D01*
X446165Y187195D01*
X446200Y187214D01*
X446242Y187237D01*
X446292Y187264D01*
X446345Y187287D01*
X446403Y187314D01*
X446457Y187337D01*
Y187033D01*
X446453D01*
X446445Y187030D01*
X446430Y187022D01*
X446415Y187010D01*
X446391Y186999D01*
X446365Y186987D01*
X446303Y186953D01*
X446234Y186910D01*
X446157Y186861D01*
X446080Y186803D01*
X446007Y186741D01*
X446004Y186738D01*
X446000Y186734D01*
X445977Y186711D01*
X445942Y186676D01*
X445900Y186634D01*
X445854Y186580D01*
X445808Y186523D01*
X445766Y186461D01*
X445731Y186400D01*
X445528D01*
Y188934D01*
X445838D01*
Y186960D01*
D02*
G37*
G36*
X443976Y188973D02*
X444007Y188969D01*
X444041Y188961D01*
X444080Y188953D01*
X444122Y188946D01*
X444214Y188915D01*
X444264Y188892D01*
X444310Y188869D01*
X444360Y188838D01*
X444406Y188804D01*
X444448Y188765D01*
X444491Y188719D01*
X444494Y188715D01*
X444502Y188704D01*
X444514Y188685D01*
X444529Y188658D01*
X444548Y188623D01*
X444567Y188581D01*
X444591Y188531D01*
X444614Y188470D01*
X444637Y188404D01*
X444660Y188327D01*
X444679Y188243D01*
X444698Y188151D01*
X444713Y188047D01*
X444725Y187940D01*
X444733Y187817D01*
X444736Y187690D01*
Y187686D01*
Y187671D01*
Y187648D01*
Y187617D01*
X444733Y187579D01*
Y187536D01*
X444729Y187487D01*
X444725Y187433D01*
X444713Y187318D01*
X444698Y187198D01*
X444679Y187079D01*
X444663Y187026D01*
X444648Y186972D01*
Y186968D01*
X444644Y186960D01*
X444637Y186945D01*
X444629Y186926D01*
X444621Y186903D01*
X444610Y186876D01*
X444579Y186814D01*
X444541Y186745D01*
X444494Y186676D01*
X444441Y186611D01*
X444376Y186549D01*
X444372D01*
X444368Y186542D01*
X444356Y186534D01*
X444341Y186527D01*
X444303Y186503D01*
X444249Y186473D01*
X444183Y186446D01*
X444103Y186423D01*
X444015Y186407D01*
X443915Y186400D01*
X443880D01*
X443842Y186404D01*
X443796Y186411D01*
X443742Y186419D01*
X443680Y186434D01*
X443619Y186457D01*
X443561Y186484D01*
X443554Y186488D01*
X443535Y186500D01*
X443508Y186519D01*
X443469Y186542D01*
X443431Y186576D01*
X443389Y186619D01*
X443346Y186665D01*
X443308Y186718D01*
X443304Y186726D01*
X443293Y186745D01*
X443273Y186780D01*
X443250Y186822D01*
X443227Y186876D01*
X443200Y186941D01*
X443174Y187014D01*
X443151Y187095D01*
Y187099D01*
X443147Y187106D01*
Y187118D01*
X443143Y187137D01*
X443135Y187156D01*
X443131Y187183D01*
X443127Y187218D01*
X443120Y187252D01*
X443116Y187294D01*
X443112Y187337D01*
X443104Y187387D01*
X443101Y187440D01*
X443097Y187498D01*
Y187556D01*
X443093Y187690D01*
Y187694D01*
Y187709D01*
Y187732D01*
Y187763D01*
X443097Y187801D01*
Y187844D01*
X443101Y187893D01*
X443104Y187947D01*
X443116Y188063D01*
X443131Y188181D01*
X443154Y188301D01*
X443170Y188354D01*
X443185Y188408D01*
Y188412D01*
X443189Y188420D01*
X443193Y188435D01*
X443200Y188454D01*
X443212Y188477D01*
X443223Y188500D01*
X443254Y188562D01*
X443293Y188631D01*
X443339Y188700D01*
X443392Y188769D01*
X443458Y188830D01*
X443462D01*
X443465Y188838D01*
X443477Y188842D01*
X443488Y188854D01*
X443531Y188877D01*
X443581Y188903D01*
X443650Y188930D01*
X443726Y188953D01*
X443815Y188969D01*
X443915Y188976D01*
X443949D01*
X443976Y188973D01*
D02*
G37*
G36*
X380457D02*
X380480D01*
X380510Y188969D01*
X380579Y188957D01*
X380656Y188938D01*
X380737Y188907D01*
X380814Y188869D01*
X380891Y188815D01*
X380894Y188811D01*
X380898Y188807D01*
X380921Y188784D01*
X380952Y188746D01*
X380990Y188696D01*
X381029Y188631D01*
X381063Y188550D01*
X381094Y188458D01*
X381113Y188350D01*
X380818Y188327D01*
Y188331D01*
Y188335D01*
X380814Y188347D01*
X380810Y188362D01*
X380802Y188400D01*
X380787Y188443D01*
X380768Y188493D01*
X380745Y188542D01*
X380714Y188592D01*
X380676Y188631D01*
X380672Y188635D01*
X380656Y188646D01*
X380633Y188662D01*
X380599Y188677D01*
X380560Y188692D01*
X380514Y188708D01*
X380461Y188719D01*
X380399Y188723D01*
X380376D01*
X380349Y188719D01*
X380315Y188715D01*
X380276Y188708D01*
X380234Y188696D01*
X380192Y188681D01*
X380150Y188658D01*
X380146Y188654D01*
X380130Y188646D01*
X380111Y188631D01*
X380088Y188612D01*
X380057Y188589D01*
X380030Y188558D01*
X380000Y188523D01*
X379973Y188485D01*
X379969Y188481D01*
X379961Y188466D01*
X379950Y188439D01*
X379931Y188404D01*
X379915Y188362D01*
X379896Y188312D01*
X379877Y188254D01*
X379858Y188189D01*
Y188185D01*
X379854Y188181D01*
Y188170D01*
X379850Y188159D01*
X379842Y188120D01*
X379835Y188070D01*
X379827Y188013D01*
X379819Y187951D01*
X379812Y187882D01*
Y187809D01*
Y187805D01*
Y187794D01*
Y187775D01*
Y187748D01*
X379815Y187755D01*
X379831Y187771D01*
X379850Y187801D01*
X379881Y187832D01*
X379915Y187871D01*
X379961Y187913D01*
X380011Y187951D01*
X380069Y187989D01*
X380077Y187993D01*
X380096Y188005D01*
X380130Y188016D01*
X380172Y188032D01*
X380222Y188051D01*
X380280Y188063D01*
X380345Y188074D01*
X380414Y188078D01*
X380445D01*
X380468Y188074D01*
X380495Y188070D01*
X380526Y188066D01*
X380599Y188051D01*
X380683Y188024D01*
X380726Y188005D01*
X380771Y187982D01*
X380814Y187955D01*
X380860Y187924D01*
X380902Y187890D01*
X380944Y187851D01*
X380948Y187847D01*
X380952Y187840D01*
X380963Y187828D01*
X380979Y187809D01*
X380994Y187786D01*
X381013Y187759D01*
X381033Y187728D01*
X381052Y187690D01*
X381071Y187652D01*
X381090Y187606D01*
X381109Y187556D01*
X381125Y187502D01*
X381140Y187444D01*
X381152Y187387D01*
X381155Y187321D01*
X381159Y187252D01*
Y187248D01*
Y187237D01*
Y187214D01*
X381155Y187187D01*
X381152Y187156D01*
X381148Y187118D01*
X381140Y187076D01*
X381133Y187030D01*
X381106Y186934D01*
X381086Y186880D01*
X381063Y186830D01*
X381040Y186776D01*
X381010Y186726D01*
X380975Y186680D01*
X380937Y186634D01*
X380933Y186630D01*
X380925Y186623D01*
X380914Y186611D01*
X380894Y186596D01*
X380875Y186580D01*
X380848Y186561D01*
X380818Y186538D01*
X380779Y186515D01*
X380741Y186496D01*
X380699Y186473D01*
X380603Y186434D01*
X380549Y186423D01*
X380491Y186411D01*
X380430Y186404D01*
X380368Y186400D01*
X380345D01*
X380326Y186404D01*
X380307D01*
X380280Y186407D01*
X380219Y186415D01*
X380150Y186434D01*
X380077Y186457D01*
X379996Y186488D01*
X379919Y186534D01*
X379915D01*
X379911Y186542D01*
X379900Y186549D01*
X379885Y186557D01*
X379850Y186588D01*
X379804Y186630D01*
X379754Y186688D01*
X379700Y186749D01*
X379650Y186826D01*
X379608Y186914D01*
Y186918D01*
X379604Y186926D01*
X379596Y186941D01*
X379593Y186960D01*
X379581Y186983D01*
X379573Y187014D01*
X379566Y187053D01*
X379554Y187095D01*
X379543Y187141D01*
X379535Y187195D01*
X379523Y187252D01*
X379516Y187314D01*
X379512Y187383D01*
X379504Y187456D01*
X379501Y187536D01*
Y187621D01*
Y187625D01*
Y187644D01*
Y187667D01*
Y187701D01*
X379504Y187740D01*
Y187790D01*
X379508Y187840D01*
X379512Y187897D01*
X379527Y188020D01*
X379547Y188151D01*
X379573Y188277D01*
X379589Y188335D01*
X379608Y188393D01*
Y188397D01*
X379612Y188404D01*
X379620Y188420D01*
X379627Y188439D01*
X379639Y188466D01*
X379650Y188493D01*
X379685Y188554D01*
X379731Y188627D01*
X379785Y188700D01*
X379846Y188769D01*
X379919Y188830D01*
X379923D01*
X379927Y188838D01*
X379938Y188842D01*
X379958Y188854D01*
X379977Y188865D01*
X380000Y188877D01*
X380057Y188903D01*
X380130Y188930D01*
X380211Y188953D01*
X380307Y188969D01*
X380407Y188976D01*
X380434D01*
X380457Y188973D01*
D02*
G37*
G36*
X383571Y186411D02*
X382400D01*
X382369Y186415D01*
X382338D01*
X382261Y186419D01*
X382181Y186427D01*
X382096Y186442D01*
X382016Y186457D01*
X381977Y186469D01*
X381943Y186480D01*
X381939D01*
X381935Y186484D01*
X381912Y186492D01*
X381881Y186511D01*
X381843Y186538D01*
X381797Y186569D01*
X381751Y186611D01*
X381705Y186661D01*
X381662Y186722D01*
X381659Y186730D01*
X381647Y186753D01*
X381628Y186788D01*
X381609Y186834D01*
X381590Y186891D01*
X381570Y186957D01*
X381559Y187026D01*
X381555Y187102D01*
Y187106D01*
Y187114D01*
Y187129D01*
X381559Y187149D01*
Y187172D01*
X381563Y187198D01*
X381578Y187260D01*
X381597Y187333D01*
X381628Y187406D01*
X381674Y187483D01*
X381701Y187521D01*
X381732Y187556D01*
X381739Y187563D01*
X381751Y187571D01*
X381762Y187586D01*
X381782Y187598D01*
X381804Y187617D01*
X381831Y187632D01*
X381862Y187652D01*
X381897Y187671D01*
X381939Y187690D01*
X381981Y187709D01*
X382031Y187728D01*
X382081Y187748D01*
X382139Y187763D01*
X382200Y187775D01*
X382265Y187786D01*
X382258Y187790D01*
X382242Y187797D01*
X382219Y187809D01*
X382192Y187824D01*
X382127Y187867D01*
X382092Y187890D01*
X382066Y187913D01*
X382058Y187920D01*
X382039Y187936D01*
X382012Y187967D01*
X381977Y188005D01*
X381935Y188055D01*
X381889Y188112D01*
X381839Y188178D01*
X381789Y188251D01*
X381351Y188934D01*
X381770D01*
X382104Y188412D01*
Y188408D01*
X382112Y188400D01*
X382119Y188389D01*
X382127Y188373D01*
X382154Y188335D01*
X382189Y188285D01*
X382227Y188228D01*
X382269Y188170D01*
X382308Y188116D01*
X382346Y188066D01*
X382350Y188063D01*
X382361Y188047D01*
X382381Y188024D01*
X382400Y187997D01*
X382457Y187943D01*
X382484Y187917D01*
X382515Y187897D01*
X382519Y187893D01*
X382526Y187890D01*
X382542Y187882D01*
X382561Y187871D01*
X382607Y187847D01*
X382665Y187828D01*
X382668D01*
X382676Y187824D01*
X382692D01*
X382711Y187821D01*
X382738Y187817D01*
X382768D01*
X382807Y187813D01*
X383237D01*
Y188934D01*
X383571D01*
Y186411D01*
D02*
G37*
G36*
X382973Y170663D02*
X381801D01*
X381771Y170667D01*
X381740D01*
X381663Y170671D01*
X381582Y170679D01*
X381498Y170694D01*
X381417Y170709D01*
X381379Y170721D01*
X381344Y170732D01*
X381341D01*
X381337Y170736D01*
X381314Y170744D01*
X381283Y170763D01*
X381244Y170790D01*
X381198Y170821D01*
X381152Y170863D01*
X381106Y170913D01*
X381064Y170974D01*
X381060Y170982D01*
X381049Y171005D01*
X381030Y171040D01*
X381010Y171086D01*
X380991Y171143D01*
X380972Y171209D01*
X380960Y171278D01*
X380957Y171354D01*
Y171358D01*
Y171366D01*
Y171381D01*
X380960Y171401D01*
Y171424D01*
X380964Y171450D01*
X380979Y171512D01*
X380999Y171585D01*
X381030Y171658D01*
X381076Y171735D01*
X381102Y171773D01*
X381133Y171808D01*
X381141Y171815D01*
X381152Y171823D01*
X381164Y171838D01*
X381183Y171850D01*
X381206Y171869D01*
X381233Y171884D01*
X381264Y171904D01*
X381298Y171923D01*
X381341Y171942D01*
X381383Y171961D01*
X381433Y171980D01*
X381483Y172000D01*
X381540Y172015D01*
X381602Y172027D01*
X381667Y172038D01*
X381659Y172042D01*
X381644Y172049D01*
X381621Y172061D01*
X381594Y172076D01*
X381529Y172119D01*
X381494Y172142D01*
X381467Y172165D01*
X381459Y172172D01*
X381440Y172188D01*
X381414Y172219D01*
X381379Y172257D01*
X381337Y172307D01*
X381291Y172364D01*
X381241Y172430D01*
X381191Y172503D01*
X380753Y173186D01*
X381171D01*
X381506Y172664D01*
Y172660D01*
X381513Y172652D01*
X381521Y172641D01*
X381529Y172626D01*
X381556Y172587D01*
X381590Y172537D01*
X381628Y172480D01*
X381671Y172422D01*
X381709Y172368D01*
X381748Y172318D01*
X381751Y172315D01*
X381763Y172299D01*
X381782Y172276D01*
X381801Y172249D01*
X381859Y172195D01*
X381886Y172169D01*
X381916Y172149D01*
X381920Y172145D01*
X381928Y172142D01*
X381943Y172134D01*
X381963Y172123D01*
X382009Y172099D01*
X382066Y172080D01*
X382070D01*
X382078Y172076D01*
X382093D01*
X382112Y172073D01*
X382139Y172069D01*
X382170D01*
X382208Y172065D01*
X382638D01*
Y173186D01*
X382973D01*
Y170663D01*
D02*
G37*
G36*
X379797Y173225D02*
X379827Y173221D01*
X379866Y173217D01*
X379904Y173209D01*
X379950Y173202D01*
X380046Y173175D01*
X380096Y173155D01*
X380146Y173136D01*
X380196Y173109D01*
X380246Y173082D01*
X380292Y173048D01*
X380338Y173010D01*
X380342Y173006D01*
X380350Y172998D01*
X380358Y172986D01*
X380373Y172971D01*
X380392Y172948D01*
X380411Y172921D01*
X380430Y172890D01*
X380450Y172856D01*
X380473Y172818D01*
X380492Y172775D01*
X380530Y172683D01*
X380546Y172629D01*
X380553Y172576D01*
X380561Y172518D01*
X380565Y172457D01*
Y172453D01*
Y172445D01*
Y172433D01*
X380561Y172414D01*
Y172395D01*
X380557Y172368D01*
X380550Y172315D01*
X380534Y172249D01*
X380511Y172180D01*
X380484Y172111D01*
X380442Y172046D01*
Y172042D01*
X380434Y172038D01*
X380419Y172019D01*
X380388Y171988D01*
X380350Y171953D01*
X380300Y171915D01*
X380238Y171877D01*
X380166Y171842D01*
X380085Y171815D01*
X380089D01*
X380093Y171811D01*
X380116Y171804D01*
X380150Y171785D01*
X380192Y171765D01*
X380242Y171735D01*
X380288Y171700D01*
X380334Y171662D01*
X380373Y171616D01*
X380377Y171608D01*
X380388Y171593D01*
X380403Y171566D01*
X380419Y171527D01*
X380434Y171481D01*
X380450Y171427D01*
X380461Y171370D01*
X380465Y171305D01*
Y171301D01*
Y171293D01*
Y171278D01*
X380461Y171258D01*
X380457Y171235D01*
X380453Y171209D01*
X380442Y171143D01*
X380419Y171070D01*
X380381Y170993D01*
X380361Y170951D01*
X380334Y170913D01*
X380304Y170875D01*
X380269Y170840D01*
X380265Y170836D01*
X380261Y170832D01*
X380250Y170821D01*
X380235Y170809D01*
X380211Y170798D01*
X380188Y170779D01*
X380162Y170763D01*
X380127Y170744D01*
X380054Y170709D01*
X379962Y170683D01*
X379858Y170659D01*
X379804Y170656D01*
X379743Y170652D01*
X379712D01*
X379689Y170656D01*
X379659D01*
X379628Y170663D01*
X379551Y170675D01*
X379467Y170698D01*
X379378Y170732D01*
X379332Y170755D01*
X379290Y170779D01*
X379248Y170809D01*
X379209Y170844D01*
X379205Y170848D01*
X379202Y170851D01*
X379190Y170863D01*
X379179Y170878D01*
X379163Y170897D01*
X379144Y170921D01*
X379106Y170974D01*
X379071Y171043D01*
X379036Y171124D01*
X379013Y171212D01*
X379010Y171262D01*
X379006Y171312D01*
Y171320D01*
Y171343D01*
X379010Y171374D01*
X379017Y171416D01*
X379029Y171466D01*
X379044Y171516D01*
X379067Y171570D01*
X379098Y171619D01*
X379102Y171623D01*
X379113Y171639D01*
X379136Y171662D01*
X379167Y171692D01*
X379205Y171723D01*
X379255Y171754D01*
X379313Y171788D01*
X379378Y171815D01*
X379374D01*
X379367Y171819D01*
X379355Y171823D01*
X379340Y171831D01*
X379298Y171850D01*
X379248Y171873D01*
X379190Y171907D01*
X379133Y171950D01*
X379075Y172003D01*
X379025Y172061D01*
X379021Y172069D01*
X379006Y172092D01*
X378987Y172126D01*
X378963Y172176D01*
X378941Y172234D01*
X378921Y172303D01*
X378906Y172380D01*
X378902Y172464D01*
Y172468D01*
Y172480D01*
Y172495D01*
X378906Y172518D01*
X378910Y172545D01*
X378914Y172579D01*
X378929Y172656D01*
X378960Y172741D01*
X378975Y172787D01*
X378998Y172833D01*
X379025Y172879D01*
X379056Y172925D01*
X379090Y172967D01*
X379133Y173010D01*
X379136Y173013D01*
X379144Y173017D01*
X379155Y173029D01*
X379175Y173044D01*
X379198Y173059D01*
X379225Y173079D01*
X379255Y173098D01*
X379294Y173117D01*
X379336Y173140D01*
X379382Y173159D01*
X379432Y173179D01*
X379486Y173194D01*
X379539Y173209D01*
X379601Y173221D01*
X379666Y173225D01*
X379735Y173228D01*
X379770D01*
X379797Y173225D01*
D02*
G37*
G36*
X363457Y175832D02*
X363487Y175828D01*
X363526Y175824D01*
X363568Y175820D01*
X363614Y175813D01*
X363714Y175790D01*
X363821Y175755D01*
X363875Y175732D01*
X363929Y175705D01*
X363979Y175674D01*
X364029Y175640D01*
X364033Y175636D01*
X364040Y175632D01*
X364052Y175621D01*
X364071Y175605D01*
X364090Y175586D01*
X364117Y175559D01*
X364144Y175532D01*
X364171Y175502D01*
X364201Y175463D01*
X364228Y175425D01*
X364259Y175379D01*
X364290Y175329D01*
X364317Y175279D01*
X364344Y175221D01*
X364390Y175098D01*
X364059Y175022D01*
Y175025D01*
X364055Y175033D01*
X364052Y175048D01*
X364044Y175068D01*
X364033Y175091D01*
X364021Y175118D01*
X363994Y175175D01*
X363960Y175241D01*
X363913Y175310D01*
X363863Y175371D01*
X363802Y175425D01*
X363794Y175429D01*
X363771Y175444D01*
X363737Y175463D01*
X363687Y175490D01*
X363629Y175513D01*
X363556Y175532D01*
X363476Y175548D01*
X363384Y175551D01*
X363357D01*
X363337Y175548D01*
X363311D01*
X363284Y175544D01*
X363215Y175532D01*
X363138Y175517D01*
X363057Y175490D01*
X362977Y175455D01*
X362900Y175409D01*
X362896D01*
X362892Y175402D01*
X362869Y175382D01*
X362834Y175352D01*
X362792Y175310D01*
X362750Y175256D01*
X362704Y175194D01*
X362662Y175118D01*
X362627Y175033D01*
Y175029D01*
X362623Y175022D01*
X362619Y175010D01*
X362615Y174991D01*
X362608Y174972D01*
X362604Y174945D01*
X362589Y174883D01*
X362573Y174810D01*
X362562Y174730D01*
X362554Y174641D01*
X362550Y174549D01*
Y174545D01*
Y174534D01*
Y174519D01*
Y174495D01*
X362554Y174469D01*
Y174434D01*
X362558Y174399D01*
X362562Y174361D01*
X362573Y174273D01*
X362589Y174177D01*
X362612Y174081D01*
X362642Y173989D01*
Y173985D01*
X362646Y173977D01*
X362654Y173966D01*
X362662Y173950D01*
X362681Y173904D01*
X362712Y173854D01*
X362754Y173793D01*
X362804Y173735D01*
X362861Y173678D01*
X362930Y173628D01*
X362934D01*
X362938Y173624D01*
X362950Y173616D01*
X362965Y173609D01*
X363007Y173593D01*
X363061Y173570D01*
X363122Y173551D01*
X363195Y173532D01*
X363276Y173516D01*
X363361Y173512D01*
X363387D01*
X363407Y173516D01*
X363430D01*
X363460Y173520D01*
X363526Y173532D01*
X363599Y173551D01*
X363679Y173582D01*
X363756Y173620D01*
X363833Y173674D01*
X363837Y173678D01*
X363841Y173681D01*
X363863Y173705D01*
X363898Y173743D01*
X363940Y173793D01*
X363983Y173862D01*
X364029Y173942D01*
X364067Y174042D01*
X364098Y174154D01*
X364432Y174069D01*
Y174065D01*
X364428Y174050D01*
X364420Y174031D01*
X364413Y174000D01*
X364397Y173969D01*
X364382Y173927D01*
X364367Y173885D01*
X364344Y173839D01*
X364294Y173735D01*
X364225Y173632D01*
X364148Y173532D01*
X364102Y173486D01*
X364052Y173443D01*
X364048Y173440D01*
X364040Y173436D01*
X364025Y173424D01*
X364002Y173409D01*
X363975Y173393D01*
X363944Y173374D01*
X363910Y173355D01*
X363867Y173336D01*
X363821Y173317D01*
X363771Y173297D01*
X363714Y173278D01*
X363656Y173263D01*
X363529Y173236D01*
X363460Y173232D01*
X363387Y173228D01*
X363349D01*
X363318Y173232D01*
X363284D01*
X363245Y173236D01*
X363199Y173244D01*
X363153Y173248D01*
X363046Y173270D01*
X362934Y173297D01*
X362827Y173340D01*
X362773Y173363D01*
X362723Y173393D01*
X362719Y173397D01*
X362712Y173401D01*
X362700Y173413D01*
X362681Y173424D01*
X362635Y173462D01*
X362581Y173516D01*
X362516Y173582D01*
X362454Y173666D01*
X362389Y173762D01*
X362335Y173873D01*
Y173877D01*
X362331Y173889D01*
X362324Y173904D01*
X362316Y173927D01*
X362304Y173958D01*
X362293Y173993D01*
X362281Y174031D01*
X362270Y174077D01*
X362258Y174123D01*
X362247Y174177D01*
X362224Y174292D01*
X362209Y174415D01*
X362205Y174549D01*
Y174553D01*
Y174568D01*
Y174588D01*
X362209Y174615D01*
Y174649D01*
X362212Y174691D01*
X362216Y174734D01*
X362224Y174784D01*
X362243Y174891D01*
X362266Y175006D01*
X362304Y175125D01*
X362354Y175237D01*
Y175241D01*
X362362Y175248D01*
X362370Y175264D01*
X362381Y175286D01*
X362397Y175310D01*
X362416Y175337D01*
X362466Y175402D01*
X362523Y175475D01*
X362596Y175548D01*
X362685Y175621D01*
X362781Y175682D01*
X362785D01*
X362792Y175690D01*
X362807Y175697D01*
X362831Y175705D01*
X362854Y175717D01*
X362884Y175732D01*
X362923Y175743D01*
X362961Y175759D01*
X363003Y175774D01*
X363050Y175786D01*
X363153Y175813D01*
X363268Y175828D01*
X363391Y175836D01*
X363430D01*
X363457Y175832D01*
D02*
G37*
G36*
X365580Y175801D02*
X365630Y175793D01*
X365688Y175782D01*
X365753Y175767D01*
X365818Y175743D01*
X365883Y175713D01*
X365887D01*
X365891Y175709D01*
X365914Y175697D01*
X365945Y175678D01*
X365983Y175651D01*
X366025Y175617D01*
X366072Y175575D01*
X366114Y175525D01*
X366152Y175471D01*
X366156Y175463D01*
X366167Y175444D01*
X366183Y175413D01*
X366198Y175375D01*
X366214Y175325D01*
X366229Y175271D01*
X366241Y175214D01*
X366244Y175148D01*
Y175141D01*
Y175121D01*
X366241Y175091D01*
X366233Y175052D01*
X366221Y175006D01*
X366206Y174956D01*
X366187Y174902D01*
X366156Y174853D01*
X366152Y174845D01*
X366141Y174830D01*
X366118Y174806D01*
X366091Y174776D01*
X366052Y174741D01*
X366010Y174707D01*
X365956Y174668D01*
X365895Y174638D01*
X365899D01*
X365906Y174634D01*
X365918D01*
X365933Y174626D01*
X365972Y174615D01*
X366022Y174592D01*
X366075Y174565D01*
X366133Y174526D01*
X366191Y174480D01*
X366241Y174423D01*
X366244Y174415D01*
X366260Y174392D01*
X366279Y174357D01*
X366306Y174311D01*
X366329Y174254D01*
X366348Y174185D01*
X366363Y174104D01*
X366367Y174015D01*
Y174012D01*
Y174000D01*
Y173985D01*
X366363Y173962D01*
X366359Y173931D01*
X366356Y173900D01*
X366348Y173862D01*
X366336Y173823D01*
X366310Y173735D01*
X366290Y173685D01*
X366264Y173639D01*
X366237Y173593D01*
X366206Y173547D01*
X366167Y173501D01*
X366125Y173455D01*
X366122Y173451D01*
X366114Y173443D01*
X366102Y173436D01*
X366083Y173420D01*
X366060Y173401D01*
X366029Y173382D01*
X365995Y173363D01*
X365960Y173344D01*
X365918Y173320D01*
X365872Y173301D01*
X365822Y173282D01*
X365768Y173263D01*
X365711Y173248D01*
X365649Y173240D01*
X365584Y173232D01*
X365519Y173228D01*
X365488D01*
X365465Y173232D01*
X365434Y173236D01*
X365403Y173240D01*
X365365Y173244D01*
X365327Y173251D01*
X365238Y173274D01*
X365146Y173313D01*
X365100Y173332D01*
X365058Y173359D01*
X365012Y173390D01*
X364969Y173424D01*
X364966Y173428D01*
X364962Y173432D01*
X364950Y173443D01*
X364935Y173459D01*
X364919Y173482D01*
X364900Y173505D01*
X364877Y173532D01*
X364858Y173562D01*
X364812Y173639D01*
X364774Y173728D01*
X364739Y173827D01*
X364728Y173881D01*
X364720Y173939D01*
X365031Y173981D01*
Y173977D01*
X365035Y173969D01*
Y173954D01*
X365042Y173939D01*
X365054Y173893D01*
X365073Y173835D01*
X365096Y173774D01*
X365127Y173708D01*
X365165Y173651D01*
X365208Y173601D01*
X365215Y173597D01*
X365231Y173582D01*
X365258Y173566D01*
X365296Y173543D01*
X365338Y173524D01*
X365392Y173505D01*
X365453Y173489D01*
X365519Y173486D01*
X365542D01*
X365557Y173489D01*
X365595Y173493D01*
X365645Y173505D01*
X365707Y173524D01*
X365768Y173547D01*
X365830Y173585D01*
X365887Y173635D01*
X365895Y173643D01*
X365910Y173662D01*
X365933Y173693D01*
X365964Y173739D01*
X365991Y173793D01*
X366014Y173858D01*
X366029Y173931D01*
X366037Y174012D01*
Y174015D01*
Y174019D01*
Y174031D01*
X366033Y174046D01*
X366029Y174085D01*
X366018Y174135D01*
X366002Y174188D01*
X365976Y174250D01*
X365941Y174307D01*
X365895Y174361D01*
X365887Y174369D01*
X365872Y174384D01*
X365841Y174403D01*
X365799Y174430D01*
X365749Y174457D01*
X365688Y174476D01*
X365622Y174492D01*
X365546Y174499D01*
X365511D01*
X365484Y174495D01*
X365453Y174492D01*
X365415Y174488D01*
X365373Y174480D01*
X365327Y174469D01*
X365361Y174741D01*
X365380D01*
X365396Y174737D01*
X365446D01*
X365480Y174741D01*
X365530Y174749D01*
X365584Y174760D01*
X365641Y174780D01*
X365703Y174803D01*
X365764Y174837D01*
X365772Y174841D01*
X365791Y174856D01*
X365814Y174883D01*
X365845Y174918D01*
X365876Y174960D01*
X365899Y175014D01*
X365918Y175079D01*
X365926Y175156D01*
Y175160D01*
Y175164D01*
Y175183D01*
X365918Y175214D01*
X365910Y175256D01*
X365899Y175298D01*
X365876Y175344D01*
X365849Y175394D01*
X365810Y175436D01*
X365807Y175440D01*
X365791Y175455D01*
X365764Y175475D01*
X365730Y175494D01*
X365688Y175517D01*
X365638Y175532D01*
X365580Y175548D01*
X365515Y175551D01*
X365484D01*
X365450Y175544D01*
X365411Y175536D01*
X365361Y175525D01*
X365311Y175502D01*
X365261Y175475D01*
X365211Y175436D01*
X365208Y175433D01*
X365192Y175417D01*
X365173Y175390D01*
X365150Y175352D01*
X365123Y175306D01*
X365100Y175248D01*
X365077Y175179D01*
X365062Y175098D01*
X364751Y175152D01*
Y175156D01*
X364754Y175168D01*
X364758Y175183D01*
X364762Y175202D01*
X364770Y175229D01*
X364777Y175260D01*
X364804Y175329D01*
X364835Y175406D01*
X364881Y175486D01*
X364935Y175563D01*
X365004Y175632D01*
X365008Y175636D01*
X365012Y175640D01*
X365023Y175647D01*
X365042Y175659D01*
X365062Y175671D01*
X365085Y175686D01*
X365142Y175721D01*
X365215Y175751D01*
X365303Y175778D01*
X365400Y175797D01*
X365453Y175805D01*
X365542D01*
X365580Y175801D01*
D02*
G37*
G36*
X360524Y186453D02*
X359352D01*
X359322Y186457D01*
X359291D01*
X359214Y186461D01*
X359134Y186469D01*
X359049Y186484D01*
X358968Y186500D01*
X358930Y186511D01*
X358895Y186523D01*
X358892D01*
X358888Y186527D01*
X358865Y186534D01*
X358834Y186553D01*
X358796Y186580D01*
X358750Y186611D01*
X358703Y186653D01*
X358657Y186703D01*
X358615Y186765D01*
X358611Y186772D01*
X358600Y186795D01*
X358581Y186830D01*
X358561Y186876D01*
X358542Y186934D01*
X358523Y186999D01*
X358511Y187068D01*
X358508Y187145D01*
Y187149D01*
Y187156D01*
Y187172D01*
X358511Y187191D01*
Y187214D01*
X358515Y187241D01*
X358531Y187302D01*
X358550Y187375D01*
X358581Y187448D01*
X358627Y187525D01*
X358654Y187563D01*
X358684Y187598D01*
X358692Y187606D01*
X358703Y187613D01*
X358715Y187629D01*
X358734Y187640D01*
X358757Y187659D01*
X358784Y187675D01*
X358815Y187694D01*
X358849Y187713D01*
X358892Y187732D01*
X358934Y187751D01*
X358984Y187771D01*
X359034Y187790D01*
X359091Y187805D01*
X359153Y187817D01*
X359218Y187828D01*
X359210Y187832D01*
X359195Y187840D01*
X359172Y187851D01*
X359145Y187867D01*
X359080Y187909D01*
X359045Y187932D01*
X359018Y187955D01*
X359011Y187963D01*
X358992Y187978D01*
X358965Y188009D01*
X358930Y188047D01*
X358888Y188097D01*
X358842Y188155D01*
X358792Y188220D01*
X358742Y188293D01*
X358304Y188976D01*
X358723D01*
X359057Y188454D01*
Y188450D01*
X359065Y188443D01*
X359072Y188431D01*
X359080Y188416D01*
X359107Y188377D01*
X359141Y188327D01*
X359180Y188270D01*
X359222Y188212D01*
X359260Y188159D01*
X359299Y188109D01*
X359303Y188105D01*
X359314Y188089D01*
X359333Y188066D01*
X359352Y188040D01*
X359410Y187986D01*
X359437Y187959D01*
X359468Y187940D01*
X359472Y187936D01*
X359479Y187932D01*
X359494Y187924D01*
X359514Y187913D01*
X359560Y187890D01*
X359617Y187871D01*
X359621D01*
X359629Y187867D01*
X359644D01*
X359664Y187863D01*
X359690Y187859D01*
X359721D01*
X359759Y187855D01*
X360190D01*
Y188976D01*
X360524D01*
Y186453D01*
D02*
G37*
G36*
X357740Y188973D02*
Y188961D01*
Y188946D01*
X357736Y188923D01*
Y188896D01*
X357732Y188861D01*
X357728Y188819D01*
X357724Y188777D01*
X357717Y188727D01*
X357709Y188669D01*
X357701Y188612D01*
X357690Y188550D01*
X357678Y188481D01*
X357663Y188412D01*
X357625Y188258D01*
Y188254D01*
X357621Y188239D01*
X357613Y188216D01*
X357605Y188185D01*
X357594Y188147D01*
X357578Y188105D01*
X357563Y188055D01*
X357544Y187997D01*
X357521Y187940D01*
X357498Y187874D01*
X357444Y187736D01*
X357379Y187590D01*
X357306Y187444D01*
X357302Y187440D01*
X357294Y187425D01*
X357283Y187406D01*
X357267Y187379D01*
X357248Y187344D01*
X357225Y187306D01*
X357198Y187264D01*
X357171Y187214D01*
X357102Y187110D01*
X357025Y186999D01*
X356945Y186887D01*
X356856Y186780D01*
X358093D01*
Y186484D01*
X356461D01*
Y186726D01*
X356465Y186730D01*
X356472Y186738D01*
X356484Y186753D01*
X356503Y186772D01*
X356522Y186799D01*
X356549Y186830D01*
X356580Y186868D01*
X356611Y186907D01*
X356645Y186953D01*
X356684Y187006D01*
X356726Y187060D01*
X356764Y187122D01*
X356807Y187187D01*
X356853Y187256D01*
X356895Y187333D01*
X356941Y187410D01*
X356945Y187414D01*
X356953Y187429D01*
X356964Y187452D01*
X356979Y187483D01*
X356998Y187521D01*
X357022Y187567D01*
X357049Y187621D01*
X357075Y187679D01*
X357102Y187740D01*
X357133Y187809D01*
X357164Y187882D01*
X357194Y187959D01*
X357252Y188116D01*
X357306Y188285D01*
Y188289D01*
X357310Y188301D01*
X357313Y188316D01*
X357321Y188339D01*
X357329Y188370D01*
X357336Y188404D01*
X357344Y188446D01*
X357356Y188489D01*
X357363Y188539D01*
X357375Y188592D01*
X357394Y188708D01*
X357409Y188838D01*
X357421Y188976D01*
X357740D01*
Y188973D01*
D02*
G37*
G36*
X273513Y173225D02*
X273540Y173221D01*
X273574Y173217D01*
X273613Y173213D01*
X273655Y173205D01*
X273743Y173182D01*
X273835Y173148D01*
X273882Y173125D01*
X273928Y173098D01*
X273974Y173071D01*
X274016Y173036D01*
X274020Y173033D01*
X274024Y173029D01*
X274035Y173017D01*
X274051Y173002D01*
X274066Y172983D01*
X274085Y172960D01*
X274104Y172933D01*
X274127Y172902D01*
X274170Y172829D01*
X274212Y172741D01*
X274243Y172641D01*
X274254Y172583D01*
X274262Y172526D01*
X273935Y172503D01*
Y172506D01*
Y172514D01*
X273932Y172526D01*
X273928Y172541D01*
X273916Y172583D01*
X273901Y172637D01*
X273882Y172695D01*
X273851Y172752D01*
X273816Y172810D01*
X273770Y172860D01*
X273763Y172864D01*
X273747Y172879D01*
X273720Y172894D01*
X273682Y172917D01*
X273636Y172937D01*
X273582Y172956D01*
X273521Y172971D01*
X273455Y172975D01*
X273432D01*
X273417Y172971D01*
X273375Y172967D01*
X273321Y172956D01*
X273263Y172933D01*
X273198Y172906D01*
X273137Y172864D01*
X273106Y172841D01*
X273075Y172810D01*
Y172806D01*
X273067Y172802D01*
X273052Y172779D01*
X273025Y172741D01*
X272998Y172691D01*
X272972Y172626D01*
X272945Y172549D01*
X272929Y172460D01*
X272922Y172361D01*
Y172357D01*
Y172349D01*
Y172334D01*
X272925Y172318D01*
Y172295D01*
X272929Y172268D01*
X272941Y172207D01*
X272956Y172142D01*
X272983Y172073D01*
X273021Y172003D01*
X273071Y171942D01*
X273079Y171934D01*
X273098Y171919D01*
X273129Y171892D01*
X273175Y171865D01*
X273229Y171838D01*
X273298Y171811D01*
X273375Y171796D01*
X273459Y171788D01*
X273486D01*
X273513Y171792D01*
X273551Y171796D01*
X273594Y171808D01*
X273640Y171819D01*
X273686Y171838D01*
X273732Y171861D01*
X273736Y171865D01*
X273751Y171873D01*
X273774Y171888D01*
X273801Y171907D01*
X273828Y171934D01*
X273859Y171965D01*
X273889Y172000D01*
X273916Y172038D01*
X274208Y171996D01*
X273962Y170702D01*
X272710D01*
Y170997D01*
X273716D01*
X273855Y171677D01*
X273851Y171673D01*
X273843Y171669D01*
X273832Y171662D01*
X273816Y171650D01*
X273793Y171639D01*
X273770Y171627D01*
X273709Y171596D01*
X273640Y171566D01*
X273559Y171543D01*
X273471Y171523D01*
X273379Y171516D01*
X273348D01*
X273325Y171520D01*
X273294Y171523D01*
X273263Y171527D01*
X273225Y171535D01*
X273187Y171543D01*
X273098Y171573D01*
X273052Y171589D01*
X273006Y171612D01*
X272956Y171639D01*
X272910Y171669D01*
X272864Y171704D01*
X272822Y171746D01*
X272818Y171750D01*
X272810Y171758D01*
X272799Y171769D01*
X272787Y171788D01*
X272768Y171811D01*
X272749Y171838D01*
X272730Y171869D01*
X272707Y171904D01*
X272684Y171946D01*
X272664Y171988D01*
X272645Y172038D01*
X272626Y172088D01*
X272614Y172145D01*
X272603Y172203D01*
X272595Y172268D01*
X272591Y172334D01*
Y172337D01*
Y172349D01*
Y172368D01*
X272595Y172391D01*
X272599Y172422D01*
X272603Y172457D01*
X272607Y172495D01*
X272614Y172537D01*
X272641Y172629D01*
X272676Y172725D01*
X272699Y172779D01*
X272726Y172829D01*
X272757Y172879D01*
X272791Y172925D01*
X272795Y172929D01*
X272803Y172937D01*
X272818Y172952D01*
X272837Y172971D01*
X272860Y172994D01*
X272891Y173021D01*
X272925Y173048D01*
X272968Y173075D01*
X273010Y173106D01*
X273060Y173132D01*
X273117Y173159D01*
X273175Y173182D01*
X273240Y173202D01*
X273306Y173217D01*
X273379Y173225D01*
X273455Y173228D01*
X273490D01*
X273513Y173225D01*
D02*
G37*
G36*
X276673Y170663D02*
X275502D01*
X275471Y170667D01*
X275441D01*
X275364Y170671D01*
X275283Y170679D01*
X275199Y170694D01*
X275118Y170709D01*
X275080Y170721D01*
X275045Y170732D01*
X275041D01*
X275037Y170736D01*
X275014Y170744D01*
X274984Y170763D01*
X274945Y170790D01*
X274899Y170821D01*
X274853Y170863D01*
X274807Y170913D01*
X274765Y170974D01*
X274761Y170982D01*
X274749Y171005D01*
X274730Y171040D01*
X274711Y171086D01*
X274692Y171143D01*
X274673Y171209D01*
X274661Y171278D01*
X274657Y171354D01*
Y171358D01*
Y171366D01*
Y171381D01*
X274661Y171401D01*
Y171424D01*
X274665Y171450D01*
X274680Y171512D01*
X274699Y171585D01*
X274730Y171658D01*
X274776Y171735D01*
X274803Y171773D01*
X274834Y171808D01*
X274842Y171815D01*
X274853Y171823D01*
X274865Y171838D01*
X274884Y171850D01*
X274907Y171869D01*
X274934Y171884D01*
X274964Y171904D01*
X274999Y171923D01*
X275041Y171942D01*
X275083Y171961D01*
X275133Y171980D01*
X275183Y172000D01*
X275241Y172015D01*
X275302Y172027D01*
X275368Y172038D01*
X275360Y172042D01*
X275345Y172049D01*
X275322Y172061D01*
X275295Y172076D01*
X275229Y172119D01*
X275195Y172142D01*
X275168Y172165D01*
X275160Y172172D01*
X275141Y172188D01*
X275114Y172219D01*
X275080Y172257D01*
X275037Y172307D01*
X274991Y172364D01*
X274941Y172430D01*
X274891Y172503D01*
X274454Y173186D01*
X274872D01*
X275206Y172664D01*
Y172660D01*
X275214Y172652D01*
X275222Y172641D01*
X275229Y172626D01*
X275256Y172587D01*
X275291Y172537D01*
X275329Y172480D01*
X275372Y172422D01*
X275410Y172368D01*
X275448Y172318D01*
X275452Y172315D01*
X275464Y172299D01*
X275483Y172276D01*
X275502Y172249D01*
X275560Y172195D01*
X275587Y172169D01*
X275617Y172149D01*
X275621Y172145D01*
X275629Y172142D01*
X275644Y172134D01*
X275663Y172123D01*
X275709Y172099D01*
X275767Y172080D01*
X275771D01*
X275779Y172076D01*
X275794D01*
X275813Y172073D01*
X275840Y172069D01*
X275871D01*
X275909Y172065D01*
X276339D01*
Y173186D01*
X276673D01*
Y170663D01*
D02*
G37*
G36*
X277272Y186411D02*
X276100D01*
X276070Y186415D01*
X276039D01*
X275962Y186419D01*
X275882Y186427D01*
X275797Y186442D01*
X275716Y186457D01*
X275678Y186469D01*
X275643Y186480D01*
X275640D01*
X275636Y186484D01*
X275613Y186492D01*
X275582Y186511D01*
X275544Y186538D01*
X275498Y186569D01*
X275451Y186611D01*
X275405Y186661D01*
X275363Y186722D01*
X275359Y186730D01*
X275348Y186753D01*
X275329Y186788D01*
X275309Y186834D01*
X275290Y186891D01*
X275271Y186957D01*
X275259Y187026D01*
X275256Y187102D01*
Y187106D01*
Y187114D01*
Y187129D01*
X275259Y187149D01*
Y187172D01*
X275263Y187198D01*
X275279Y187260D01*
X275298Y187333D01*
X275329Y187406D01*
X275375Y187483D01*
X275402Y187521D01*
X275432Y187556D01*
X275440Y187563D01*
X275451Y187571D01*
X275463Y187586D01*
X275482Y187598D01*
X275505Y187617D01*
X275532Y187632D01*
X275563Y187652D01*
X275597Y187671D01*
X275640Y187690D01*
X275682Y187709D01*
X275732Y187728D01*
X275782Y187748D01*
X275839Y187763D01*
X275901Y187775D01*
X275966Y187786D01*
X275958Y187790D01*
X275943Y187797D01*
X275920Y187809D01*
X275893Y187824D01*
X275828Y187867D01*
X275793Y187890D01*
X275766Y187913D01*
X275759Y187920D01*
X275740Y187936D01*
X275713Y187967D01*
X275678Y188005D01*
X275636Y188055D01*
X275590Y188112D01*
X275540Y188178D01*
X275490Y188251D01*
X275052Y188934D01*
X275471D01*
X275805Y188412D01*
Y188408D01*
X275813Y188400D01*
X275820Y188389D01*
X275828Y188373D01*
X275855Y188335D01*
X275889Y188285D01*
X275928Y188228D01*
X275970Y188170D01*
X276008Y188116D01*
X276047Y188066D01*
X276051Y188063D01*
X276062Y188047D01*
X276081Y188024D01*
X276100Y187997D01*
X276158Y187943D01*
X276185Y187917D01*
X276216Y187897D01*
X276220Y187893D01*
X276227Y187890D01*
X276243Y187882D01*
X276262Y187871D01*
X276308Y187847D01*
X276365Y187828D01*
X276369D01*
X276377Y187824D01*
X276392D01*
X276412Y187821D01*
X276438Y187817D01*
X276469D01*
X276507Y187813D01*
X276938D01*
Y188934D01*
X277272D01*
Y186411D01*
D02*
G37*
G36*
X274038Y188973D02*
X274065D01*
X274096Y188969D01*
X274134Y188961D01*
X274177Y188953D01*
X274223Y188942D01*
X274273Y188926D01*
X274326Y188907D01*
X274376Y188884D01*
X274430Y188857D01*
X274484Y188823D01*
X274538Y188784D01*
X274587Y188742D01*
X274634Y188692D01*
X274637Y188688D01*
X274645Y188677D01*
X274657Y188662D01*
X274672Y188638D01*
X274691Y188608D01*
X274710Y188569D01*
X274733Y188523D01*
X274753Y188470D01*
X274776Y188408D01*
X274799Y188339D01*
X274818Y188262D01*
X274837Y188178D01*
X274852Y188085D01*
X274864Y187982D01*
X274872Y187874D01*
X274875Y187755D01*
Y187751D01*
Y187748D01*
Y187736D01*
Y187725D01*
Y187686D01*
X274872Y187636D01*
X274868Y187575D01*
X274860Y187506D01*
X274852Y187429D01*
X274841Y187348D01*
X274829Y187260D01*
X274810Y187172D01*
X274787Y187083D01*
X274760Y186999D01*
X274730Y186910D01*
X274695Y186834D01*
X274653Y186757D01*
X274607Y186692D01*
X274603Y186688D01*
X274595Y186680D01*
X274584Y186665D01*
X274565Y186645D01*
X274538Y186623D01*
X274511Y186600D01*
X274476Y186573D01*
X274438Y186546D01*
X274395Y186519D01*
X274346Y186492D01*
X274296Y186469D01*
X274238Y186446D01*
X274177Y186427D01*
X274111Y186411D01*
X274042Y186404D01*
X273969Y186400D01*
X273942D01*
X273919Y186404D01*
X273896D01*
X273866Y186407D01*
X273797Y186419D01*
X273720Y186442D01*
X273639Y186473D01*
X273558Y186511D01*
X273520Y186538D01*
X273482Y186569D01*
X273478D01*
X273474Y186576D01*
X273451Y186600D01*
X273420Y186638D01*
X273382Y186688D01*
X273340Y186753D01*
X273305Y186830D01*
X273270Y186922D01*
X273251Y187026D01*
X273558Y187049D01*
Y187045D01*
Y187041D01*
X273566Y187018D01*
X273578Y186987D01*
X273589Y186949D01*
X273627Y186861D01*
X273651Y186822D01*
X273677Y186788D01*
X273681Y186780D01*
X273700Y186765D01*
X273727Y186745D01*
X273762Y186718D01*
X273808Y186696D01*
X273862Y186672D01*
X273923Y186657D01*
X273989Y186653D01*
X274015D01*
X274042Y186657D01*
X274077Y186665D01*
X274119Y186672D01*
X274165Y186688D01*
X274207Y186711D01*
X274253Y186738D01*
X274261Y186741D01*
X274276Y186757D01*
X274303Y186784D01*
X274334Y186818D01*
X274373Y186861D01*
X274411Y186914D01*
X274449Y186980D01*
X274484Y187053D01*
Y187056D01*
X274488Y187060D01*
X274492Y187076D01*
X274495Y187091D01*
X274503Y187110D01*
X274511Y187137D01*
X274518Y187168D01*
X274526Y187202D01*
X274534Y187241D01*
X274541Y187283D01*
X274549Y187333D01*
X274557Y187383D01*
X274561Y187440D01*
X274565Y187502D01*
X274568Y187567D01*
Y187632D01*
X274565Y187629D01*
X274549Y187609D01*
X274526Y187579D01*
X274492Y187540D01*
X274453Y187498D01*
X274407Y187456D01*
X274353Y187417D01*
X274296Y187383D01*
X274288Y187379D01*
X274269Y187371D01*
X274234Y187356D01*
X274192Y187341D01*
X274142Y187325D01*
X274084Y187310D01*
X274023Y187302D01*
X273958Y187298D01*
X273927D01*
X273904Y187302D01*
X273877Y187306D01*
X273846Y187310D01*
X273773Y187325D01*
X273693Y187356D01*
X273647Y187371D01*
X273604Y187394D01*
X273558Y187421D01*
X273512Y187452D01*
X273470Y187487D01*
X273428Y187529D01*
X273424Y187533D01*
X273420Y187540D01*
X273409Y187552D01*
X273393Y187571D01*
X273378Y187594D01*
X273359Y187621D01*
X273340Y187652D01*
X273317Y187686D01*
X273297Y187728D01*
X273278Y187771D01*
X273259Y187821D01*
X273243Y187871D01*
X273228Y187928D01*
X273217Y187986D01*
X273213Y188051D01*
X273209Y188116D01*
Y188120D01*
Y188128D01*
Y188139D01*
Y188155D01*
X273213Y188178D01*
Y188201D01*
X273220Y188262D01*
X273236Y188327D01*
X273251Y188404D01*
X273278Y188481D01*
X273313Y188558D01*
Y188562D01*
X273317Y188566D01*
X273324Y188577D01*
X273332Y188592D01*
X273355Y188627D01*
X273386Y188673D01*
X273428Y188723D01*
X273478Y188773D01*
X273532Y188823D01*
X273597Y188869D01*
X273604Y188873D01*
X273627Y188884D01*
X273666Y188903D01*
X273712Y188923D01*
X273773Y188942D01*
X273843Y188961D01*
X273919Y188973D01*
X274000Y188976D01*
X274015D01*
X274038Y188973D01*
D02*
G37*
G36*
X258241Y175832D02*
X258272Y175828D01*
X258311Y175824D01*
X258353Y175820D01*
X258399Y175813D01*
X258499Y175790D01*
X258606Y175755D01*
X258660Y175732D01*
X258714Y175705D01*
X258764Y175674D01*
X258814Y175640D01*
X258817Y175636D01*
X258825Y175632D01*
X258837Y175621D01*
X258856Y175605D01*
X258875Y175586D01*
X258902Y175559D01*
X258929Y175532D01*
X258956Y175502D01*
X258986Y175463D01*
X259013Y175425D01*
X259044Y175379D01*
X259075Y175329D01*
X259102Y175279D01*
X259128Y175221D01*
X259174Y175098D01*
X258844Y175022D01*
Y175025D01*
X258840Y175033D01*
X258837Y175048D01*
X258829Y175068D01*
X258817Y175091D01*
X258806Y175118D01*
X258779Y175175D01*
X258745Y175241D01*
X258698Y175310D01*
X258648Y175371D01*
X258587Y175425D01*
X258579Y175429D01*
X258556Y175444D01*
X258522Y175463D01*
X258472Y175490D01*
X258414Y175513D01*
X258341Y175532D01*
X258261Y175548D01*
X258168Y175551D01*
X258142D01*
X258122Y175548D01*
X258096D01*
X258069Y175544D01*
X257999Y175532D01*
X257923Y175517D01*
X257842Y175490D01*
X257761Y175455D01*
X257685Y175409D01*
X257681D01*
X257677Y175402D01*
X257654Y175382D01*
X257619Y175352D01*
X257577Y175310D01*
X257535Y175256D01*
X257489Y175194D01*
X257447Y175118D01*
X257412Y175033D01*
Y175029D01*
X257408Y175022D01*
X257404Y175010D01*
X257400Y174991D01*
X257393Y174972D01*
X257389Y174945D01*
X257374Y174883D01*
X257358Y174810D01*
X257347Y174730D01*
X257339Y174641D01*
X257335Y174549D01*
Y174545D01*
Y174534D01*
Y174519D01*
Y174495D01*
X257339Y174469D01*
Y174434D01*
X257343Y174399D01*
X257347Y174361D01*
X257358Y174273D01*
X257374Y174177D01*
X257397Y174081D01*
X257427Y173989D01*
Y173985D01*
X257431Y173977D01*
X257439Y173966D01*
X257447Y173950D01*
X257466Y173904D01*
X257497Y173854D01*
X257539Y173793D01*
X257589Y173735D01*
X257646Y173678D01*
X257715Y173628D01*
X257719D01*
X257723Y173624D01*
X257734Y173616D01*
X257750Y173609D01*
X257792Y173593D01*
X257846Y173570D01*
X257907Y173551D01*
X257980Y173532D01*
X258061Y173516D01*
X258145Y173512D01*
X258172D01*
X258191Y173516D01*
X258214D01*
X258245Y173520D01*
X258311Y173532D01*
X258383Y173551D01*
X258464Y173582D01*
X258541Y173620D01*
X258618Y173674D01*
X258622Y173678D01*
X258625Y173681D01*
X258648Y173705D01*
X258683Y173743D01*
X258725Y173793D01*
X258768Y173862D01*
X258814Y173942D01*
X258852Y174042D01*
X258883Y174154D01*
X259217Y174069D01*
Y174065D01*
X259213Y174050D01*
X259205Y174031D01*
X259198Y174000D01*
X259182Y173969D01*
X259167Y173927D01*
X259152Y173885D01*
X259128Y173839D01*
X259079Y173735D01*
X259009Y173632D01*
X258933Y173532D01*
X258887Y173486D01*
X258837Y173443D01*
X258833Y173440D01*
X258825Y173436D01*
X258810Y173424D01*
X258787Y173409D01*
X258760Y173393D01*
X258729Y173374D01*
X258695Y173355D01*
X258652Y173336D01*
X258606Y173317D01*
X258556Y173297D01*
X258499Y173278D01*
X258441Y173263D01*
X258314Y173236D01*
X258245Y173232D01*
X258172Y173228D01*
X258134D01*
X258103Y173232D01*
X258069D01*
X258030Y173236D01*
X257984Y173244D01*
X257938Y173248D01*
X257831Y173270D01*
X257719Y173297D01*
X257612Y173340D01*
X257558Y173363D01*
X257508Y173393D01*
X257504Y173397D01*
X257497Y173401D01*
X257485Y173413D01*
X257466Y173424D01*
X257420Y173462D01*
X257366Y173516D01*
X257301Y173582D01*
X257239Y173666D01*
X257174Y173762D01*
X257120Y173873D01*
Y173877D01*
X257116Y173889D01*
X257109Y173904D01*
X257101Y173927D01*
X257089Y173958D01*
X257078Y173993D01*
X257066Y174031D01*
X257055Y174077D01*
X257043Y174123D01*
X257032Y174177D01*
X257009Y174292D01*
X256993Y174415D01*
X256990Y174549D01*
Y174553D01*
Y174568D01*
Y174588D01*
X256993Y174615D01*
Y174649D01*
X256997Y174691D01*
X257001Y174734D01*
X257009Y174784D01*
X257028Y174891D01*
X257051Y175006D01*
X257089Y175125D01*
X257139Y175237D01*
Y175241D01*
X257147Y175248D01*
X257155Y175264D01*
X257166Y175286D01*
X257182Y175310D01*
X257201Y175337D01*
X257251Y175402D01*
X257308Y175475D01*
X257381Y175548D01*
X257470Y175621D01*
X257566Y175682D01*
X257569D01*
X257577Y175690D01*
X257593Y175697D01*
X257615Y175705D01*
X257639Y175717D01*
X257669Y175732D01*
X257708Y175743D01*
X257746Y175759D01*
X257788Y175774D01*
X257834Y175786D01*
X257938Y175813D01*
X258053Y175828D01*
X258176Y175836D01*
X258214D01*
X258241Y175832D01*
D02*
G37*
G36*
X260396Y175801D02*
X260426Y175797D01*
X260461Y175793D01*
X260499Y175790D01*
X260542Y175778D01*
X260634Y175755D01*
X260730Y175721D01*
X260780Y175697D01*
X260826Y175671D01*
X260868Y175636D01*
X260910Y175601D01*
X260914Y175598D01*
X260918Y175594D01*
X260929Y175582D01*
X260945Y175567D01*
X260960Y175544D01*
X260979Y175521D01*
X261018Y175463D01*
X261056Y175390D01*
X261091Y175306D01*
X261118Y175210D01*
X261121Y175156D01*
X261125Y175102D01*
Y175094D01*
Y175075D01*
X261121Y175045D01*
X261118Y175006D01*
X261110Y174960D01*
X261098Y174910D01*
X261083Y174856D01*
X261060Y174803D01*
X261056Y174795D01*
X261049Y174776D01*
X261033Y174749D01*
X261010Y174711D01*
X260983Y174664D01*
X260949Y174611D01*
X260903Y174557D01*
X260853Y174495D01*
X260845Y174488D01*
X260826Y174465D01*
X260791Y174430D01*
X260768Y174407D01*
X260741Y174380D01*
X260711Y174350D01*
X260672Y174315D01*
X260634Y174281D01*
X260592Y174238D01*
X260545Y174196D01*
X260492Y174150D01*
X260438Y174104D01*
X260377Y174050D01*
X260373Y174046D01*
X260365Y174039D01*
X260350Y174027D01*
X260330Y174012D01*
X260284Y173973D01*
X260227Y173923D01*
X260169Y173870D01*
X260108Y173816D01*
X260058Y173770D01*
X260038Y173750D01*
X260019Y173731D01*
X260016Y173728D01*
X260008Y173716D01*
X259993Y173701D01*
X259973Y173678D01*
X259931Y173628D01*
X259889Y173566D01*
X261129D01*
Y173270D01*
X259459D01*
Y173274D01*
Y173290D01*
Y173313D01*
X259462Y173340D01*
X259466Y173370D01*
X259470Y173405D01*
X259482Y173443D01*
X259493Y173482D01*
Y173486D01*
X259497Y173489D01*
X259505Y173512D01*
X259520Y173543D01*
X259543Y173589D01*
X259570Y173639D01*
X259608Y173697D01*
X259647Y173754D01*
X259697Y173816D01*
Y173820D01*
X259704Y173823D01*
X259724Y173846D01*
X259754Y173881D01*
X259801Y173927D01*
X259858Y173981D01*
X259927Y174046D01*
X260012Y174119D01*
X260104Y174200D01*
X260108Y174204D01*
X260123Y174215D01*
X260142Y174231D01*
X260169Y174257D01*
X260204Y174284D01*
X260242Y174319D01*
X260327Y174392D01*
X260419Y174480D01*
X260511Y174568D01*
X260557Y174611D01*
X260595Y174653D01*
X260630Y174695D01*
X260661Y174734D01*
Y174737D01*
X260668Y174741D01*
X260676Y174753D01*
X260684Y174768D01*
X260707Y174806D01*
X260734Y174856D01*
X260760Y174914D01*
X260784Y174976D01*
X260799Y175045D01*
X260806Y175110D01*
Y175114D01*
Y175118D01*
X260803Y175141D01*
X260799Y175175D01*
X260791Y175217D01*
X260772Y175267D01*
X260749Y175317D01*
X260718Y175371D01*
X260672Y175421D01*
X260664Y175425D01*
X260649Y175440D01*
X260618Y175459D01*
X260580Y175486D01*
X260530Y175509D01*
X260472Y175529D01*
X260403Y175544D01*
X260327Y175548D01*
X260303D01*
X260288Y175544D01*
X260250Y175540D01*
X260200Y175532D01*
X260142Y175513D01*
X260081Y175490D01*
X260023Y175455D01*
X259969Y175409D01*
X259966Y175402D01*
X259950Y175386D01*
X259927Y175356D01*
X259904Y175313D01*
X259877Y175260D01*
X259858Y175198D01*
X259843Y175125D01*
X259835Y175041D01*
X259516Y175075D01*
Y175079D01*
Y175091D01*
X259520Y175110D01*
X259524Y175133D01*
X259532Y175164D01*
X259536Y175198D01*
X259559Y175275D01*
X259589Y175363D01*
X259631Y175452D01*
X259689Y175540D01*
X259720Y175578D01*
X259758Y175617D01*
X259762Y175621D01*
X259770Y175625D01*
X259781Y175636D01*
X259797Y175647D01*
X259820Y175659D01*
X259846Y175678D01*
X259877Y175694D01*
X259912Y175713D01*
X259950Y175728D01*
X259993Y175747D01*
X260042Y175763D01*
X260092Y175774D01*
X260208Y175797D01*
X260269Y175801D01*
X260334Y175805D01*
X260369D01*
X260396Y175801D01*
D02*
G37*
G36*
X255906Y186453D02*
X254734D01*
X254704Y186457D01*
X254673D01*
X254596Y186461D01*
X254516Y186469D01*
X254431Y186484D01*
X254350Y186500D01*
X254312Y186511D01*
X254277Y186523D01*
X254274D01*
X254270Y186527D01*
X254247Y186534D01*
X254216Y186553D01*
X254178Y186580D01*
X254132Y186611D01*
X254085Y186653D01*
X254039Y186703D01*
X253997Y186765D01*
X253993Y186772D01*
X253982Y186795D01*
X253962Y186830D01*
X253943Y186876D01*
X253924Y186934D01*
X253905Y186999D01*
X253893Y187068D01*
X253890Y187145D01*
Y187149D01*
Y187156D01*
Y187172D01*
X253893Y187191D01*
Y187214D01*
X253897Y187241D01*
X253913Y187302D01*
X253932Y187375D01*
X253962Y187448D01*
X254009Y187525D01*
X254035Y187563D01*
X254066Y187598D01*
X254074Y187606D01*
X254085Y187613D01*
X254097Y187629D01*
X254116Y187640D01*
X254139Y187659D01*
X254166Y187675D01*
X254197Y187694D01*
X254231Y187713D01*
X254274Y187732D01*
X254316Y187751D01*
X254366Y187771D01*
X254416Y187790D01*
X254473Y187805D01*
X254535Y187817D01*
X254600Y187828D01*
X254592Y187832D01*
X254577Y187840D01*
X254554Y187851D01*
X254527Y187867D01*
X254462Y187909D01*
X254427Y187932D01*
X254400Y187955D01*
X254393Y187963D01*
X254373Y187978D01*
X254346Y188009D01*
X254312Y188047D01*
X254270Y188097D01*
X254224Y188155D01*
X254174Y188220D01*
X254124Y188293D01*
X253686Y188976D01*
X254105D01*
X254439Y188454D01*
Y188450D01*
X254446Y188443D01*
X254454Y188431D01*
X254462Y188416D01*
X254489Y188377D01*
X254523Y188327D01*
X254562Y188270D01*
X254604Y188212D01*
X254642Y188159D01*
X254681Y188109D01*
X254684Y188105D01*
X254696Y188089D01*
X254715Y188066D01*
X254734Y188040D01*
X254792Y187986D01*
X254819Y187959D01*
X254850Y187940D01*
X254853Y187936D01*
X254861Y187932D01*
X254876Y187924D01*
X254896Y187913D01*
X254942Y187890D01*
X254999Y187871D01*
X255003D01*
X255011Y187867D01*
X255026D01*
X255045Y187863D01*
X255072Y187859D01*
X255103D01*
X255141Y187855D01*
X255572D01*
Y188976D01*
X255906D01*
Y186453D01*
D02*
G37*
G36*
X252503Y188373D02*
X253598D01*
Y188089D01*
X252446Y186457D01*
X252192D01*
Y188089D01*
X251851D01*
Y188373D01*
X252192D01*
Y188976D01*
X252503D01*
Y188373D01*
D02*
G37*
G36*
X188721Y170705D02*
X187549D01*
X187519Y170709D01*
X187488D01*
X187411Y170713D01*
X187330Y170721D01*
X187246Y170736D01*
X187165Y170752D01*
X187127Y170763D01*
X187092Y170775D01*
X187089D01*
X187085Y170779D01*
X187062Y170786D01*
X187031Y170805D01*
X186993Y170832D01*
X186946Y170863D01*
X186900Y170905D01*
X186854Y170955D01*
X186812Y171017D01*
X186808Y171024D01*
X186797Y171047D01*
X186777Y171082D01*
X186758Y171128D01*
X186739Y171186D01*
X186720Y171251D01*
X186708Y171320D01*
X186705Y171397D01*
Y171401D01*
Y171408D01*
Y171424D01*
X186708Y171443D01*
Y171466D01*
X186712Y171493D01*
X186727Y171554D01*
X186747Y171627D01*
X186777Y171700D01*
X186824Y171777D01*
X186850Y171815D01*
X186881Y171850D01*
X186889Y171858D01*
X186900Y171865D01*
X186912Y171881D01*
X186931Y171892D01*
X186954Y171911D01*
X186981Y171927D01*
X187012Y171946D01*
X187046Y171965D01*
X187089Y171984D01*
X187131Y172003D01*
X187181Y172023D01*
X187231Y172042D01*
X187288Y172057D01*
X187350Y172069D01*
X187415Y172080D01*
X187407Y172084D01*
X187392Y172092D01*
X187369Y172103D01*
X187342Y172119D01*
X187277Y172161D01*
X187242Y172184D01*
X187215Y172207D01*
X187207Y172215D01*
X187188Y172230D01*
X187162Y172261D01*
X187127Y172299D01*
X187085Y172349D01*
X187039Y172407D01*
X186989Y172472D01*
X186939Y172545D01*
X186501Y173228D01*
X186920D01*
X187254Y172706D01*
Y172702D01*
X187261Y172695D01*
X187269Y172683D01*
X187277Y172668D01*
X187303Y172629D01*
X187338Y172579D01*
X187376Y172522D01*
X187419Y172464D01*
X187457Y172411D01*
X187496Y172361D01*
X187499Y172357D01*
X187511Y172341D01*
X187530Y172318D01*
X187549Y172291D01*
X187607Y172238D01*
X187634Y172211D01*
X187664Y172192D01*
X187668Y172188D01*
X187676Y172184D01*
X187691Y172176D01*
X187711Y172165D01*
X187757Y172142D01*
X187814Y172123D01*
X187818D01*
X187826Y172119D01*
X187841D01*
X187860Y172115D01*
X187887Y172111D01*
X187918D01*
X187956Y172107D01*
X188386D01*
Y173228D01*
X188721D01*
Y170705D01*
D02*
G37*
G36*
X186351Y173225D02*
Y173209D01*
Y173186D01*
X186347Y173159D01*
X186344Y173129D01*
X186340Y173094D01*
X186328Y173056D01*
X186317Y173017D01*
Y173013D01*
X186313Y173010D01*
X186305Y172986D01*
X186290Y172956D01*
X186267Y172910D01*
X186240Y172860D01*
X186202Y172802D01*
X186163Y172745D01*
X186113Y172683D01*
Y172679D01*
X186106Y172675D01*
X186086Y172652D01*
X186056Y172618D01*
X186010Y172572D01*
X185952Y172518D01*
X185883Y172453D01*
X185798Y172380D01*
X185706Y172299D01*
X185702Y172295D01*
X185687Y172284D01*
X185668Y172268D01*
X185641Y172241D01*
X185606Y172215D01*
X185568Y172180D01*
X185483Y172107D01*
X185391Y172019D01*
X185299Y171931D01*
X185253Y171888D01*
X185215Y171846D01*
X185180Y171804D01*
X185149Y171765D01*
Y171762D01*
X185142Y171758D01*
X185134Y171746D01*
X185126Y171731D01*
X185103Y171692D01*
X185076Y171642D01*
X185049Y171585D01*
X185026Y171523D01*
X185011Y171454D01*
X185003Y171389D01*
Y171385D01*
Y171381D01*
X185007Y171358D01*
X185011Y171324D01*
X185019Y171282D01*
X185038Y171232D01*
X185061Y171182D01*
X185092Y171128D01*
X185138Y171078D01*
X185145Y171074D01*
X185161Y171059D01*
X185192Y171040D01*
X185230Y171013D01*
X185280Y170990D01*
X185337Y170970D01*
X185407Y170955D01*
X185483Y170951D01*
X185506D01*
X185522Y170955D01*
X185560Y170959D01*
X185610Y170967D01*
X185668Y170986D01*
X185729Y171009D01*
X185787Y171043D01*
X185840Y171089D01*
X185844Y171097D01*
X185860Y171113D01*
X185883Y171143D01*
X185906Y171186D01*
X185933Y171239D01*
X185952Y171301D01*
X185967Y171374D01*
X185975Y171458D01*
X186294Y171424D01*
Y171420D01*
Y171408D01*
X186290Y171389D01*
X186286Y171366D01*
X186278Y171335D01*
X186274Y171301D01*
X186251Y171224D01*
X186221Y171136D01*
X186178Y171047D01*
X186121Y170959D01*
X186090Y170921D01*
X186052Y170882D01*
X186048Y170878D01*
X186040Y170875D01*
X186029Y170863D01*
X186013Y170851D01*
X185990Y170840D01*
X185963Y170821D01*
X185933Y170805D01*
X185898Y170786D01*
X185860Y170771D01*
X185818Y170752D01*
X185768Y170736D01*
X185718Y170725D01*
X185602Y170702D01*
X185541Y170698D01*
X185476Y170694D01*
X185441D01*
X185414Y170698D01*
X185383Y170702D01*
X185349Y170705D01*
X185311Y170709D01*
X185268Y170721D01*
X185176Y170744D01*
X185080Y170779D01*
X185030Y170801D01*
X184984Y170828D01*
X184942Y170863D01*
X184900Y170897D01*
X184896Y170901D01*
X184892Y170905D01*
X184880Y170917D01*
X184865Y170932D01*
X184850Y170955D01*
X184831Y170978D01*
X184792Y171036D01*
X184754Y171109D01*
X184719Y171193D01*
X184692Y171289D01*
X184688Y171343D01*
X184685Y171397D01*
Y171404D01*
Y171424D01*
X184688Y171454D01*
X184692Y171493D01*
X184700Y171539D01*
X184712Y171589D01*
X184727Y171642D01*
X184750Y171696D01*
X184754Y171704D01*
X184762Y171723D01*
X184777Y171750D01*
X184800Y171788D01*
X184827Y171835D01*
X184861Y171888D01*
X184907Y171942D01*
X184957Y172003D01*
X184965Y172011D01*
X184984Y172034D01*
X185019Y172069D01*
X185042Y172092D01*
X185069Y172119D01*
X185099Y172149D01*
X185138Y172184D01*
X185176Y172219D01*
X185218Y172261D01*
X185265Y172303D01*
X185318Y172349D01*
X185372Y172395D01*
X185433Y172449D01*
X185437Y172453D01*
X185445Y172460D01*
X185460Y172472D01*
X185479Y172487D01*
X185526Y172526D01*
X185583Y172576D01*
X185641Y172629D01*
X185702Y172683D01*
X185752Y172729D01*
X185771Y172748D01*
X185791Y172768D01*
X185794Y172771D01*
X185802Y172783D01*
X185818Y172798D01*
X185837Y172821D01*
X185879Y172871D01*
X185921Y172933D01*
X184681D01*
Y173228D01*
X186351D01*
Y173225D01*
D02*
G37*
G36*
X186159Y188973D02*
X186189Y188969D01*
X186220Y188965D01*
X186258Y188961D01*
X186297Y188953D01*
X186385Y188930D01*
X186477Y188892D01*
X186523Y188873D01*
X186566Y188846D01*
X186612Y188815D01*
X186654Y188781D01*
X186658Y188777D01*
X186662Y188773D01*
X186673Y188761D01*
X186688Y188746D01*
X186704Y188723D01*
X186723Y188700D01*
X186746Y188673D01*
X186765Y188642D01*
X186811Y188566D01*
X186850Y188477D01*
X186884Y188377D01*
X186896Y188324D01*
X186904Y188266D01*
X186592Y188224D01*
Y188228D01*
X186589Y188235D01*
Y188251D01*
X186581Y188266D01*
X186569Y188312D01*
X186550Y188370D01*
X186527Y188431D01*
X186496Y188496D01*
X186458Y188554D01*
X186416Y188604D01*
X186408Y188608D01*
X186393Y188623D01*
X186366Y188638D01*
X186328Y188662D01*
X186285Y188681D01*
X186232Y188700D01*
X186170Y188715D01*
X186105Y188719D01*
X186082D01*
X186066Y188715D01*
X186028Y188711D01*
X185978Y188700D01*
X185917Y188681D01*
X185855Y188658D01*
X185794Y188619D01*
X185736Y188569D01*
X185729Y188562D01*
X185713Y188542D01*
X185690Y188512D01*
X185659Y188466D01*
X185633Y188412D01*
X185609Y188347D01*
X185594Y188274D01*
X185586Y188193D01*
Y188189D01*
Y188185D01*
Y188174D01*
X185590Y188159D01*
X185594Y188120D01*
X185606Y188070D01*
X185621Y188016D01*
X185648Y187955D01*
X185682Y187897D01*
X185729Y187844D01*
X185736Y187836D01*
X185751Y187821D01*
X185782Y187801D01*
X185825Y187775D01*
X185874Y187748D01*
X185936Y187728D01*
X186001Y187713D01*
X186078Y187705D01*
X186112D01*
X186139Y187709D01*
X186170Y187713D01*
X186208Y187717D01*
X186251Y187725D01*
X186297Y187736D01*
X186262Y187463D01*
X186243D01*
X186228Y187467D01*
X186178D01*
X186143Y187463D01*
X186093Y187456D01*
X186040Y187444D01*
X185982Y187425D01*
X185921Y187402D01*
X185859Y187367D01*
X185851Y187364D01*
X185832Y187348D01*
X185809Y187321D01*
X185778Y187287D01*
X185748Y187245D01*
X185725Y187191D01*
X185705Y187126D01*
X185698Y187049D01*
Y187045D01*
Y187041D01*
Y187022D01*
X185705Y186991D01*
X185713Y186949D01*
X185725Y186907D01*
X185748Y186861D01*
X185775Y186811D01*
X185813Y186768D01*
X185817Y186765D01*
X185832Y186749D01*
X185859Y186730D01*
X185894Y186711D01*
X185936Y186688D01*
X185986Y186672D01*
X186043Y186657D01*
X186109Y186653D01*
X186139D01*
X186174Y186661D01*
X186212Y186669D01*
X186262Y186680D01*
X186312Y186703D01*
X186362Y186730D01*
X186412Y186768D01*
X186416Y186772D01*
X186431Y186788D01*
X186450Y186814D01*
X186474Y186853D01*
X186500Y186899D01*
X186523Y186957D01*
X186546Y187026D01*
X186562Y187106D01*
X186873Y187053D01*
Y187049D01*
X186869Y187037D01*
X186865Y187022D01*
X186861Y187003D01*
X186854Y186976D01*
X186846Y186945D01*
X186819Y186876D01*
X186788Y186799D01*
X186742Y186718D01*
X186688Y186642D01*
X186619Y186573D01*
X186616Y186569D01*
X186612Y186565D01*
X186600Y186557D01*
X186581Y186546D01*
X186562Y186534D01*
X186539Y186519D01*
X186481Y186484D01*
X186408Y186453D01*
X186320Y186427D01*
X186224Y186407D01*
X186170Y186400D01*
X186082D01*
X186043Y186404D01*
X185994Y186411D01*
X185936Y186423D01*
X185871Y186438D01*
X185805Y186461D01*
X185740Y186492D01*
X185736D01*
X185732Y186496D01*
X185709Y186507D01*
X185679Y186527D01*
X185640Y186553D01*
X185598Y186588D01*
X185552Y186630D01*
X185510Y186680D01*
X185471Y186734D01*
X185467Y186741D01*
X185456Y186761D01*
X185441Y186792D01*
X185425Y186830D01*
X185410Y186880D01*
X185394Y186934D01*
X185383Y186991D01*
X185379Y187056D01*
Y187064D01*
Y187083D01*
X185383Y187114D01*
X185391Y187152D01*
X185402Y187198D01*
X185417Y187248D01*
X185437Y187302D01*
X185467Y187352D01*
X185471Y187360D01*
X185483Y187375D01*
X185506Y187398D01*
X185533Y187429D01*
X185571Y187463D01*
X185613Y187498D01*
X185667Y187536D01*
X185729Y187567D01*
X185725D01*
X185717Y187571D01*
X185705D01*
X185690Y187579D01*
X185652Y187590D01*
X185602Y187613D01*
X185548Y187640D01*
X185490Y187679D01*
X185433Y187725D01*
X185383Y187782D01*
X185379Y187790D01*
X185364Y187813D01*
X185345Y187847D01*
X185318Y187893D01*
X185295Y187951D01*
X185275Y188020D01*
X185260Y188101D01*
X185256Y188189D01*
Y188193D01*
Y188205D01*
Y188220D01*
X185260Y188243D01*
X185264Y188274D01*
X185268Y188304D01*
X185275Y188343D01*
X185287Y188381D01*
X185314Y188470D01*
X185333Y188520D01*
X185360Y188566D01*
X185387Y188612D01*
X185417Y188658D01*
X185456Y188704D01*
X185498Y188750D01*
X185502Y188754D01*
X185510Y188761D01*
X185521Y188769D01*
X185540Y188784D01*
X185563Y188804D01*
X185594Y188823D01*
X185629Y188842D01*
X185663Y188861D01*
X185705Y188884D01*
X185751Y188903D01*
X185801Y188923D01*
X185855Y188942D01*
X185913Y188957D01*
X185974Y188965D01*
X186040Y188973D01*
X186105Y188976D01*
X186135D01*
X186159Y188973D01*
D02*
G37*
G36*
X189319Y186411D02*
X188148D01*
X188117Y186415D01*
X188086D01*
X188010Y186419D01*
X187929Y186427D01*
X187844Y186442D01*
X187764Y186457D01*
X187725Y186469D01*
X187691Y186480D01*
X187687D01*
X187683Y186484D01*
X187660Y186492D01*
X187629Y186511D01*
X187591Y186538D01*
X187545Y186569D01*
X187499Y186611D01*
X187453Y186661D01*
X187410Y186722D01*
X187407Y186730D01*
X187395Y186753D01*
X187376Y186788D01*
X187357Y186834D01*
X187338Y186891D01*
X187318Y186957D01*
X187307Y187026D01*
X187303Y187102D01*
Y187106D01*
Y187114D01*
Y187129D01*
X187307Y187149D01*
Y187172D01*
X187311Y187198D01*
X187326Y187260D01*
X187345Y187333D01*
X187376Y187406D01*
X187422Y187483D01*
X187449Y187521D01*
X187479Y187556D01*
X187487Y187563D01*
X187499Y187571D01*
X187510Y187586D01*
X187530Y187598D01*
X187552Y187617D01*
X187579Y187632D01*
X187610Y187652D01*
X187645Y187671D01*
X187687Y187690D01*
X187729Y187709D01*
X187779Y187728D01*
X187829Y187748D01*
X187887Y187763D01*
X187948Y187775D01*
X188013Y187786D01*
X188006Y187790D01*
X187990Y187797D01*
X187967Y187809D01*
X187940Y187824D01*
X187875Y187867D01*
X187840Y187890D01*
X187814Y187913D01*
X187806Y187920D01*
X187787Y187936D01*
X187760Y187967D01*
X187725Y188005D01*
X187683Y188055D01*
X187637Y188112D01*
X187587Y188178D01*
X187537Y188251D01*
X187099Y188934D01*
X187518D01*
X187852Y188412D01*
Y188408D01*
X187860Y188400D01*
X187867Y188389D01*
X187875Y188373D01*
X187902Y188335D01*
X187936Y188285D01*
X187975Y188228D01*
X188017Y188170D01*
X188056Y188116D01*
X188094Y188066D01*
X188098Y188063D01*
X188109Y188047D01*
X188128Y188024D01*
X188148Y187997D01*
X188205Y187943D01*
X188232Y187917D01*
X188263Y187897D01*
X188267Y187893D01*
X188274Y187890D01*
X188290Y187882D01*
X188309Y187871D01*
X188355Y187847D01*
X188413Y187828D01*
X188417D01*
X188424Y187824D01*
X188440D01*
X188459Y187821D01*
X188486Y187817D01*
X188516D01*
X188555Y187813D01*
X188985D01*
Y188934D01*
X189319D01*
Y186411D01*
D02*
G37*
G36*
X170289Y175832D02*
X170319Y175828D01*
X170358Y175824D01*
X170400Y175820D01*
X170446Y175813D01*
X170546Y175790D01*
X170653Y175755D01*
X170707Y175732D01*
X170761Y175705D01*
X170811Y175674D01*
X170861Y175640D01*
X170865Y175636D01*
X170872Y175632D01*
X170884Y175621D01*
X170903Y175605D01*
X170922Y175586D01*
X170949Y175559D01*
X170976Y175532D01*
X171003Y175502D01*
X171034Y175463D01*
X171061Y175425D01*
X171091Y175379D01*
X171122Y175329D01*
X171149Y175279D01*
X171176Y175221D01*
X171222Y175098D01*
X170891Y175022D01*
Y175025D01*
X170888Y175033D01*
X170884Y175048D01*
X170876Y175068D01*
X170865Y175091D01*
X170853Y175118D01*
X170826Y175175D01*
X170792Y175241D01*
X170746Y175310D01*
X170696Y175371D01*
X170634Y175425D01*
X170627Y175429D01*
X170604Y175444D01*
X170569Y175463D01*
X170519Y175490D01*
X170461Y175513D01*
X170388Y175532D01*
X170308Y175548D01*
X170216Y175551D01*
X170189D01*
X170170Y175548D01*
X170143D01*
X170116Y175544D01*
X170047Y175532D01*
X169970Y175517D01*
X169889Y175490D01*
X169809Y175455D01*
X169732Y175409D01*
X169728D01*
X169724Y175402D01*
X169701Y175382D01*
X169667Y175352D01*
X169624Y175310D01*
X169582Y175256D01*
X169536Y175194D01*
X169494Y175118D01*
X169459Y175033D01*
Y175029D01*
X169455Y175022D01*
X169451Y175010D01*
X169448Y174991D01*
X169440Y174972D01*
X169436Y174945D01*
X169421Y174883D01*
X169405Y174810D01*
X169394Y174730D01*
X169386Y174641D01*
X169382Y174549D01*
Y174545D01*
Y174534D01*
Y174519D01*
Y174495D01*
X169386Y174469D01*
Y174434D01*
X169390Y174399D01*
X169394Y174361D01*
X169405Y174273D01*
X169421Y174177D01*
X169444Y174081D01*
X169475Y173989D01*
Y173985D01*
X169478Y173977D01*
X169486Y173966D01*
X169494Y173950D01*
X169513Y173904D01*
X169544Y173854D01*
X169586Y173793D01*
X169636Y173735D01*
X169694Y173678D01*
X169763Y173628D01*
X169766D01*
X169770Y173624D01*
X169782Y173616D01*
X169797Y173609D01*
X169839Y173593D01*
X169893Y173570D01*
X169955Y173551D01*
X170027Y173532D01*
X170108Y173516D01*
X170193Y173512D01*
X170220D01*
X170239Y173516D01*
X170262D01*
X170292Y173520D01*
X170358Y173532D01*
X170431Y173551D01*
X170511Y173582D01*
X170588Y173620D01*
X170665Y173674D01*
X170669Y173678D01*
X170673Y173681D01*
X170696Y173705D01*
X170730Y173743D01*
X170773Y173793D01*
X170815Y173862D01*
X170861Y173942D01*
X170899Y174042D01*
X170930Y174154D01*
X171264Y174069D01*
Y174065D01*
X171260Y174050D01*
X171253Y174031D01*
X171245Y174000D01*
X171230Y173969D01*
X171214Y173927D01*
X171199Y173885D01*
X171176Y173839D01*
X171126Y173735D01*
X171057Y173632D01*
X170980Y173532D01*
X170934Y173486D01*
X170884Y173443D01*
X170880Y173440D01*
X170872Y173436D01*
X170857Y173424D01*
X170834Y173409D01*
X170807Y173393D01*
X170776Y173374D01*
X170742Y173355D01*
X170700Y173336D01*
X170653Y173317D01*
X170604Y173297D01*
X170546Y173278D01*
X170488Y173263D01*
X170362Y173236D01*
X170292Y173232D01*
X170220Y173228D01*
X170181D01*
X170150Y173232D01*
X170116D01*
X170078Y173236D01*
X170031Y173244D01*
X169985Y173248D01*
X169878Y173270D01*
X169766Y173297D01*
X169659Y173340D01*
X169605Y173363D01*
X169555Y173393D01*
X169551Y173397D01*
X169544Y173401D01*
X169532Y173413D01*
X169513Y173424D01*
X169467Y173462D01*
X169413Y173516D01*
X169348Y173582D01*
X169286Y173666D01*
X169221Y173762D01*
X169167Y173873D01*
Y173877D01*
X169164Y173889D01*
X169156Y173904D01*
X169148Y173927D01*
X169137Y173958D01*
X169125Y173993D01*
X169114Y174031D01*
X169102Y174077D01*
X169091Y174123D01*
X169079Y174177D01*
X169056Y174292D01*
X169041Y174415D01*
X169037Y174549D01*
Y174553D01*
Y174568D01*
Y174588D01*
X169041Y174615D01*
Y174649D01*
X169044Y174691D01*
X169048Y174734D01*
X169056Y174784D01*
X169075Y174891D01*
X169098Y175006D01*
X169137Y175125D01*
X169187Y175237D01*
Y175241D01*
X169194Y175248D01*
X169202Y175264D01*
X169213Y175286D01*
X169229Y175310D01*
X169248Y175337D01*
X169298Y175402D01*
X169355Y175475D01*
X169429Y175548D01*
X169517Y175621D01*
X169613Y175682D01*
X169617D01*
X169624Y175690D01*
X169640Y175697D01*
X169663Y175705D01*
X169686Y175717D01*
X169717Y175732D01*
X169755Y175743D01*
X169793Y175759D01*
X169835Y175774D01*
X169882Y175786D01*
X169985Y175813D01*
X170100Y175828D01*
X170223Y175836D01*
X170262D01*
X170289Y175832D01*
D02*
G37*
G36*
X172715Y173270D02*
X172405D01*
Y175244D01*
X172401Y175241D01*
X172385Y175225D01*
X172358Y175206D01*
X172324Y175179D01*
X172282Y175145D01*
X172232Y175110D01*
X172174Y175068D01*
X172109Y175029D01*
X172105D01*
X172101Y175025D01*
X172078Y175010D01*
X172044Y174991D01*
X172001Y174968D01*
X171951Y174941D01*
X171898Y174918D01*
X171840Y174891D01*
X171786Y174868D01*
Y175171D01*
X171790D01*
X171798Y175175D01*
X171813Y175183D01*
X171828Y175194D01*
X171852Y175206D01*
X171878Y175217D01*
X171940Y175252D01*
X172009Y175294D01*
X172086Y175344D01*
X172163Y175402D01*
X172236Y175463D01*
X172239Y175467D01*
X172243Y175471D01*
X172266Y175494D01*
X172301Y175529D01*
X172343Y175571D01*
X172389Y175625D01*
X172435Y175682D01*
X172477Y175743D01*
X172512Y175805D01*
X172715D01*
Y173270D01*
D02*
G37*
G36*
X167953Y186453D02*
X166782D01*
X166751Y186457D01*
X166720D01*
X166643Y186461D01*
X166563Y186469D01*
X166478Y186484D01*
X166398Y186500D01*
X166359Y186511D01*
X166325Y186523D01*
X166321D01*
X166317Y186527D01*
X166294Y186534D01*
X166263Y186553D01*
X166225Y186580D01*
X166179Y186611D01*
X166133Y186653D01*
X166087Y186703D01*
X166044Y186765D01*
X166041Y186772D01*
X166029Y186795D01*
X166010Y186830D01*
X165991Y186876D01*
X165971Y186934D01*
X165952Y186999D01*
X165941Y187068D01*
X165937Y187145D01*
Y187149D01*
Y187156D01*
Y187172D01*
X165941Y187191D01*
Y187214D01*
X165945Y187241D01*
X165960Y187302D01*
X165979Y187375D01*
X166010Y187448D01*
X166056Y187525D01*
X166083Y187563D01*
X166113Y187598D01*
X166121Y187606D01*
X166133Y187613D01*
X166144Y187629D01*
X166163Y187640D01*
X166186Y187659D01*
X166213Y187675D01*
X166244Y187694D01*
X166279Y187713D01*
X166321Y187732D01*
X166363Y187751D01*
X166413Y187771D01*
X166463Y187790D01*
X166521Y187805D01*
X166582Y187817D01*
X166647Y187828D01*
X166639Y187832D01*
X166624Y187840D01*
X166601Y187851D01*
X166574Y187867D01*
X166509Y187909D01*
X166474Y187932D01*
X166447Y187955D01*
X166440Y187963D01*
X166421Y187978D01*
X166394Y188009D01*
X166359Y188047D01*
X166317Y188097D01*
X166271Y188155D01*
X166221Y188220D01*
X166171Y188293D01*
X165733Y188976D01*
X166152D01*
X166486Y188454D01*
Y188450D01*
X166494Y188443D01*
X166501Y188431D01*
X166509Y188416D01*
X166536Y188377D01*
X166570Y188327D01*
X166609Y188270D01*
X166651Y188212D01*
X166689Y188159D01*
X166728Y188109D01*
X166732Y188105D01*
X166743Y188089D01*
X166762Y188066D01*
X166782Y188040D01*
X166839Y187986D01*
X166866Y187959D01*
X166897Y187940D01*
X166901Y187936D01*
X166908Y187932D01*
X166924Y187924D01*
X166943Y187913D01*
X166989Y187890D01*
X167047Y187871D01*
X167050D01*
X167058Y187867D01*
X167073D01*
X167093Y187863D01*
X167120Y187859D01*
X167150D01*
X167189Y187855D01*
X167619D01*
Y188976D01*
X167953D01*
Y186453D01*
D02*
G37*
G36*
X164685Y187003D02*
X164689Y187006D01*
X164704Y187022D01*
X164731Y187041D01*
X164766Y187068D01*
X164808Y187102D01*
X164858Y187137D01*
X164915Y187179D01*
X164981Y187218D01*
X164985D01*
X164988Y187222D01*
X165011Y187237D01*
X165046Y187256D01*
X165088Y187279D01*
X165138Y187306D01*
X165192Y187329D01*
X165249Y187356D01*
X165303Y187379D01*
Y187076D01*
X165299D01*
X165292Y187072D01*
X165276Y187064D01*
X165261Y187053D01*
X165238Y187041D01*
X165211Y187030D01*
X165150Y186995D01*
X165080Y186953D01*
X165004Y186903D01*
X164927Y186845D01*
X164854Y186784D01*
X164850Y186780D01*
X164846Y186776D01*
X164823Y186753D01*
X164789Y186718D01*
X164746Y186676D01*
X164700Y186623D01*
X164654Y186565D01*
X164612Y186503D01*
X164577Y186442D01*
X164374D01*
Y188976D01*
X164685D01*
Y187003D01*
D02*
G37*
G36*
X456704Y309445D02*
X456700D01*
X456693D01*
X456677D01*
X456658Y309441D01*
X456635D01*
X456608Y309437D01*
X456547Y309425D01*
X456478Y309414D01*
X456412Y309395D01*
X456355Y309368D01*
X456328Y309352D01*
X456305Y309337D01*
X456301Y309333D01*
X456289Y309318D01*
X456270Y309299D01*
X456255Y309268D01*
X456236Y309230D01*
X456216Y309184D01*
X456205Y309130D01*
X456201Y309068D01*
Y309045D01*
X456205Y309022D01*
X456209Y308995D01*
X456216Y308961D01*
X456224Y308922D01*
X456240Y308888D01*
X456259Y308853D01*
X456263Y308849D01*
X456270Y308838D01*
X456282Y308822D01*
X456301Y308803D01*
X456320Y308780D01*
X456347Y308761D01*
X456378Y308742D01*
X456412Y308727D01*
X456416D01*
X456431Y308719D01*
X456455Y308715D01*
X456489Y308707D01*
X456535Y308700D01*
X456589Y308696D01*
X456654Y308688D01*
X456731D01*
X458471D01*
Y308354D01*
X456750D01*
X456746D01*
X456735D01*
X456719D01*
X456697D01*
X456670Y308358D01*
X456639D01*
X456570Y308362D01*
X456489Y308373D01*
X456409Y308385D01*
X456328Y308404D01*
X456259Y308431D01*
X456251Y308435D01*
X456232Y308446D01*
X456201Y308465D01*
X456163Y308488D01*
X456117Y308523D01*
X456074Y308565D01*
X456032Y308619D01*
X455994Y308677D01*
X455990Y308684D01*
X455978Y308707D01*
X455967Y308742D01*
X455951Y308788D01*
X455932Y308846D01*
X455921Y308911D01*
X455909Y308988D01*
X455905Y309068D01*
Y309099D01*
X455909Y309122D01*
X455913Y309149D01*
X455917Y309184D01*
X455929Y309257D01*
X455951Y309337D01*
X455986Y309422D01*
X456005Y309464D01*
X456032Y309502D01*
X456059Y309541D01*
X456094Y309575D01*
X456098D01*
X456101Y309583D01*
X456113Y309591D01*
X456128Y309602D01*
X456151Y309617D01*
X456174Y309629D01*
X456205Y309648D01*
X456236Y309664D01*
X456274Y309679D01*
X456316Y309694D01*
X456362Y309710D01*
X456416Y309721D01*
X456470Y309733D01*
X456531Y309740D01*
X456593Y309744D01*
X456662D01*
X456704Y309445D01*
D02*
G37*
G36*
X456631Y307609D02*
X456627D01*
X456620D01*
X456608Y307605D01*
X456593Y307601D01*
X456551Y307590D01*
X456497Y307575D01*
X456439Y307555D01*
X456382Y307525D01*
X456324Y307490D01*
X456274Y307444D01*
X456270Y307436D01*
X456255Y307421D01*
X456240Y307394D01*
X456216Y307356D01*
X456197Y307310D01*
X456178Y307256D01*
X456163Y307194D01*
X456159Y307129D01*
Y307106D01*
X456163Y307091D01*
X456167Y307049D01*
X456178Y306995D01*
X456201Y306937D01*
X456228Y306872D01*
X456270Y306810D01*
X456293Y306780D01*
X456324Y306749D01*
X456328D01*
X456332Y306741D01*
X456355Y306726D01*
X456393Y306699D01*
X456443Y306672D01*
X456508Y306645D01*
X456585Y306618D01*
X456673Y306603D01*
X456773Y306595D01*
X456777D01*
X456785D01*
X456800D01*
X456815Y306599D01*
X456839D01*
X456865Y306603D01*
X456927Y306614D01*
X456992Y306630D01*
X457061Y306657D01*
X457130Y306695D01*
X457192Y306745D01*
X457199Y306753D01*
X457215Y306772D01*
X457242Y306803D01*
X457269Y306849D01*
X457296Y306903D01*
X457322Y306972D01*
X457338Y307049D01*
X457345Y307133D01*
Y307160D01*
X457342Y307187D01*
X457338Y307225D01*
X457326Y307267D01*
X457315Y307313D01*
X457296Y307360D01*
X457272Y307406D01*
X457269Y307409D01*
X457261Y307425D01*
X457246Y307448D01*
X457226Y307475D01*
X457199Y307502D01*
X457169Y307532D01*
X457134Y307563D01*
X457096Y307590D01*
X457138Y307882D01*
X458432Y307636D01*
Y306384D01*
X458137D01*
Y307390D01*
X457457Y307528D01*
X457461Y307525D01*
X457465Y307517D01*
X457472Y307505D01*
X457484Y307490D01*
X457495Y307467D01*
X457507Y307444D01*
X457537Y307382D01*
X457568Y307313D01*
X457591Y307233D01*
X457610Y307144D01*
X457618Y307052D01*
Y307022D01*
X457614Y306998D01*
X457610Y306968D01*
X457607Y306937D01*
X457599Y306899D01*
X457591Y306860D01*
X457560Y306772D01*
X457545Y306726D01*
X457522Y306680D01*
X457495Y306630D01*
X457465Y306584D01*
X457430Y306538D01*
X457388Y306495D01*
X457384Y306492D01*
X457376Y306484D01*
X457365Y306472D01*
X457345Y306461D01*
X457322Y306442D01*
X457296Y306422D01*
X457265Y306403D01*
X457230Y306380D01*
X457188Y306357D01*
X457146Y306338D01*
X457096Y306319D01*
X457046Y306300D01*
X456988Y306288D01*
X456931Y306277D01*
X456865Y306269D01*
X456800Y306265D01*
X456796D01*
X456785D01*
X456766D01*
X456743Y306269D01*
X456712Y306273D01*
X456677Y306277D01*
X456639Y306280D01*
X456597Y306288D01*
X456504Y306315D01*
X456409Y306350D01*
X456355Y306373D01*
X456305Y306399D01*
X456255Y306430D01*
X456209Y306465D01*
X456205Y306469D01*
X456197Y306476D01*
X456182Y306492D01*
X456163Y306511D01*
X456140Y306534D01*
X456113Y306565D01*
X456086Y306599D01*
X456059Y306641D01*
X456028Y306684D01*
X456002Y306734D01*
X455975Y306791D01*
X455951Y306849D01*
X455932Y306914D01*
X455917Y306979D01*
X455909Y307052D01*
X455905Y307129D01*
Y307164D01*
X455909Y307187D01*
X455913Y307214D01*
X455917Y307248D01*
X455921Y307287D01*
X455929Y307329D01*
X455951Y307417D01*
X455986Y307509D01*
X456009Y307555D01*
X456036Y307601D01*
X456063Y307647D01*
X456098Y307690D01*
X456101Y307694D01*
X456105Y307697D01*
X456117Y307709D01*
X456132Y307724D01*
X456151Y307740D01*
X456174Y307759D01*
X456201Y307778D01*
X456232Y307801D01*
X456305Y307843D01*
X456393Y307886D01*
X456493Y307916D01*
X456551Y307928D01*
X456608Y307936D01*
X456631Y307609D01*
D02*
G37*
G36*
X447447Y262896D02*
X447443Y262865D01*
Y262834D01*
X447439Y262758D01*
X447432Y262677D01*
X447416Y262592D01*
X447401Y262512D01*
X447389Y262473D01*
X447378Y262439D01*
Y262435D01*
X447374Y262431D01*
X447366Y262408D01*
X447347Y262377D01*
X447320Y262339D01*
X447290Y262293D01*
X447247Y262247D01*
X447197Y262201D01*
X447136Y262158D01*
X447128Y262155D01*
X447105Y262143D01*
X447071Y262124D01*
X447025Y262105D01*
X446967Y262086D01*
X446902Y262066D01*
X446833Y262055D01*
X446756Y262051D01*
X446752D01*
X446744D01*
X446729D01*
X446710Y262055D01*
X446687D01*
X446660Y262059D01*
X446598Y262074D01*
X446525Y262093D01*
X446452Y262124D01*
X446376Y262170D01*
X446337Y262197D01*
X446303Y262228D01*
X446295Y262235D01*
X446287Y262247D01*
X446272Y262258D01*
X446260Y262278D01*
X446241Y262301D01*
X446226Y262328D01*
X446207Y262358D01*
X446187Y262393D01*
X446168Y262435D01*
X446149Y262477D01*
X446130Y262527D01*
X446111Y262577D01*
X446095Y262635D01*
X446084Y262696D01*
X446072Y262761D01*
X446068Y262754D01*
X446061Y262738D01*
X446049Y262715D01*
X446034Y262688D01*
X445992Y262623D01*
X445969Y262589D01*
X445946Y262562D01*
X445938Y262554D01*
X445923Y262535D01*
X445892Y262508D01*
X445853Y262473D01*
X445803Y262431D01*
X445746Y262385D01*
X445681Y262335D01*
X445608Y262285D01*
X444924Y261847D01*
Y262266D01*
X445446Y262600D01*
X445450D01*
X445458Y262608D01*
X445469Y262615D01*
X445485Y262623D01*
X445523Y262650D01*
X445573Y262685D01*
X445631Y262723D01*
X445688Y262765D01*
X445742Y262804D01*
X445792Y262842D01*
X445796Y262846D01*
X445811Y262857D01*
X445834Y262877D01*
X445861Y262896D01*
X445915Y262953D01*
X445942Y262980D01*
X445961Y263011D01*
X445965Y263015D01*
X445969Y263022D01*
X445976Y263038D01*
X445988Y263057D01*
X446011Y263103D01*
X446030Y263161D01*
Y263165D01*
X446034Y263172D01*
Y263188D01*
X446038Y263207D01*
X446041Y263234D01*
Y263264D01*
X446045Y263303D01*
Y263733D01*
X444924D01*
Y264067D01*
X447447D01*
Y262896D01*
D02*
G37*
G36*
X446825Y261414D02*
X446829Y261406D01*
X446836Y261390D01*
X446848Y261375D01*
X446859Y261352D01*
X446871Y261325D01*
X446906Y261264D01*
X446948Y261195D01*
X446998Y261118D01*
X447055Y261041D01*
X447117Y260968D01*
X447121Y260964D01*
X447124Y260960D01*
X447147Y260937D01*
X447182Y260903D01*
X447224Y260861D01*
X447278Y260814D01*
X447336Y260768D01*
X447397Y260726D01*
X447459Y260692D01*
Y260488D01*
X444924D01*
Y260799D01*
X446898D01*
X446894Y260803D01*
X446879Y260818D01*
X446859Y260845D01*
X446833Y260880D01*
X446798Y260922D01*
X446763Y260972D01*
X446721Y261030D01*
X446683Y261095D01*
Y261099D01*
X446679Y261103D01*
X446664Y261126D01*
X446644Y261160D01*
X446621Y261202D01*
X446594Y261252D01*
X446571Y261306D01*
X446545Y261364D01*
X446522Y261417D01*
X446825D01*
Y261414D01*
D02*
G37*
G36*
X445635Y259382D02*
X445631D01*
X445623Y259378D01*
X445608D01*
X445592Y259371D01*
X445546Y259359D01*
X445489Y259340D01*
X445427Y259317D01*
X445362Y259286D01*
X445304Y259248D01*
X445254Y259206D01*
X445251Y259198D01*
X445235Y259183D01*
X445220Y259156D01*
X445197Y259117D01*
X445178Y259075D01*
X445158Y259021D01*
X445143Y258960D01*
X445139Y258894D01*
Y258872D01*
X445143Y258856D01*
X445147Y258818D01*
X445158Y258768D01*
X445178Y258706D01*
X445201Y258645D01*
X445239Y258583D01*
X445289Y258526D01*
X445297Y258518D01*
X445316Y258503D01*
X445346Y258480D01*
X445393Y258449D01*
X445446Y258422D01*
X445512Y258399D01*
X445585Y258384D01*
X445665Y258376D01*
X445669D01*
X445673D01*
X445684D01*
X445700Y258380D01*
X445738Y258384D01*
X445788Y258395D01*
X445842Y258411D01*
X445903Y258438D01*
X445961Y258472D01*
X446015Y258518D01*
X446022Y258526D01*
X446038Y258541D01*
X446057Y258572D01*
X446084Y258614D01*
X446111Y258664D01*
X446130Y258726D01*
X446145Y258791D01*
X446153Y258868D01*
Y258902D01*
X446149Y258929D01*
X446145Y258960D01*
X446141Y258998D01*
X446134Y259040D01*
X446122Y259086D01*
X446395Y259052D01*
Y259033D01*
X446391Y259017D01*
Y258967D01*
X446395Y258933D01*
X446403Y258883D01*
X446414Y258829D01*
X446433Y258772D01*
X446456Y258710D01*
X446491Y258649D01*
X446495Y258641D01*
X446510Y258622D01*
X446537Y258599D01*
X446571Y258568D01*
X446614Y258537D01*
X446667Y258514D01*
X446733Y258495D01*
X446809Y258488D01*
X446813D01*
X446817D01*
X446836D01*
X446867Y258495D01*
X446909Y258503D01*
X446952Y258514D01*
X446998Y258537D01*
X447048Y258564D01*
X447090Y258603D01*
X447094Y258607D01*
X447109Y258622D01*
X447128Y258649D01*
X447147Y258683D01*
X447170Y258726D01*
X447186Y258775D01*
X447201Y258833D01*
X447205Y258898D01*
Y258929D01*
X447197Y258964D01*
X447190Y259002D01*
X447178Y259052D01*
X447155Y259102D01*
X447128Y259152D01*
X447090Y259202D01*
X447086Y259206D01*
X447071Y259221D01*
X447044Y259240D01*
X447005Y259263D01*
X446959Y259290D01*
X446902Y259313D01*
X446833Y259336D01*
X446752Y259351D01*
X446806Y259663D01*
X446809D01*
X446821Y259659D01*
X446836Y259655D01*
X446856Y259651D01*
X446882Y259643D01*
X446913Y259636D01*
X446982Y259609D01*
X447059Y259578D01*
X447140Y259532D01*
X447217Y259478D01*
X447286Y259409D01*
X447290Y259405D01*
X447293Y259401D01*
X447301Y259390D01*
X447313Y259371D01*
X447324Y259351D01*
X447339Y259328D01*
X447374Y259271D01*
X447405Y259198D01*
X447432Y259110D01*
X447451Y259014D01*
X447459Y258960D01*
Y258872D01*
X447455Y258833D01*
X447447Y258783D01*
X447435Y258726D01*
X447420Y258660D01*
X447397Y258595D01*
X447366Y258530D01*
Y258526D01*
X447363Y258522D01*
X447351Y258499D01*
X447332Y258468D01*
X447305Y258430D01*
X447270Y258388D01*
X447228Y258342D01*
X447178Y258299D01*
X447124Y258261D01*
X447117Y258257D01*
X447097Y258246D01*
X447067Y258230D01*
X447028Y258215D01*
X446979Y258200D01*
X446925Y258184D01*
X446867Y258173D01*
X446802Y258169D01*
X446794D01*
X446775D01*
X446744Y258173D01*
X446706Y258180D01*
X446660Y258192D01*
X446610Y258207D01*
X446556Y258226D01*
X446506Y258257D01*
X446498Y258261D01*
X446483Y258272D01*
X446460Y258295D01*
X446429Y258322D01*
X446395Y258361D01*
X446360Y258403D01*
X446322Y258457D01*
X446291Y258518D01*
Y258514D01*
X446287Y258507D01*
Y258495D01*
X446280Y258480D01*
X446268Y258441D01*
X446245Y258391D01*
X446218Y258338D01*
X446180Y258280D01*
X446134Y258223D01*
X446076Y258173D01*
X446068Y258169D01*
X446045Y258153D01*
X446011Y258134D01*
X445965Y258107D01*
X445907Y258084D01*
X445838Y258065D01*
X445757Y258050D01*
X445669Y258046D01*
X445665D01*
X445654D01*
X445638D01*
X445615Y258050D01*
X445585Y258054D01*
X445554Y258057D01*
X445515Y258065D01*
X445477Y258077D01*
X445389Y258103D01*
X445339Y258123D01*
X445293Y258150D01*
X445247Y258176D01*
X445201Y258207D01*
X445154Y258246D01*
X445108Y258288D01*
X445105Y258292D01*
X445097Y258299D01*
X445089Y258311D01*
X445074Y258330D01*
X445055Y258353D01*
X445035Y258384D01*
X445016Y258418D01*
X444997Y258453D01*
X444974Y258495D01*
X444955Y258541D01*
X444936Y258591D01*
X444916Y258645D01*
X444901Y258702D01*
X444893Y258764D01*
X444886Y258829D01*
X444882Y258894D01*
Y258925D01*
X444886Y258948D01*
X444889Y258979D01*
X444893Y259010D01*
X444897Y259048D01*
X444905Y259086D01*
X444928Y259175D01*
X444966Y259267D01*
X444985Y259313D01*
X445012Y259355D01*
X445043Y259401D01*
X445078Y259444D01*
X445082Y259448D01*
X445085Y259451D01*
X445097Y259463D01*
X445112Y259478D01*
X445135Y259494D01*
X445158Y259513D01*
X445185Y259536D01*
X445216Y259555D01*
X445293Y259601D01*
X445381Y259640D01*
X445481Y259674D01*
X445535Y259686D01*
X445592Y259693D01*
X445635Y259382D01*
D02*
G37*
G36*
X459216Y262896D02*
X459212Y262865D01*
Y262834D01*
X459208Y262758D01*
X459200Y262677D01*
X459185Y262592D01*
X459170Y262512D01*
X459158Y262473D01*
X459147Y262439D01*
Y262435D01*
X459143Y262431D01*
X459135Y262408D01*
X459116Y262377D01*
X459089Y262339D01*
X459058Y262293D01*
X459016Y262247D01*
X458966Y262201D01*
X458905Y262158D01*
X458897Y262155D01*
X458874Y262143D01*
X458839Y262124D01*
X458793Y262105D01*
X458736Y262086D01*
X458671Y262066D01*
X458601Y262055D01*
X458525Y262051D01*
X458521D01*
X458513D01*
X458498D01*
X458478Y262055D01*
X458455D01*
X458428Y262059D01*
X458367Y262074D01*
X458294Y262093D01*
X458221Y262124D01*
X458144Y262170D01*
X458106Y262197D01*
X458071Y262228D01*
X458064Y262235D01*
X458056Y262247D01*
X458041Y262258D01*
X458029Y262278D01*
X458010Y262301D01*
X457995Y262328D01*
X457975Y262358D01*
X457956Y262393D01*
X457937Y262435D01*
X457918Y262477D01*
X457899Y262527D01*
X457879Y262577D01*
X457864Y262635D01*
X457853Y262696D01*
X457841Y262761D01*
X457837Y262754D01*
X457830Y262738D01*
X457818Y262715D01*
X457803Y262688D01*
X457760Y262623D01*
X457737Y262589D01*
X457714Y262562D01*
X457707Y262554D01*
X457691Y262535D01*
X457660Y262508D01*
X457622Y262473D01*
X457572Y262431D01*
X457515Y262385D01*
X457449Y262335D01*
X457376Y262285D01*
X456693Y261847D01*
Y262266D01*
X457215Y262600D01*
X457219D01*
X457227Y262608D01*
X457238Y262615D01*
X457254Y262623D01*
X457292Y262650D01*
X457342Y262685D01*
X457399Y262723D01*
X457457Y262765D01*
X457511Y262804D01*
X457561Y262842D01*
X457564Y262846D01*
X457580Y262857D01*
X457603Y262877D01*
X457630Y262896D01*
X457684Y262953D01*
X457711Y262980D01*
X457730Y263011D01*
X457733Y263015D01*
X457737Y263022D01*
X457745Y263038D01*
X457757Y263057D01*
X457780Y263103D01*
X457799Y263161D01*
Y263165D01*
X457803Y263172D01*
Y263188D01*
X457806Y263207D01*
X457810Y263234D01*
Y263264D01*
X457814Y263303D01*
Y263733D01*
X456693D01*
Y264067D01*
X459216D01*
Y262896D01*
D02*
G37*
G36*
X458594Y261414D02*
X458598Y261406D01*
X458605Y261390D01*
X458617Y261375D01*
X458628Y261352D01*
X458640Y261325D01*
X458674Y261264D01*
X458716Y261195D01*
X458767Y261118D01*
X458824Y261041D01*
X458885Y260968D01*
X458889Y260964D01*
X458893Y260960D01*
X458916Y260937D01*
X458951Y260903D01*
X458993Y260861D01*
X459047Y260814D01*
X459104Y260768D01*
X459166Y260726D01*
X459227Y260692D01*
Y260488D01*
X456693D01*
Y260799D01*
X458667D01*
X458663Y260803D01*
X458647Y260818D01*
X458628Y260845D01*
X458601Y260880D01*
X458567Y260922D01*
X458532Y260972D01*
X458490Y261030D01*
X458452Y261095D01*
Y261099D01*
X458448Y261103D01*
X458432Y261126D01*
X458413Y261160D01*
X458390Y261202D01*
X458363Y261252D01*
X458340Y261306D01*
X458313Y261364D01*
X458290Y261417D01*
X458594D01*
Y261414D01*
D02*
G37*
G36*
X459212Y258649D02*
Y258395D01*
X457580D01*
Y258054D01*
X457296D01*
Y258395D01*
X456693D01*
Y258706D01*
X457296D01*
Y259801D01*
X457580D01*
X459212Y258649D01*
D02*
G37*
G36*
X471069Y262896D02*
X471065Y262865D01*
Y262834D01*
X471061Y262757D01*
X471054Y262677D01*
X471038Y262592D01*
X471023Y262512D01*
X471011Y262473D01*
X471000Y262439D01*
Y262435D01*
X470996Y262431D01*
X470988Y262408D01*
X470969Y262377D01*
X470942Y262339D01*
X470912Y262293D01*
X470869Y262247D01*
X470819Y262201D01*
X470758Y262158D01*
X470750Y262155D01*
X470727Y262143D01*
X470693Y262124D01*
X470647Y262105D01*
X470589Y262086D01*
X470524Y262066D01*
X470455Y262055D01*
X470378Y262051D01*
X470374D01*
X470366D01*
X470351D01*
X470332Y262055D01*
X470309D01*
X470282Y262059D01*
X470220Y262074D01*
X470147Y262093D01*
X470075Y262124D01*
X469998Y262170D01*
X469959Y262197D01*
X469925Y262228D01*
X469917Y262235D01*
X469909Y262247D01*
X469894Y262258D01*
X469882Y262278D01*
X469863Y262301D01*
X469848Y262328D01*
X469829Y262358D01*
X469809Y262393D01*
X469790Y262435D01*
X469771Y262477D01*
X469752Y262527D01*
X469733Y262577D01*
X469717Y262635D01*
X469706Y262696D01*
X469694Y262761D01*
X469691Y262754D01*
X469683Y262738D01*
X469671Y262715D01*
X469656Y262688D01*
X469614Y262623D01*
X469591Y262589D01*
X469568Y262562D01*
X469560Y262554D01*
X469545Y262535D01*
X469514Y262508D01*
X469475Y262473D01*
X469425Y262431D01*
X469368Y262385D01*
X469303Y262335D01*
X469230Y262285D01*
X468546Y261847D01*
Y262266D01*
X469068Y262600D01*
X469072D01*
X469080Y262608D01*
X469091Y262615D01*
X469107Y262623D01*
X469145Y262650D01*
X469195Y262685D01*
X469253Y262723D01*
X469310Y262765D01*
X469364Y262804D01*
X469414Y262842D01*
X469418Y262846D01*
X469433Y262857D01*
X469456Y262877D01*
X469483Y262896D01*
X469537Y262953D01*
X469564Y262980D01*
X469583Y263011D01*
X469587Y263015D01*
X469591Y263022D01*
X469598Y263038D01*
X469610Y263057D01*
X469633Y263103D01*
X469652Y263161D01*
Y263165D01*
X469656Y263172D01*
Y263188D01*
X469660Y263207D01*
X469664Y263234D01*
Y263264D01*
X469667Y263303D01*
Y263733D01*
X468546D01*
Y264067D01*
X471069D01*
Y262896D01*
D02*
G37*
G36*
X470447Y261414D02*
X470451Y261406D01*
X470459Y261390D01*
X470470Y261375D01*
X470481Y261352D01*
X470493Y261325D01*
X470528Y261264D01*
X470570Y261195D01*
X470620Y261118D01*
X470677Y261041D01*
X470739Y260968D01*
X470743Y260964D01*
X470747Y260960D01*
X470770Y260937D01*
X470804Y260903D01*
X470846Y260861D01*
X470900Y260814D01*
X470958Y260768D01*
X471019Y260726D01*
X471080Y260692D01*
Y260488D01*
X468546D01*
Y260799D01*
X470520D01*
X470516Y260803D01*
X470501Y260818D01*
X470481Y260845D01*
X470455Y260880D01*
X470420Y260922D01*
X470386Y260972D01*
X470343Y261030D01*
X470305Y261095D01*
Y261099D01*
X470301Y261103D01*
X470286Y261126D01*
X470266Y261160D01*
X470243Y261202D01*
X470217Y261252D01*
X470193Y261306D01*
X470167Y261364D01*
X470144Y261417D01*
X470447D01*
Y261414D01*
D02*
G37*
G36*
X469230Y259371D02*
X469226D01*
X469218D01*
X469207Y259367D01*
X469191Y259363D01*
X469149Y259351D01*
X469095Y259336D01*
X469038Y259317D01*
X468980Y259286D01*
X468923Y259252D01*
X468872Y259206D01*
X468869Y259198D01*
X468853Y259183D01*
X468838Y259156D01*
X468815Y259117D01*
X468796Y259071D01*
X468777Y259017D01*
X468761Y258956D01*
X468757Y258891D01*
Y258868D01*
X468761Y258852D01*
X468765Y258810D01*
X468777Y258756D01*
X468800Y258699D01*
X468826Y258633D01*
X468869Y258572D01*
X468892Y258541D01*
X468923Y258510D01*
X468926D01*
X468930Y258503D01*
X468953Y258488D01*
X468992Y258461D01*
X469041Y258434D01*
X469107Y258407D01*
X469184Y258380D01*
X469272Y258365D01*
X469372Y258357D01*
X469376D01*
X469383D01*
X469399D01*
X469414Y258361D01*
X469437D01*
X469464Y258365D01*
X469525Y258376D01*
X469591Y258391D01*
X469660Y258418D01*
X469729Y258457D01*
X469790Y258507D01*
X469798Y258514D01*
X469813Y258534D01*
X469840Y258564D01*
X469867Y258610D01*
X469894Y258664D01*
X469921Y258733D01*
X469936Y258810D01*
X469944Y258894D01*
Y258921D01*
X469940Y258948D01*
X469936Y258987D01*
X469925Y259029D01*
X469913Y259075D01*
X469894Y259121D01*
X469871Y259167D01*
X469867Y259171D01*
X469859Y259186D01*
X469844Y259209D01*
X469825Y259236D01*
X469798Y259263D01*
X469767Y259294D01*
X469733Y259325D01*
X469694Y259351D01*
X469736Y259643D01*
X471031Y259398D01*
Y258146D01*
X470735D01*
Y259152D01*
X470055Y259290D01*
X470059Y259286D01*
X470063Y259278D01*
X470071Y259267D01*
X470082Y259252D01*
X470094Y259229D01*
X470105Y259206D01*
X470136Y259144D01*
X470167Y259075D01*
X470190Y258994D01*
X470209Y258906D01*
X470217Y258814D01*
Y258783D01*
X470213Y258760D01*
X470209Y258729D01*
X470205Y258699D01*
X470197Y258660D01*
X470190Y258622D01*
X470159Y258534D01*
X470144Y258488D01*
X470120Y258441D01*
X470094Y258391D01*
X470063Y258345D01*
X470028Y258299D01*
X469986Y258257D01*
X469982Y258253D01*
X469975Y258246D01*
X469963Y258234D01*
X469944Y258223D01*
X469921Y258203D01*
X469894Y258184D01*
X469863Y258165D01*
X469829Y258142D01*
X469787Y258119D01*
X469744Y258100D01*
X469694Y258080D01*
X469644Y258061D01*
X469587Y258050D01*
X469529Y258038D01*
X469464Y258031D01*
X469399Y258027D01*
X469395D01*
X469383D01*
X469364D01*
X469341Y258031D01*
X469310Y258034D01*
X469276Y258038D01*
X469237Y258042D01*
X469195Y258050D01*
X469103Y258077D01*
X469007Y258111D01*
X468953Y258134D01*
X468903Y258161D01*
X468853Y258192D01*
X468807Y258226D01*
X468803Y258230D01*
X468796Y258238D01*
X468780Y258253D01*
X468761Y258272D01*
X468738Y258295D01*
X468711Y258326D01*
X468684Y258361D01*
X468657Y258403D01*
X468627Y258445D01*
X468600Y258495D01*
X468573Y258553D01*
X468550Y258610D01*
X468531Y258676D01*
X468515Y258741D01*
X468508Y258814D01*
X468504Y258891D01*
Y258925D01*
X468508Y258948D01*
X468512Y258975D01*
X468515Y259010D01*
X468519Y259048D01*
X468527Y259090D01*
X468550Y259179D01*
X468584Y259271D01*
X468608Y259317D01*
X468635Y259363D01*
X468661Y259409D01*
X468696Y259451D01*
X468700Y259455D01*
X468704Y259459D01*
X468715Y259471D01*
X468730Y259486D01*
X468750Y259501D01*
X468773Y259520D01*
X468800Y259540D01*
X468830Y259563D01*
X468903Y259605D01*
X468992Y259647D01*
X469091Y259678D01*
X469149Y259689D01*
X469207Y259697D01*
X469230Y259371D01*
D02*
G37*
G36*
X477548Y360061D02*
X477571D01*
X477632Y360053D01*
X477698Y360037D01*
X477774Y360022D01*
X477851Y359995D01*
X477928Y359961D01*
X477932D01*
X477936Y359957D01*
X477947Y359949D01*
X477962Y359942D01*
X477997Y359918D01*
X478043Y359888D01*
X478093Y359845D01*
X478143Y359796D01*
X478193Y359742D01*
X478239Y359677D01*
X478243Y359669D01*
X478254Y359646D01*
X478273Y359607D01*
X478293Y359561D01*
X478312Y359500D01*
X478331Y359431D01*
X478343Y359354D01*
X478346Y359273D01*
Y359258D01*
X478343Y359235D01*
Y359208D01*
X478339Y359177D01*
X478331Y359139D01*
X478324Y359097D01*
X478312Y359051D01*
X478297Y359001D01*
X478277Y358947D01*
X478254Y358897D01*
X478228Y358843D01*
X478193Y358789D01*
X478155Y358736D01*
X478112Y358686D01*
X478062Y358640D01*
X478058Y358636D01*
X478047Y358628D01*
X478032Y358617D01*
X478009Y358601D01*
X477978Y358582D01*
X477940Y358563D01*
X477893Y358540D01*
X477840Y358521D01*
X477778Y358498D01*
X477709Y358475D01*
X477632Y358455D01*
X477548Y358436D01*
X477456Y358421D01*
X477352Y358409D01*
X477244Y358402D01*
X477125Y358398D01*
X477121D01*
X477118D01*
X477106D01*
X477095D01*
X477056D01*
X477006Y358402D01*
X476945Y358405D01*
X476876Y358413D01*
X476799Y358421D01*
X476718Y358432D01*
X476630Y358444D01*
X476542Y358463D01*
X476453Y358486D01*
X476369Y358513D01*
X476281Y358544D01*
X476204Y358578D01*
X476127Y358621D01*
X476062Y358667D01*
X476058Y358670D01*
X476050Y358678D01*
X476035Y358690D01*
X476016Y358709D01*
X475993Y358736D01*
X475970Y358763D01*
X475943Y358797D01*
X475916Y358836D01*
X475889Y358878D01*
X475862Y358928D01*
X475839Y358978D01*
X475816Y359035D01*
X475797Y359097D01*
X475781Y359162D01*
X475774Y359231D01*
X475770Y359304D01*
Y359331D01*
X475774Y359354D01*
Y359377D01*
X475777Y359408D01*
X475789Y359477D01*
X475812Y359554D01*
X475843Y359634D01*
X475881Y359715D01*
X475908Y359753D01*
X475939Y359792D01*
Y359796D01*
X475947Y359799D01*
X475970Y359822D01*
X476008Y359853D01*
X476058Y359892D01*
X476123Y359934D01*
X476200Y359968D01*
X476292Y360003D01*
X476396Y360022D01*
X476419Y359715D01*
X476415D01*
X476411D01*
X476388Y359707D01*
X476357Y359696D01*
X476319Y359684D01*
X476231Y359646D01*
X476192Y359623D01*
X476158Y359596D01*
X476150Y359592D01*
X476135Y359573D01*
X476116Y359546D01*
X476089Y359511D01*
X476065Y359465D01*
X476043Y359412D01*
X476027Y359350D01*
X476023Y359285D01*
Y359258D01*
X476027Y359231D01*
X476035Y359196D01*
X476043Y359154D01*
X476058Y359108D01*
X476081Y359066D01*
X476108Y359020D01*
X476112Y359012D01*
X476127Y358997D01*
X476154Y358970D01*
X476188Y358939D01*
X476231Y358901D01*
X476284Y358862D01*
X476350Y358824D01*
X476423Y358789D01*
X476427D01*
X476430Y358786D01*
X476446Y358782D01*
X476461Y358778D01*
X476480Y358770D01*
X476507Y358763D01*
X476538Y358755D01*
X476572Y358747D01*
X476611Y358740D01*
X476653Y358732D01*
X476703Y358724D01*
X476753Y358717D01*
X476811Y358713D01*
X476872Y358709D01*
X476937Y358705D01*
X477002D01*
X476999Y358709D01*
X476979Y358724D01*
X476949Y358747D01*
X476910Y358782D01*
X476868Y358820D01*
X476826Y358866D01*
X476788Y358920D01*
X476753Y358978D01*
X476749Y358985D01*
X476741Y359004D01*
X476726Y359039D01*
X476711Y359081D01*
X476695Y359131D01*
X476680Y359189D01*
X476672Y359250D01*
X476668Y359315D01*
Y359346D01*
X476672Y359369D01*
X476676Y359396D01*
X476680Y359427D01*
X476695Y359500D01*
X476726Y359580D01*
X476741Y359627D01*
X476764Y359669D01*
X476791Y359715D01*
X476822Y359761D01*
X476857Y359803D01*
X476899Y359845D01*
X476903Y359849D01*
X476910Y359853D01*
X476922Y359865D01*
X476941Y359880D01*
X476964Y359895D01*
X476991Y359915D01*
X477022Y359934D01*
X477056Y359957D01*
X477099Y359976D01*
X477141Y359995D01*
X477191Y360014D01*
X477241Y360030D01*
X477298Y360045D01*
X477356Y360057D01*
X477421Y360061D01*
X477486Y360064D01*
X477490D01*
X477498D01*
X477509D01*
X477525D01*
X477548Y360061D01*
D02*
G37*
G36*
X478304Y357311D02*
X476331D01*
X476334Y357307D01*
X476350Y357292D01*
X476369Y357265D01*
X476396Y357230D01*
X476430Y357188D01*
X476465Y357138D01*
X476507Y357081D01*
X476545Y357015D01*
Y357012D01*
X476549Y357008D01*
X476565Y356985D01*
X476584Y356950D01*
X476607Y356908D01*
X476634Y356858D01*
X476657Y356804D01*
X476684Y356747D01*
X476707Y356693D01*
X476404D01*
Y356697D01*
X476400Y356704D01*
X476392Y356720D01*
X476380Y356735D01*
X476369Y356758D01*
X476357Y356785D01*
X476323Y356846D01*
X476281Y356915D01*
X476231Y356992D01*
X476173Y357069D01*
X476112Y357142D01*
X476108Y357146D01*
X476104Y357150D01*
X476081Y357173D01*
X476046Y357207D01*
X476004Y357250D01*
X475950Y357296D01*
X475893Y357342D01*
X475831Y357384D01*
X475770Y357419D01*
Y357622D01*
X478304D01*
Y357311D01*
D02*
G37*
G36*
Y355844D02*
X477782Y355510D01*
X477778D01*
X477771Y355502D01*
X477759Y355495D01*
X477744Y355487D01*
X477705Y355460D01*
X477655Y355426D01*
X477598Y355387D01*
X477540Y355345D01*
X477486Y355307D01*
X477436Y355268D01*
X477433Y355264D01*
X477417Y355253D01*
X477394Y355234D01*
X477367Y355214D01*
X477314Y355157D01*
X477287Y355130D01*
X477268Y355099D01*
X477264Y355095D01*
X477260Y355088D01*
X477252Y355072D01*
X477241Y355053D01*
X477217Y355007D01*
X477198Y354949D01*
Y354946D01*
X477194Y354938D01*
Y354923D01*
X477191Y354903D01*
X477187Y354876D01*
Y354846D01*
X477183Y354807D01*
Y354377D01*
X478304D01*
Y354043D01*
X475781D01*
Y355214D01*
X475785Y355245D01*
Y355276D01*
X475789Y355353D01*
X475797Y355433D01*
X475812Y355518D01*
X475828Y355598D01*
X475839Y355637D01*
X475850Y355671D01*
Y355675D01*
X475854Y355679D01*
X475862Y355702D01*
X475881Y355733D01*
X475908Y355771D01*
X475939Y355817D01*
X475981Y355863D01*
X476031Y355909D01*
X476092Y355952D01*
X476100Y355956D01*
X476123Y355967D01*
X476158Y355986D01*
X476204Y356006D01*
X476261Y356025D01*
X476327Y356044D01*
X476396Y356055D01*
X476473Y356059D01*
X476476D01*
X476484D01*
X476500D01*
X476519Y356055D01*
X476542D01*
X476569Y356051D01*
X476630Y356036D01*
X476703Y356017D01*
X476776Y355986D01*
X476853Y355940D01*
X476891Y355913D01*
X476926Y355883D01*
X476933Y355875D01*
X476941Y355863D01*
X476956Y355852D01*
X476968Y355833D01*
X476987Y355810D01*
X477002Y355783D01*
X477022Y355752D01*
X477041Y355717D01*
X477060Y355675D01*
X477079Y355633D01*
X477099Y355583D01*
X477118Y355533D01*
X477133Y355476D01*
X477145Y355414D01*
X477156Y355349D01*
X477160Y355357D01*
X477168Y355372D01*
X477179Y355395D01*
X477194Y355422D01*
X477237Y355487D01*
X477260Y355522D01*
X477283Y355549D01*
X477290Y355556D01*
X477306Y355575D01*
X477337Y355602D01*
X477375Y355637D01*
X477425Y355679D01*
X477483Y355725D01*
X477548Y355775D01*
X477621Y355825D01*
X478304Y356263D01*
Y355844D01*
D02*
G37*
G36*
X444171Y360068D02*
X444198Y360064D01*
X444233Y360061D01*
X444310Y360045D01*
X444394Y360014D01*
X444440Y359999D01*
X444486Y359976D01*
X444532Y359949D01*
X444579Y359918D01*
X444621Y359884D01*
X444663Y359842D01*
X444667Y359838D01*
X444671Y359830D01*
X444682Y359819D01*
X444698Y359799D01*
X444713Y359776D01*
X444732Y359750D01*
X444751Y359719D01*
X444771Y359680D01*
X444794Y359638D01*
X444813Y359592D01*
X444832Y359542D01*
X444847Y359488D01*
X444863Y359435D01*
X444874Y359373D01*
X444878Y359308D01*
X444882Y359239D01*
Y359204D01*
X444878Y359177D01*
X444874Y359147D01*
X444870Y359108D01*
X444863Y359070D01*
X444855Y359024D01*
X444828Y358928D01*
X444809Y358878D01*
X444790Y358828D01*
X444763Y358778D01*
X444736Y358728D01*
X444701Y358682D01*
X444663Y358636D01*
X444659Y358632D01*
X444652Y358624D01*
X444640Y358617D01*
X444625Y358601D01*
X444602Y358582D01*
X444575Y358563D01*
X444544Y358544D01*
X444510Y358524D01*
X444471Y358502D01*
X444429Y358482D01*
X444337Y358444D01*
X444283Y358429D01*
X444229Y358421D01*
X444171Y358413D01*
X444110Y358409D01*
X444106D01*
X444099D01*
X444087D01*
X444068Y358413D01*
X444049D01*
X444022Y358417D01*
X443968Y358425D01*
X443903Y358440D01*
X443834Y358463D01*
X443764Y358490D01*
X443699Y358532D01*
X443695D01*
X443691Y358540D01*
X443672Y358555D01*
X443642Y358586D01*
X443607Y358624D01*
X443569Y358674D01*
X443530Y358736D01*
X443496Y358809D01*
X443469Y358889D01*
Y358886D01*
X443465Y358882D01*
X443457Y358859D01*
X443438Y358824D01*
X443419Y358782D01*
X443388Y358732D01*
X443354Y358686D01*
X443315Y358640D01*
X443269Y358601D01*
X443261Y358597D01*
X443246Y358586D01*
X443219Y358571D01*
X443181Y358555D01*
X443135Y358540D01*
X443081Y358524D01*
X443023Y358513D01*
X442958Y358509D01*
X442954D01*
X442947D01*
X442931D01*
X442912Y358513D01*
X442889Y358517D01*
X442862Y358521D01*
X442797Y358532D01*
X442724Y358555D01*
X442647Y358594D01*
X442605Y358613D01*
X442566Y358640D01*
X442528Y358670D01*
X442493Y358705D01*
X442490Y358709D01*
X442486Y358713D01*
X442474Y358724D01*
X442463Y358740D01*
X442451Y358763D01*
X442432Y358786D01*
X442417Y358812D01*
X442397Y358847D01*
X442363Y358920D01*
X442336Y359012D01*
X442313Y359116D01*
X442309Y359170D01*
X442305Y359231D01*
Y359262D01*
X442309Y359285D01*
Y359316D01*
X442317Y359346D01*
X442328Y359423D01*
X442351Y359508D01*
X442386Y359596D01*
X442409Y359642D01*
X442432Y359684D01*
X442463Y359726D01*
X442497Y359765D01*
X442501Y359769D01*
X442505Y359772D01*
X442517Y359784D01*
X442532Y359796D01*
X442551Y359811D01*
X442574Y359830D01*
X442628Y359869D01*
X442697Y359903D01*
X442778Y359938D01*
X442866Y359961D01*
X442916Y359964D01*
X442966Y359968D01*
X442973D01*
X442997D01*
X443027Y359964D01*
X443069Y359957D01*
X443119Y359945D01*
X443169Y359930D01*
X443223Y359907D01*
X443273Y359876D01*
X443277Y359872D01*
X443292Y359861D01*
X443315Y359838D01*
X443346Y359807D01*
X443377Y359769D01*
X443407Y359719D01*
X443442Y359661D01*
X443469Y359596D01*
Y359600D01*
X443473Y359607D01*
X443476Y359619D01*
X443484Y359634D01*
X443503Y359677D01*
X443526Y359726D01*
X443561Y359784D01*
X443603Y359842D01*
X443657Y359899D01*
X443715Y359949D01*
X443722Y359953D01*
X443745Y359968D01*
X443780Y359988D01*
X443830Y360011D01*
X443887Y360034D01*
X443957Y360053D01*
X444033Y360068D01*
X444118Y360072D01*
X444122D01*
X444133D01*
X444148D01*
X444171Y360068D01*
D02*
G37*
G36*
X444840Y357311D02*
X442866D01*
X442870Y357307D01*
X442885Y357292D01*
X442904Y357265D01*
X442931Y357230D01*
X442966Y357188D01*
X443000Y357138D01*
X443043Y357081D01*
X443081Y357015D01*
Y357012D01*
X443085Y357008D01*
X443100Y356985D01*
X443119Y356950D01*
X443142Y356908D01*
X443169Y356858D01*
X443192Y356804D01*
X443219Y356747D01*
X443242Y356693D01*
X442939D01*
Y356697D01*
X442935Y356704D01*
X442927Y356720D01*
X442916Y356735D01*
X442904Y356758D01*
X442893Y356785D01*
X442858Y356846D01*
X442816Y356916D01*
X442766Y356992D01*
X442708Y357069D01*
X442647Y357142D01*
X442643Y357146D01*
X442639Y357150D01*
X442616Y357173D01*
X442582Y357207D01*
X442540Y357250D01*
X442486Y357296D01*
X442428Y357342D01*
X442367Y357384D01*
X442305Y357419D01*
Y357622D01*
X444840D01*
Y357311D01*
D02*
G37*
G36*
Y355844D02*
X444317Y355510D01*
X444314D01*
X444306Y355502D01*
X444294Y355495D01*
X444279Y355487D01*
X444241Y355460D01*
X444191Y355426D01*
X444133Y355387D01*
X444075Y355345D01*
X444022Y355307D01*
X443972Y355268D01*
X443968Y355264D01*
X443953Y355253D01*
X443930Y355234D01*
X443903Y355214D01*
X443849Y355157D01*
X443822Y355130D01*
X443803Y355099D01*
X443799Y355095D01*
X443795Y355088D01*
X443787Y355072D01*
X443776Y355053D01*
X443753Y355007D01*
X443734Y354949D01*
Y354946D01*
X443730Y354938D01*
Y354923D01*
X443726Y354903D01*
X443722Y354876D01*
Y354846D01*
X443718Y354807D01*
Y354377D01*
X444840D01*
Y354043D01*
X442317D01*
Y355214D01*
X442321Y355245D01*
Y355276D01*
X442324Y355353D01*
X442332Y355433D01*
X442347Y355518D01*
X442363Y355598D01*
X442374Y355637D01*
X442386Y355671D01*
Y355675D01*
X442390Y355679D01*
X442397Y355702D01*
X442417Y355733D01*
X442444Y355771D01*
X442474Y355817D01*
X442517Y355863D01*
X442566Y355909D01*
X442628Y355952D01*
X442635Y355956D01*
X442659Y355967D01*
X442693Y355986D01*
X442739Y356006D01*
X442797Y356025D01*
X442862Y356044D01*
X442931Y356055D01*
X443008Y356059D01*
X443012D01*
X443019D01*
X443035D01*
X443054Y356055D01*
X443077D01*
X443104Y356052D01*
X443165Y356036D01*
X443238Y356017D01*
X443311Y355986D01*
X443388Y355940D01*
X443427Y355913D01*
X443461Y355883D01*
X443469Y355875D01*
X443476Y355863D01*
X443492Y355852D01*
X443503Y355833D01*
X443523Y355810D01*
X443538Y355783D01*
X443557Y355752D01*
X443576Y355717D01*
X443596Y355675D01*
X443615Y355633D01*
X443634Y355583D01*
X443653Y355533D01*
X443669Y355476D01*
X443680Y355414D01*
X443691Y355349D01*
X443695Y355357D01*
X443703Y355372D01*
X443715Y355395D01*
X443730Y355422D01*
X443772Y355487D01*
X443795Y355522D01*
X443818Y355549D01*
X443826Y355556D01*
X443841Y355575D01*
X443872Y355602D01*
X443910Y355637D01*
X443960Y355679D01*
X444018Y355725D01*
X444083Y355775D01*
X444156Y355825D01*
X444840Y356263D01*
Y355844D01*
D02*
G37*
G36*
X454447Y360061D02*
X454454Y360053D01*
X454470Y360041D01*
X454489Y360022D01*
X454516Y360003D01*
X454546Y359976D01*
X454585Y359945D01*
X454623Y359915D01*
X454669Y359880D01*
X454723Y359842D01*
X454777Y359799D01*
X454838Y359761D01*
X454904Y359719D01*
X454973Y359673D01*
X455049Y359630D01*
X455126Y359584D01*
X455130Y359580D01*
X455145Y359573D01*
X455168Y359561D01*
X455199Y359546D01*
X455238Y359527D01*
X455284Y359504D01*
X455337Y359477D01*
X455395Y359450D01*
X455456Y359423D01*
X455526Y359392D01*
X455598Y359362D01*
X455675Y359331D01*
X455833Y359273D01*
X456002Y359220D01*
X456006D01*
X456017Y359216D01*
X456033Y359212D01*
X456055Y359204D01*
X456086Y359196D01*
X456121Y359189D01*
X456163Y359181D01*
X456205Y359170D01*
X456255Y359162D01*
X456309Y359150D01*
X456424Y359131D01*
X456555Y359116D01*
X456693Y359104D01*
Y358786D01*
X456689D01*
X456678D01*
X456662D01*
X456639Y358789D01*
X456612D01*
X456578Y358793D01*
X456535Y358797D01*
X456493Y358801D01*
X456443Y358809D01*
X456386Y358816D01*
X456328Y358824D01*
X456267Y358836D01*
X456198Y358847D01*
X456129Y358862D01*
X455975Y358901D01*
X455971D01*
X455956Y358905D01*
X455933Y358912D01*
X455902Y358920D01*
X455864Y358932D01*
X455821Y358947D01*
X455771Y358962D01*
X455714Y358981D01*
X455656Y359004D01*
X455591Y359028D01*
X455453Y359081D01*
X455307Y359147D01*
X455161Y359220D01*
X455157Y359223D01*
X455142Y359231D01*
X455122Y359243D01*
X455095Y359258D01*
X455061Y359277D01*
X455022Y359300D01*
X454980Y359327D01*
X454930Y359354D01*
X454827Y359423D01*
X454715Y359500D01*
X454604Y359580D01*
X454496Y359669D01*
Y358432D01*
X454201D01*
Y360064D01*
X454443D01*
X454447Y360061D01*
D02*
G37*
G36*
X456693Y357311D02*
X454719D01*
X454723Y357307D01*
X454738Y357292D01*
X454758Y357265D01*
X454784Y357230D01*
X454819Y357188D01*
X454854Y357138D01*
X454896Y357081D01*
X454934Y357015D01*
Y357012D01*
X454938Y357008D01*
X454953Y356985D01*
X454973Y356950D01*
X454996Y356908D01*
X455022Y356858D01*
X455046Y356804D01*
X455072Y356747D01*
X455095Y356693D01*
X454792D01*
Y356697D01*
X454788Y356704D01*
X454781Y356720D01*
X454769Y356735D01*
X454758Y356758D01*
X454746Y356785D01*
X454711Y356846D01*
X454669Y356916D01*
X454619Y356992D01*
X454562Y357069D01*
X454500Y357142D01*
X454496Y357146D01*
X454493Y357150D01*
X454470Y357173D01*
X454435Y357207D01*
X454393Y357250D01*
X454339Y357296D01*
X454281Y357342D01*
X454220Y357384D01*
X454159Y357419D01*
Y357622D01*
X456693D01*
Y357311D01*
D02*
G37*
G36*
Y355844D02*
X456171Y355510D01*
X456167D01*
X456159Y355502D01*
X456148Y355495D01*
X456132Y355487D01*
X456094Y355460D01*
X456044Y355426D01*
X455986Y355387D01*
X455929Y355345D01*
X455875Y355307D01*
X455825Y355268D01*
X455821Y355264D01*
X455806Y355253D01*
X455783Y355234D01*
X455756Y355214D01*
X455702Y355157D01*
X455675Y355130D01*
X455656Y355099D01*
X455652Y355095D01*
X455649Y355088D01*
X455641Y355072D01*
X455629Y355053D01*
X455606Y355007D01*
X455587Y354949D01*
Y354946D01*
X455583Y354938D01*
Y354923D01*
X455579Y354903D01*
X455576Y354876D01*
Y354846D01*
X455572Y354807D01*
Y354377D01*
X456693D01*
Y354043D01*
X454170D01*
Y355214D01*
X454174Y355245D01*
Y355276D01*
X454178Y355353D01*
X454185Y355433D01*
X454201Y355518D01*
X454216Y355598D01*
X454228Y355637D01*
X454239Y355671D01*
Y355675D01*
X454243Y355679D01*
X454251Y355702D01*
X454270Y355733D01*
X454297Y355771D01*
X454327Y355817D01*
X454370Y355863D01*
X454420Y355909D01*
X454481Y355952D01*
X454489Y355956D01*
X454512Y355967D01*
X454546Y355986D01*
X454593Y356006D01*
X454650Y356025D01*
X454715Y356044D01*
X454784Y356055D01*
X454861Y356059D01*
X454865D01*
X454873D01*
X454888D01*
X454907Y356055D01*
X454930D01*
X454957Y356052D01*
X455019Y356036D01*
X455092Y356017D01*
X455165Y355986D01*
X455241Y355940D01*
X455280Y355913D01*
X455314Y355883D01*
X455322Y355875D01*
X455330Y355863D01*
X455345Y355852D01*
X455357Y355833D01*
X455376Y355810D01*
X455391Y355783D01*
X455410Y355752D01*
X455430Y355717D01*
X455449Y355675D01*
X455468Y355633D01*
X455487Y355583D01*
X455506Y355533D01*
X455522Y355476D01*
X455533Y355414D01*
X455545Y355349D01*
X455549Y355357D01*
X455556Y355372D01*
X455568Y355395D01*
X455583Y355422D01*
X455625Y355487D01*
X455649Y355522D01*
X455672Y355549D01*
X455679Y355556D01*
X455694Y355575D01*
X455725Y355602D01*
X455764Y355637D01*
X455814Y355679D01*
X455871Y355725D01*
X455936Y355775D01*
X456009Y355825D01*
X456693Y356263D01*
Y355844D01*
D02*
G37*
%LPC*%
G36*
X471221Y171819D02*
X470468D01*
X470426Y171815D01*
X470376Y171811D01*
X470319Y171808D01*
X470257Y171800D01*
X470200Y171788D01*
X470150Y171773D01*
X470142Y171769D01*
X470127Y171765D01*
X470104Y171754D01*
X470077Y171739D01*
X470046Y171715D01*
X470012Y171689D01*
X469981Y171658D01*
X469954Y171623D01*
X469950Y171619D01*
X469942Y171604D01*
X469931Y171585D01*
X469919Y171554D01*
X469908Y171523D01*
X469896Y171485D01*
X469889Y171443D01*
X469885Y171397D01*
Y171393D01*
Y171389D01*
Y171366D01*
X469892Y171335D01*
X469900Y171293D01*
X469915Y171247D01*
X469939Y171197D01*
X469973Y171147D01*
X470015Y171101D01*
X470023Y171097D01*
X470038Y171082D01*
X470073Y171063D01*
X470115Y171043D01*
X470173Y171020D01*
X470242Y171005D01*
X470326Y170990D01*
X470426Y170986D01*
X471221D01*
Y171819D01*
D02*
G37*
G36*
X471819Y187567D02*
X471067D01*
X471025Y187563D01*
X470975Y187559D01*
X470917Y187556D01*
X470856Y187548D01*
X470798Y187536D01*
X470748Y187521D01*
X470740Y187517D01*
X470725Y187513D01*
X470702Y187502D01*
X470675Y187487D01*
X470644Y187463D01*
X470610Y187437D01*
X470579Y187406D01*
X470552Y187371D01*
X470548Y187367D01*
X470541Y187352D01*
X470529Y187333D01*
X470518Y187302D01*
X470506Y187271D01*
X470495Y187233D01*
X470487Y187191D01*
X470483Y187145D01*
Y187141D01*
Y187137D01*
Y187114D01*
X470491Y187083D01*
X470499Y187041D01*
X470514Y186995D01*
X470537Y186945D01*
X470572Y186895D01*
X470614Y186849D01*
X470621Y186845D01*
X470637Y186830D01*
X470671Y186811D01*
X470714Y186792D01*
X470771Y186768D01*
X470840Y186753D01*
X470925Y186738D01*
X471025Y186734D01*
X471819D01*
Y187567D01*
D02*
G37*
G36*
X454289Y175286D02*
X453498Y174158D01*
X454289D01*
Y175286D01*
D02*
G37*
G36*
X448772Y187525D02*
X448020D01*
X447977Y187521D01*
X447928Y187517D01*
X447870Y187513D01*
X447808Y187506D01*
X447751Y187494D01*
X447701Y187479D01*
X447693Y187475D01*
X447678Y187471D01*
X447655Y187460D01*
X447628Y187444D01*
X447597Y187421D01*
X447563Y187394D01*
X447532Y187364D01*
X447505Y187329D01*
X447501Y187325D01*
X447494Y187310D01*
X447482Y187291D01*
X447471Y187260D01*
X447459Y187229D01*
X447447Y187191D01*
X447440Y187149D01*
X447436Y187102D01*
Y187099D01*
Y187095D01*
Y187072D01*
X447444Y187041D01*
X447451Y186999D01*
X447467Y186953D01*
X447490Y186903D01*
X447524Y186853D01*
X447567Y186807D01*
X447574Y186803D01*
X447590Y186788D01*
X447624Y186768D01*
X447666Y186749D01*
X447724Y186726D01*
X447793Y186711D01*
X447878Y186696D01*
X447977Y186692D01*
X448772D01*
Y187525D01*
D02*
G37*
G36*
X443915Y188723D02*
X443895D01*
X443880Y188719D01*
X443842Y188711D01*
X443792Y188696D01*
X443734Y188673D01*
X443677Y188638D01*
X443646Y188616D01*
X443615Y188585D01*
X443584Y188554D01*
X443558Y188520D01*
Y188516D01*
X443550Y188508D01*
X443542Y188496D01*
X443535Y188477D01*
X443523Y188454D01*
X443511Y188420D01*
X443500Y188381D01*
X443485Y188339D01*
X443469Y188285D01*
X443458Y188228D01*
X443446Y188159D01*
X443435Y188082D01*
X443423Y187997D01*
X443419Y187905D01*
X443412Y187801D01*
Y187690D01*
Y187682D01*
Y187663D01*
Y187632D01*
X443415Y187590D01*
Y187540D01*
X443419Y187483D01*
X443423Y187421D01*
X443431Y187352D01*
X443446Y187214D01*
X443473Y187079D01*
X443488Y187014D01*
X443508Y186957D01*
X443531Y186907D01*
X443558Y186864D01*
Y186861D01*
X443565Y186857D01*
X443584Y186834D01*
X443615Y186799D01*
X443657Y186761D01*
X443711Y186722D01*
X443773Y186688D01*
X443842Y186665D01*
X443880Y186661D01*
X443919Y186657D01*
X443938D01*
X443953Y186661D01*
X443992Y186665D01*
X444041Y186680D01*
X444095Y186703D01*
X444153Y186734D01*
X444210Y186780D01*
X444237Y186811D01*
X444260Y186841D01*
Y186845D01*
X444268Y186853D01*
X444276Y186868D01*
X444283Y186887D01*
X444295Y186914D01*
X444310Y186945D01*
X444326Y186987D01*
X444337Y187033D01*
X444352Y187087D01*
X444368Y187149D01*
X444379Y187218D01*
X444395Y187298D01*
X444402Y187383D01*
X444410Y187475D01*
X444418Y187579D01*
Y187690D01*
Y187698D01*
Y187717D01*
Y187748D01*
X444414Y187790D01*
Y187840D01*
X444410Y187897D01*
X444406Y187963D01*
X444398Y188028D01*
X444383Y188166D01*
X444356Y188304D01*
X444341Y188366D01*
X444322Y188424D01*
X444299Y188477D01*
X444276Y188520D01*
Y188523D01*
X444268Y188527D01*
X444249Y188550D01*
X444218Y188585D01*
X444176Y188619D01*
X444122Y188658D01*
X444061Y188692D01*
X443992Y188715D01*
X443953Y188719D01*
X443915Y188723D01*
D02*
G37*
G36*
X380338Y187805D02*
X380318D01*
X380303Y187801D01*
X380265Y187797D01*
X380215Y187786D01*
X380161Y187767D01*
X380100Y187744D01*
X380042Y187705D01*
X379988Y187655D01*
X379980Y187648D01*
X379965Y187629D01*
X379942Y187594D01*
X379915Y187548D01*
X379892Y187487D01*
X379869Y187417D01*
X379854Y187333D01*
X379846Y187241D01*
Y187237D01*
Y187229D01*
Y187214D01*
X379850Y187195D01*
Y187172D01*
X379854Y187149D01*
X379865Y187087D01*
X379881Y187018D01*
X379907Y186949D01*
X379942Y186880D01*
X379988Y186814D01*
X379996Y186807D01*
X380015Y186792D01*
X380042Y186765D01*
X380084Y186734D01*
X380134Y186707D01*
X380192Y186680D01*
X380257Y186665D01*
X380330Y186657D01*
X380349D01*
X380364Y186661D01*
X380403Y186665D01*
X380453Y186676D01*
X380510Y186699D01*
X380568Y186730D01*
X380629Y186768D01*
X380660Y186795D01*
X380691Y186826D01*
X380699Y186834D01*
X380714Y186857D01*
X380737Y186895D01*
X380764Y186945D01*
X380795Y187006D01*
X380818Y187083D01*
X380833Y187168D01*
X380841Y187264D01*
Y187268D01*
Y187275D01*
Y187287D01*
X380837Y187302D01*
X380833Y187348D01*
X380821Y187402D01*
X380806Y187467D01*
X380779Y187533D01*
X380745Y187594D01*
X380699Y187655D01*
X380691Y187663D01*
X380672Y187679D01*
X380641Y187701D01*
X380599Y187728D01*
X380545Y187759D01*
X380484Y187782D01*
X380414Y187797D01*
X380338Y187805D01*
D02*
G37*
G36*
X383237Y187525D02*
X382484D01*
X382442Y187521D01*
X382392Y187517D01*
X382334Y187513D01*
X382273Y187506D01*
X382215Y187494D01*
X382166Y187479D01*
X382158Y187475D01*
X382142Y187471D01*
X382119Y187460D01*
X382092Y187444D01*
X382062Y187421D01*
X382027Y187394D01*
X381996Y187364D01*
X381970Y187329D01*
X381966Y187325D01*
X381958Y187310D01*
X381947Y187291D01*
X381935Y187260D01*
X381924Y187229D01*
X381912Y187191D01*
X381904Y187149D01*
X381901Y187102D01*
Y187099D01*
Y187095D01*
Y187072D01*
X381908Y187041D01*
X381916Y186999D01*
X381931Y186953D01*
X381954Y186903D01*
X381989Y186853D01*
X382031Y186807D01*
X382039Y186803D01*
X382054Y186788D01*
X382089Y186768D01*
X382131Y186749D01*
X382189Y186726D01*
X382258Y186711D01*
X382342Y186696D01*
X382442Y186692D01*
X383237D01*
Y187525D01*
D02*
G37*
G36*
X382638Y171777D02*
X381886D01*
X381843Y171773D01*
X381794Y171769D01*
X381736Y171765D01*
X381675Y171758D01*
X381617Y171746D01*
X381567Y171731D01*
X381559Y171727D01*
X381544Y171723D01*
X381521Y171712D01*
X381494Y171696D01*
X381463Y171673D01*
X381429Y171646D01*
X381398Y171616D01*
X381371Y171581D01*
X381367Y171577D01*
X381360Y171562D01*
X381348Y171543D01*
X381337Y171512D01*
X381325Y171481D01*
X381314Y171443D01*
X381306Y171401D01*
X381302Y171354D01*
Y171351D01*
Y171347D01*
Y171324D01*
X381310Y171293D01*
X381317Y171251D01*
X381333Y171205D01*
X381356Y171155D01*
X381390Y171105D01*
X381433Y171059D01*
X381440Y171055D01*
X381456Y171040D01*
X381490Y171020D01*
X381533Y171001D01*
X381590Y170978D01*
X381659Y170963D01*
X381744Y170947D01*
X381843Y170944D01*
X382638D01*
Y171777D01*
D02*
G37*
G36*
X379731Y172975D02*
X379709D01*
X379693Y172971D01*
X379655Y172967D01*
X379601Y172956D01*
X379543Y172940D01*
X379482Y172914D01*
X379424Y172879D01*
X379367Y172833D01*
X379359Y172825D01*
X379344Y172806D01*
X379321Y172775D01*
X379294Y172733D01*
X379267Y172683D01*
X379244Y172618D01*
X379228Y172549D01*
X379221Y172468D01*
Y172464D01*
Y172457D01*
Y172445D01*
X379225Y172430D01*
X379228Y172391D01*
X379240Y172337D01*
X379255Y172280D01*
X379282Y172219D01*
X379321Y172157D01*
X379371Y172099D01*
X379378Y172092D01*
X379398Y172076D01*
X379428Y172053D01*
X379470Y172023D01*
X379524Y171996D01*
X379590Y171973D01*
X379662Y171957D01*
X379743Y171950D01*
X379762D01*
X379778Y171953D01*
X379820Y171957D01*
X379870Y171969D01*
X379927Y171984D01*
X379989Y172011D01*
X380046Y172046D01*
X380104Y172096D01*
X380112Y172103D01*
X380127Y172123D01*
X380150Y172153D01*
X380173Y172195D01*
X380200Y172249D01*
X380223Y172311D01*
X380238Y172384D01*
X380246Y172460D01*
Y172464D01*
Y172483D01*
X380242Y172506D01*
X380238Y172541D01*
X380231Y172579D01*
X380219Y172626D01*
X380204Y172672D01*
X380185Y172718D01*
X380181Y172722D01*
X380173Y172737D01*
X380158Y172760D01*
X380139Y172787D01*
X380112Y172818D01*
X380081Y172852D01*
X380043Y172883D01*
X380000Y172910D01*
X379993Y172914D01*
X379977Y172921D01*
X379954Y172929D01*
X379920Y172940D01*
X379877Y172956D01*
X379835Y172963D01*
X379785Y172971D01*
X379731Y172975D01*
D02*
G37*
G36*
X379735Y171696D02*
X379705D01*
X379674Y171689D01*
X379632Y171681D01*
X379586Y171669D01*
X379536Y171650D01*
X379486Y171623D01*
X379440Y171585D01*
X379436Y171581D01*
X379420Y171566D01*
X379401Y171543D01*
X379382Y171508D01*
X379359Y171470D01*
X379344Y171420D01*
X379328Y171366D01*
X379325Y171308D01*
Y171305D01*
Y171301D01*
Y171282D01*
X379332Y171247D01*
X379340Y171209D01*
X379355Y171166D01*
X379374Y171116D01*
X379405Y171070D01*
X379444Y171024D01*
X379447Y171020D01*
X379463Y171005D01*
X379490Y170986D01*
X379524Y170963D01*
X379566Y170944D01*
X379616Y170924D01*
X379670Y170909D01*
X379735Y170905D01*
X379766D01*
X379797Y170913D01*
X379839Y170921D01*
X379885Y170932D01*
X379935Y170955D01*
X379985Y170982D01*
X380031Y171020D01*
X380035Y171024D01*
X380050Y171040D01*
X380066Y171066D01*
X380089Y171097D01*
X380108Y171136D01*
X380127Y171186D01*
X380142Y171235D01*
X380146Y171293D01*
Y171301D01*
Y171324D01*
X380139Y171354D01*
X380131Y171397D01*
X380119Y171443D01*
X380100Y171489D01*
X380073Y171539D01*
X380035Y171585D01*
X380031Y171589D01*
X380016Y171600D01*
X379989Y171619D01*
X379954Y171639D01*
X379912Y171662D01*
X379858Y171677D01*
X379801Y171692D01*
X379735Y171696D01*
D02*
G37*
G36*
X360190Y187567D02*
X359437D01*
X359395Y187563D01*
X359345Y187559D01*
X359287Y187556D01*
X359226Y187548D01*
X359168Y187536D01*
X359118Y187521D01*
X359111Y187517D01*
X359095Y187513D01*
X359072Y187502D01*
X359045Y187487D01*
X359015Y187463D01*
X358980Y187437D01*
X358949Y187406D01*
X358922Y187371D01*
X358919Y187367D01*
X358911Y187352D01*
X358899Y187333D01*
X358888Y187302D01*
X358876Y187271D01*
X358865Y187233D01*
X358857Y187191D01*
X358853Y187145D01*
Y187141D01*
Y187137D01*
Y187114D01*
X358861Y187083D01*
X358869Y187041D01*
X358884Y186995D01*
X358907Y186945D01*
X358942Y186895D01*
X358984Y186849D01*
X358992Y186845D01*
X359007Y186830D01*
X359041Y186811D01*
X359084Y186792D01*
X359141Y186768D01*
X359210Y186753D01*
X359295Y186738D01*
X359395Y186734D01*
X360190D01*
Y187567D01*
D02*
G37*
G36*
X276339Y171777D02*
X275587D01*
X275544Y171773D01*
X275494Y171769D01*
X275437Y171765D01*
X275375Y171758D01*
X275318Y171746D01*
X275268Y171731D01*
X275260Y171727D01*
X275245Y171723D01*
X275222Y171712D01*
X275195Y171696D01*
X275164Y171673D01*
X275130Y171646D01*
X275099Y171616D01*
X275072Y171581D01*
X275068Y171577D01*
X275061Y171562D01*
X275049Y171543D01*
X275037Y171512D01*
X275026Y171481D01*
X275014Y171443D01*
X275007Y171401D01*
X275003Y171354D01*
Y171351D01*
Y171347D01*
Y171324D01*
X275011Y171293D01*
X275018Y171251D01*
X275034Y171205D01*
X275057Y171155D01*
X275091Y171105D01*
X275133Y171059D01*
X275141Y171055D01*
X275156Y171040D01*
X275191Y171020D01*
X275233Y171001D01*
X275291Y170978D01*
X275360Y170963D01*
X275445Y170947D01*
X275544Y170944D01*
X276339D01*
Y171777D01*
D02*
G37*
G36*
X276938Y187525D02*
X276185D01*
X276143Y187521D01*
X276093Y187517D01*
X276035Y187513D01*
X275974Y187506D01*
X275916Y187494D01*
X275866Y187479D01*
X275859Y187475D01*
X275843Y187471D01*
X275820Y187460D01*
X275793Y187444D01*
X275763Y187421D01*
X275728Y187394D01*
X275697Y187364D01*
X275670Y187329D01*
X275667Y187325D01*
X275659Y187310D01*
X275647Y187291D01*
X275636Y187260D01*
X275624Y187229D01*
X275613Y187191D01*
X275605Y187149D01*
X275601Y187102D01*
Y187099D01*
Y187095D01*
Y187072D01*
X275609Y187041D01*
X275617Y186999D01*
X275632Y186953D01*
X275655Y186903D01*
X275690Y186853D01*
X275732Y186807D01*
X275740Y186803D01*
X275755Y186788D01*
X275789Y186768D01*
X275832Y186749D01*
X275889Y186726D01*
X275958Y186711D01*
X276043Y186696D01*
X276143Y186692D01*
X276938D01*
Y187525D01*
D02*
G37*
G36*
X274008Y188723D02*
X273989D01*
X273973Y188719D01*
X273939Y188715D01*
X273889Y188704D01*
X273839Y188685D01*
X273781Y188658D01*
X273724Y188619D01*
X273670Y188566D01*
X273662Y188558D01*
X273647Y188535D01*
X273624Y188500D01*
X273597Y188454D01*
X273574Y188393D01*
X273551Y188316D01*
X273535Y188231D01*
X273528Y188135D01*
Y188132D01*
Y188124D01*
Y188109D01*
X273532Y188093D01*
Y188070D01*
X273535Y188043D01*
X273543Y187986D01*
X273562Y187920D01*
X273585Y187851D01*
X273620Y187786D01*
X273666Y187725D01*
X273674Y187717D01*
X273689Y187701D01*
X273720Y187675D01*
X273762Y187648D01*
X273812Y187621D01*
X273873Y187594D01*
X273942Y187579D01*
X274019Y187571D01*
X274038D01*
X274054Y187575D01*
X274092Y187579D01*
X274142Y187590D01*
X274196Y187609D01*
X274257Y187636D01*
X274315Y187675D01*
X274373Y187725D01*
X274380Y187732D01*
X274395Y187751D01*
X274419Y187786D01*
X274445Y187828D01*
X274472Y187886D01*
X274495Y187955D01*
X274511Y188032D01*
X274518Y188120D01*
Y188128D01*
Y188147D01*
X274515Y188178D01*
X274511Y188216D01*
X274503Y188266D01*
X274492Y188316D01*
X274476Y188370D01*
X274453Y188427D01*
X274449Y188435D01*
X274442Y188450D01*
X274426Y188477D01*
X274403Y188508D01*
X274376Y188546D01*
X274346Y188581D01*
X274307Y188619D01*
X274265Y188650D01*
X274261Y188654D01*
X274242Y188662D01*
X274219Y188673D01*
X274188Y188685D01*
X274150Y188700D01*
X274104Y188711D01*
X274058Y188719D01*
X274008Y188723D01*
D02*
G37*
G36*
X255572Y187567D02*
X254819D01*
X254777Y187563D01*
X254727Y187559D01*
X254669Y187556D01*
X254608Y187548D01*
X254550Y187536D01*
X254500Y187521D01*
X254492Y187517D01*
X254477Y187513D01*
X254454Y187502D01*
X254427Y187487D01*
X254396Y187463D01*
X254362Y187437D01*
X254331Y187406D01*
X254304Y187371D01*
X254300Y187367D01*
X254293Y187352D01*
X254281Y187333D01*
X254270Y187302D01*
X254258Y187271D01*
X254247Y187233D01*
X254239Y187191D01*
X254235Y187145D01*
Y187141D01*
Y187137D01*
Y187114D01*
X254243Y187083D01*
X254251Y187041D01*
X254266Y186995D01*
X254289Y186945D01*
X254324Y186895D01*
X254366Y186849D01*
X254373Y186845D01*
X254389Y186830D01*
X254423Y186811D01*
X254466Y186792D01*
X254523Y186768D01*
X254592Y186753D01*
X254677Y186738D01*
X254777Y186734D01*
X255572D01*
Y187567D01*
D02*
G37*
G36*
X253294Y188089D02*
X252503D01*
Y186960D01*
X253294Y188089D01*
D02*
G37*
G36*
X188386Y171819D02*
X187634D01*
X187592Y171815D01*
X187542Y171811D01*
X187484Y171808D01*
X187423Y171800D01*
X187365Y171788D01*
X187315Y171773D01*
X187307Y171769D01*
X187292Y171765D01*
X187269Y171754D01*
X187242Y171739D01*
X187211Y171715D01*
X187177Y171689D01*
X187146Y171658D01*
X187119Y171623D01*
X187115Y171619D01*
X187108Y171604D01*
X187096Y171585D01*
X187085Y171554D01*
X187073Y171523D01*
X187062Y171485D01*
X187054Y171443D01*
X187050Y171397D01*
Y171393D01*
Y171389D01*
Y171366D01*
X187058Y171335D01*
X187065Y171293D01*
X187081Y171247D01*
X187104Y171197D01*
X187138Y171147D01*
X187181Y171101D01*
X187188Y171097D01*
X187204Y171082D01*
X187238Y171063D01*
X187280Y171043D01*
X187338Y171020D01*
X187407Y171005D01*
X187492Y170990D01*
X187592Y170986D01*
X188386D01*
Y171819D01*
D02*
G37*
G36*
X188985Y187525D02*
X188232D01*
X188190Y187521D01*
X188140Y187517D01*
X188082Y187513D01*
X188021Y187506D01*
X187963Y187494D01*
X187914Y187479D01*
X187906Y187475D01*
X187890Y187471D01*
X187867Y187460D01*
X187840Y187444D01*
X187810Y187421D01*
X187775Y187394D01*
X187744Y187364D01*
X187718Y187329D01*
X187714Y187325D01*
X187706Y187310D01*
X187695Y187291D01*
X187683Y187260D01*
X187672Y187229D01*
X187660Y187191D01*
X187652Y187149D01*
X187648Y187102D01*
Y187099D01*
Y187095D01*
Y187072D01*
X187656Y187041D01*
X187664Y186999D01*
X187679Y186953D01*
X187702Y186903D01*
X187737Y186853D01*
X187779Y186807D01*
X187787Y186803D01*
X187802Y186788D01*
X187837Y186768D01*
X187879Y186749D01*
X187936Y186726D01*
X188006Y186711D01*
X188090Y186696D01*
X188190Y186692D01*
X188985D01*
Y187525D01*
D02*
G37*
G36*
X167619Y187567D02*
X166866D01*
X166824Y187563D01*
X166774Y187559D01*
X166716Y187556D01*
X166655Y187548D01*
X166597Y187536D01*
X166547Y187521D01*
X166540Y187517D01*
X166524Y187513D01*
X166501Y187502D01*
X166474Y187487D01*
X166444Y187463D01*
X166409Y187437D01*
X166378Y187406D01*
X166351Y187371D01*
X166348Y187367D01*
X166340Y187352D01*
X166329Y187333D01*
X166317Y187302D01*
X166305Y187271D01*
X166294Y187233D01*
X166286Y187191D01*
X166282Y187145D01*
Y187141D01*
Y187137D01*
Y187114D01*
X166290Y187083D01*
X166298Y187041D01*
X166313Y186995D01*
X166336Y186945D01*
X166371Y186895D01*
X166413Y186849D01*
X166421Y186845D01*
X166436Y186830D01*
X166471Y186811D01*
X166513Y186792D01*
X166570Y186768D01*
X166639Y186753D01*
X166724Y186738D01*
X166824Y186734D01*
X167619D01*
Y187567D01*
D02*
G37*
G36*
X447167Y263733D02*
X446333D01*
Y262980D01*
X446337Y262938D01*
X446341Y262888D01*
X446345Y262830D01*
X446353Y262769D01*
X446364Y262712D01*
X446379Y262662D01*
X446383Y262654D01*
X446387Y262638D01*
X446399Y262615D01*
X446414Y262589D01*
X446437Y262558D01*
X446464Y262523D01*
X446495Y262493D01*
X446529Y262466D01*
X446533Y262462D01*
X446548Y262454D01*
X446568Y262443D01*
X446598Y262431D01*
X446629Y262420D01*
X446667Y262408D01*
X446710Y262400D01*
X446756Y262397D01*
X446760D01*
X446763D01*
X446786D01*
X446817Y262404D01*
X446859Y262412D01*
X446906Y262427D01*
X446955Y262450D01*
X447005Y262485D01*
X447051Y262527D01*
X447055Y262535D01*
X447071Y262550D01*
X447090Y262585D01*
X447109Y262627D01*
X447132Y262685D01*
X447147Y262754D01*
X447163Y262838D01*
X447167Y262938D01*
Y263733D01*
D02*
G37*
G36*
X458935D02*
X458102D01*
Y262980D01*
X458106Y262938D01*
X458110Y262888D01*
X458114Y262830D01*
X458121Y262769D01*
X458133Y262712D01*
X458148Y262662D01*
X458152Y262654D01*
X458156Y262638D01*
X458167Y262615D01*
X458183Y262589D01*
X458206Y262558D01*
X458233Y262523D01*
X458263Y262493D01*
X458298Y262466D01*
X458302Y262462D01*
X458317Y262454D01*
X458336Y262443D01*
X458367Y262431D01*
X458398Y262420D01*
X458436Y262408D01*
X458478Y262400D01*
X458525Y262397D01*
X458528D01*
X458532D01*
X458555D01*
X458586Y262404D01*
X458628Y262412D01*
X458674Y262427D01*
X458724Y262450D01*
X458774Y262485D01*
X458820Y262527D01*
X458824Y262535D01*
X458839Y262550D01*
X458859Y262585D01*
X458878Y262627D01*
X458901Y262685D01*
X458916Y262754D01*
X458932Y262838D01*
X458935Y262938D01*
Y263733D01*
D02*
G37*
G36*
X457580Y259497D02*
Y258706D01*
X458709D01*
X457580Y259497D01*
D02*
G37*
G36*
X470789Y263733D02*
X469955D01*
Y262980D01*
X469959Y262938D01*
X469963Y262888D01*
X469967Y262830D01*
X469975Y262769D01*
X469986Y262712D01*
X470002Y262662D01*
X470005Y262654D01*
X470009Y262638D01*
X470021Y262615D01*
X470036Y262589D01*
X470059Y262558D01*
X470086Y262523D01*
X470117Y262493D01*
X470151Y262466D01*
X470155Y262462D01*
X470170Y262454D01*
X470190Y262443D01*
X470220Y262431D01*
X470251Y262420D01*
X470290Y262408D01*
X470332Y262400D01*
X470378Y262397D01*
X470382D01*
X470386D01*
X470408D01*
X470439Y262404D01*
X470481Y262412D01*
X470528Y262427D01*
X470577Y262450D01*
X470627Y262485D01*
X470674Y262527D01*
X470677Y262535D01*
X470693Y262550D01*
X470712Y262585D01*
X470731Y262627D01*
X470754Y262685D01*
X470770Y262754D01*
X470785Y262838D01*
X470789Y262938D01*
Y263733D01*
D02*
G37*
G36*
X477505Y359746D02*
X477502D01*
X477494D01*
X477479D01*
X477463Y359742D01*
X477440D01*
X477413Y359738D01*
X477356Y359730D01*
X477290Y359711D01*
X477221Y359688D01*
X477156Y359653D01*
X477095Y359607D01*
X477087Y359600D01*
X477072Y359584D01*
X477045Y359554D01*
X477018Y359511D01*
X476991Y359461D01*
X476964Y359400D01*
X476949Y359331D01*
X476941Y359254D01*
Y359235D01*
X476945Y359220D01*
X476949Y359181D01*
X476960Y359131D01*
X476979Y359078D01*
X477006Y359016D01*
X477045Y358958D01*
X477095Y358901D01*
X477102Y358893D01*
X477121Y358878D01*
X477156Y358855D01*
X477198Y358828D01*
X477256Y358801D01*
X477325Y358778D01*
X477402Y358763D01*
X477490Y358755D01*
X477498D01*
X477517D01*
X477548Y358759D01*
X477586Y358763D01*
X477636Y358770D01*
X477686Y358782D01*
X477740Y358797D01*
X477797Y358820D01*
X477805Y358824D01*
X477820Y358832D01*
X477847Y358847D01*
X477878Y358870D01*
X477916Y358897D01*
X477951Y358928D01*
X477989Y358966D01*
X478020Y359008D01*
X478024Y359012D01*
X478032Y359031D01*
X478043Y359054D01*
X478055Y359085D01*
X478070Y359123D01*
X478082Y359170D01*
X478089Y359216D01*
X478093Y359266D01*
Y359285D01*
X478089Y359300D01*
X478085Y359335D01*
X478074Y359385D01*
X478055Y359435D01*
X478028Y359492D01*
X477989Y359550D01*
X477936Y359604D01*
X477928Y359611D01*
X477905Y359627D01*
X477870Y359650D01*
X477824Y359677D01*
X477763Y359700D01*
X477686Y359723D01*
X477601Y359738D01*
X477505Y359746D01*
D02*
G37*
G36*
X476473Y355714D02*
X476469D01*
X476465D01*
X476442D01*
X476411Y355706D01*
X476369Y355698D01*
X476323Y355683D01*
X476273Y355660D01*
X476223Y355625D01*
X476177Y355583D01*
X476173Y355575D01*
X476158Y355560D01*
X476138Y355525D01*
X476119Y355483D01*
X476096Y355426D01*
X476081Y355357D01*
X476065Y355272D01*
X476062Y355172D01*
Y354377D01*
X476895D01*
Y355130D01*
X476891Y355172D01*
X476887Y355222D01*
X476884Y355280D01*
X476876Y355341D01*
X476864Y355399D01*
X476849Y355449D01*
X476845Y355456D01*
X476841Y355472D01*
X476830Y355495D01*
X476814Y355522D01*
X476791Y355552D01*
X476764Y355587D01*
X476734Y355618D01*
X476699Y355644D01*
X476695Y355648D01*
X476680Y355656D01*
X476661Y355667D01*
X476630Y355679D01*
X476599Y355691D01*
X476561Y355702D01*
X476519Y355710D01*
X476473Y355714D01*
D02*
G37*
G36*
X442962Y359650D02*
X442958D01*
X442954D01*
X442935D01*
X442901Y359642D01*
X442862Y359634D01*
X442820Y359619D01*
X442770Y359600D01*
X442724Y359569D01*
X442678Y359531D01*
X442674Y359527D01*
X442659Y359511D01*
X442639Y359485D01*
X442616Y359450D01*
X442597Y359408D01*
X442578Y359358D01*
X442563Y359304D01*
X442559Y359239D01*
Y359208D01*
X442566Y359177D01*
X442574Y359135D01*
X442586Y359089D01*
X442609Y359039D01*
X442635Y358989D01*
X442674Y358943D01*
X442678Y358939D01*
X442693Y358924D01*
X442720Y358909D01*
X442751Y358886D01*
X442789Y358866D01*
X442839Y358847D01*
X442889Y358832D01*
X442947Y358828D01*
X442954D01*
X442977D01*
X443008Y358836D01*
X443050Y358843D01*
X443096Y358855D01*
X443142Y358874D01*
X443192Y358901D01*
X443238Y358939D01*
X443242Y358943D01*
X443254Y358958D01*
X443273Y358985D01*
X443292Y359020D01*
X443315Y359062D01*
X443331Y359116D01*
X443346Y359173D01*
X443350Y359239D01*
Y359269D01*
X443342Y359300D01*
X443334Y359342D01*
X443323Y359388D01*
X443304Y359438D01*
X443277Y359488D01*
X443238Y359534D01*
X443235Y359538D01*
X443219Y359554D01*
X443196Y359573D01*
X443162Y359592D01*
X443123Y359615D01*
X443073Y359630D01*
X443019Y359646D01*
X442962Y359650D01*
D02*
G37*
G36*
X444122Y359753D02*
X444118D01*
X444110D01*
X444099D01*
X444083Y359750D01*
X444045Y359746D01*
X443991Y359734D01*
X443933Y359719D01*
X443872Y359692D01*
X443811Y359653D01*
X443753Y359604D01*
X443745Y359596D01*
X443730Y359577D01*
X443707Y359546D01*
X443676Y359504D01*
X443649Y359450D01*
X443626Y359385D01*
X443611Y359312D01*
X443603Y359231D01*
Y359212D01*
X443607Y359196D01*
X443611Y359154D01*
X443622Y359104D01*
X443638Y359047D01*
X443665Y358985D01*
X443699Y358928D01*
X443749Y358870D01*
X443757Y358862D01*
X443776Y358847D01*
X443807Y358824D01*
X443849Y358801D01*
X443903Y358774D01*
X443964Y358751D01*
X444037Y358736D01*
X444114Y358728D01*
X444118D01*
X444137D01*
X444160Y358732D01*
X444195Y358736D01*
X444233Y358743D01*
X444279Y358755D01*
X444325Y358770D01*
X444371Y358789D01*
X444375Y358793D01*
X444390Y358801D01*
X444414Y358816D01*
X444440Y358836D01*
X444471Y358862D01*
X444506Y358893D01*
X444536Y358932D01*
X444563Y358974D01*
X444567Y358981D01*
X444575Y358997D01*
X444582Y359020D01*
X444594Y359054D01*
X444609Y359097D01*
X444617Y359139D01*
X444625Y359189D01*
X444628Y359243D01*
Y359266D01*
X444625Y359281D01*
X444621Y359319D01*
X444609Y359373D01*
X444594Y359431D01*
X444567Y359492D01*
X444532Y359550D01*
X444486Y359607D01*
X444479Y359615D01*
X444459Y359630D01*
X444429Y359653D01*
X444387Y359680D01*
X444337Y359707D01*
X444271Y359730D01*
X444202Y359746D01*
X444122Y359753D01*
D02*
G37*
G36*
X443008Y355714D02*
X443004D01*
X443000D01*
X442977D01*
X442947Y355706D01*
X442904Y355698D01*
X442858Y355683D01*
X442808Y355660D01*
X442758Y355625D01*
X442712Y355583D01*
X442708Y355575D01*
X442693Y355560D01*
X442674Y355525D01*
X442655Y355483D01*
X442632Y355426D01*
X442616Y355357D01*
X442601Y355272D01*
X442597Y355172D01*
Y354377D01*
X443430D01*
Y355130D01*
X443427Y355172D01*
X443423Y355222D01*
X443419Y355280D01*
X443411Y355341D01*
X443400Y355399D01*
X443384Y355449D01*
X443380Y355456D01*
X443377Y355472D01*
X443365Y355495D01*
X443350Y355522D01*
X443327Y355552D01*
X443300Y355587D01*
X443269Y355618D01*
X443235Y355644D01*
X443231Y355648D01*
X443215Y355656D01*
X443196Y355668D01*
X443165Y355679D01*
X443135Y355691D01*
X443096Y355702D01*
X443054Y355710D01*
X443008Y355714D01*
D02*
G37*
G36*
X454861D02*
X454857D01*
X454854D01*
X454831D01*
X454800Y355706D01*
X454758Y355698D01*
X454711Y355683D01*
X454662Y355660D01*
X454612Y355625D01*
X454566Y355583D01*
X454562Y355575D01*
X454546Y355560D01*
X454527Y355525D01*
X454508Y355483D01*
X454485Y355426D01*
X454470Y355357D01*
X454454Y355272D01*
X454450Y355172D01*
Y354377D01*
X455284D01*
Y355130D01*
X455280Y355172D01*
X455276Y355222D01*
X455272Y355280D01*
X455265Y355341D01*
X455253Y355399D01*
X455238Y355449D01*
X455234Y355456D01*
X455230Y355472D01*
X455218Y355495D01*
X455203Y355522D01*
X455180Y355552D01*
X455153Y355587D01*
X455122Y355618D01*
X455088Y355644D01*
X455084Y355648D01*
X455069Y355656D01*
X455049Y355668D01*
X455019Y355679D01*
X454988Y355691D01*
X454950Y355702D01*
X454907Y355710D01*
X454861Y355714D01*
D02*
G37*
%LPD*%
D10*
X479035Y169291D02*
Y177165D01*
X464075D02*
X479035D01*
X464075Y169291D02*
Y177165D01*
Y169291D02*
X479035D01*
X480839Y184720D02*
Y193233D01*
X463468D02*
X480839D01*
X463468Y184720D02*
Y193233D01*
Y184720D02*
X480839D01*
X442905Y169095D02*
Y177362D01*
Y169095D02*
X458670D01*
Y177362D01*
X442905D02*
X458670D01*
X457792Y184720D02*
Y193233D01*
X440421D02*
X457792D01*
X440421Y184720D02*
Y193233D01*
Y184720D02*
X457792D01*
X392256D02*
Y193233D01*
X374886D02*
X392256D01*
X374886Y184720D02*
Y193233D01*
Y184720D02*
X392256D01*
X390453Y169291D02*
Y177165D01*
X375492D02*
X390453D01*
X375492Y169291D02*
Y177165D01*
Y169291D02*
X390453D01*
X354323Y169095D02*
Y177362D01*
Y169095D02*
X370087D01*
Y177362D01*
X354323D02*
X370087D01*
X369209Y184720D02*
Y193233D01*
X351838D02*
X369209D01*
X351838Y184720D02*
Y193233D01*
Y184720D02*
X369209D01*
X284154Y169291D02*
Y177165D01*
X269193D02*
X284154D01*
X269193Y169291D02*
Y177165D01*
Y169291D02*
X284154D01*
X285957Y184720D02*
Y193233D01*
X268586D02*
X285957D01*
X268586Y184720D02*
Y193233D01*
Y184720D02*
X285957D01*
X249107Y169095D02*
Y177362D01*
Y169095D02*
X264872D01*
Y177362D01*
X249107D02*
X264872D01*
X264591Y184720D02*
Y193233D01*
X247220D02*
X264591D01*
X247220Y184720D02*
Y193233D01*
Y184720D02*
X264591D01*
X196201Y169291D02*
Y177165D01*
X181240D02*
X196201D01*
X181240Y169291D02*
Y177165D01*
Y169291D02*
X196201D01*
X198004Y184720D02*
Y193233D01*
X180634D02*
X198004D01*
X180634Y184720D02*
Y193233D01*
Y184720D02*
X198004D01*
X161155Y169095D02*
Y177362D01*
Y169095D02*
X176919D01*
Y177362D01*
X161155D02*
X176919D01*
X176638Y184720D02*
Y193233D01*
X159267D02*
X176638D01*
X159267Y184720D02*
Y193233D01*
Y184720D02*
X176638D01*
X431004Y335433D02*
X480807D01*
X431004Y284055D02*
Y335433D01*
Y284055D02*
X480807D01*
Y335433D01*
X440626Y272752D02*
X449138D01*
X440626Y255382D02*
Y272752D01*
Y255382D02*
X449138D01*
Y272752D01*
X452437D02*
X460949D01*
X452437Y255382D02*
Y272752D01*
Y255382D02*
X460949D01*
Y272752D01*
X464248D02*
X472760D01*
X464248Y255382D02*
Y272752D01*
Y255382D02*
X472760D01*
Y272752D01*
X474090Y345358D02*
X482603D01*
Y362729D01*
X474090D02*
X482603D01*
X474090Y345358D02*
Y362729D01*
X440626Y345358D02*
X449138D01*
Y362729D01*
X440626D02*
X449138D01*
X440626Y345358D02*
Y362729D01*
X452437Y345358D02*
X460949D01*
Y362729D01*
X452437D02*
X460949D01*
X452437Y345358D02*
Y362729D01*
M02*
