G04*
G04 #@! TF.GenerationSoftware,Altium Limited,Altium Designer,25.1.2 (22)*
G04*
G04 Layer_Color=255*
%FSLAX25Y25*%
%MOIN*%
G70*
G04*
G04 #@! TF.SameCoordinates,8C14AA3A-0FC9-406D-BE4B-2EB75CFADBCC*
G04*
G04*
G04 #@! TF.FilePolarity,Positive*
G04*
G01*
G75*
%ADD24R,0.05906X0.05906*%
%ADD38C,0.07000*%
%ADD39R,0.05504X0.05504*%
%ADD40C,0.05504*%
%ADD41C,0.11811*%
%ADD42C,0.05906*%
D24*
X267717Y221969D02*
D03*
D38*
X191339Y287402D02*
D03*
X201339D02*
D03*
X211339D02*
D03*
X221339D02*
D03*
X341339D02*
D03*
X331339D02*
D03*
X321339D02*
D03*
X311339D02*
D03*
X301339D02*
D03*
X291339D02*
D03*
X281339D02*
D03*
X271339D02*
D03*
X261339D02*
D03*
X251339D02*
D03*
X241339D02*
D03*
X231339D02*
D03*
X341339Y367402D02*
D03*
X331339D02*
D03*
X321339D02*
D03*
X311339D02*
D03*
X301339D02*
D03*
X291339D02*
D03*
X281339D02*
D03*
X271339D02*
D03*
X261339D02*
D03*
X251339D02*
D03*
X241339D02*
D03*
X231339D02*
D03*
D39*
X466221Y157795D02*
D03*
X377638D02*
D03*
X271339D02*
D03*
X183386D02*
D03*
D40*
X476221D02*
D03*
X387638D02*
D03*
X281339D02*
D03*
X193386D02*
D03*
D41*
X446220Y137795D02*
D03*
X486221D02*
D03*
X357638D02*
D03*
X397638D02*
D03*
X251339D02*
D03*
X291339D02*
D03*
X163386D02*
D03*
X203386D02*
D03*
D42*
X327716Y251969D02*
D03*
X317717D02*
D03*
X307716D02*
D03*
X297716D02*
D03*
X287717D02*
D03*
X277716D02*
D03*
X267717D02*
D03*
X327716Y221969D02*
D03*
X317717D02*
D03*
X307716D02*
D03*
X297716D02*
D03*
X287717D02*
D03*
X277716D02*
D03*
M02*
