G04*
G04 #@! TF.GenerationSoftware,Altium Limited,Altium Designer,25.1.2 (22)*
G04*
G04 Layer_Color=0*
%FSLAX25Y25*%
%MOIN*%
G70*
G04*
G04 #@! TF.SameCoordinates,8C14AA3A-0FC9-406D-BE4B-2EB75CFADBCC*
G04*
G04*
G04 #@! TF.FilePolarity,Positive*
G04*
G01*
G75*
%ADD45C,0.00394*%
D45*
X471555Y171260D02*
Y175197D01*
X469587Y173228D02*
X473524D01*
X472154Y187008D02*
Y190945D01*
X470185Y188976D02*
X474122D01*
X450787Y171260D02*
Y175197D01*
X448819Y173228D02*
X452756D01*
X449106Y187008D02*
Y190945D01*
X447138Y188976D02*
X451075D01*
X383571Y187008D02*
Y190945D01*
X381602Y188976D02*
X385539D01*
X382972Y171260D02*
Y175197D01*
X381004Y173228D02*
X384941D01*
X362205Y171260D02*
Y175197D01*
X360236Y173228D02*
X364173D01*
X360524Y187008D02*
Y190945D01*
X358555Y188976D02*
X362492D01*
X276673Y171260D02*
Y175197D01*
X274705Y173228D02*
X278642D01*
X277272Y187008D02*
Y190945D01*
X275303Y188976D02*
X279240D01*
X256990Y171260D02*
Y175197D01*
X255021Y173228D02*
X258958D01*
X255906Y187008D02*
Y190945D01*
X253937Y188976D02*
X257874D01*
X188721Y171260D02*
Y175197D01*
X186752Y173228D02*
X190689D01*
X189319Y187008D02*
Y190945D01*
X187350Y188976D02*
X191287D01*
X169037Y171260D02*
Y175197D01*
X167068Y173228D02*
X171005D01*
X167953Y187008D02*
Y190945D01*
X165984Y188976D02*
X169921D01*
X453937Y309646D02*
X457874D01*
X455905Y307677D02*
Y311614D01*
X442913Y264067D02*
X446850D01*
X444882Y262099D02*
Y266035D01*
X454724Y264067D02*
X458661D01*
X456693Y262099D02*
Y266035D01*
X466535Y264067D02*
X470472D01*
X468504Y262099D02*
Y266035D01*
X476378Y354043D02*
X480315D01*
X478346Y352075D02*
Y356012D01*
X442913Y354043D02*
X446850D01*
X444882Y352075D02*
Y356012D01*
X454724Y354043D02*
X458661D01*
X456693Y352075D02*
Y356012D01*
M02*
