M48
;Layer_Color=9474304
;FILE_FORMAT=2:4
INCH,LZ
;TYPE=PLATED
T01F00S00C0.0280
T02F00S00C0.0350
T03F00S00C0.0354
T04F00S00C0.0394
T05F00S00C0.0787
%
T01
X042726Y031841
T02
X047622Y01578
X046622
X038764
X037764
X028134
X027134
X019339
X018339
T03
X031772Y022197
X032772
Y025197
X031772
X030772
X029772
X028772
X027772
X026772
Y022197
X027772
X028772
X029772
X030772
T04
X032134Y02874
X033134
X034134
X031134
X030134
X029134
X028134
X027134
X026134
X025134
X024134
X023134
X022134
X021134
X020134
X019134
X023134Y03674
X024134
X025134
X026134
X027134
X028134
X029134
X030134
X031134
X032134
X033134
X034134
T05
X016339Y01378
X020339
X025134
X029134
X035764
X039764
X044622
X048622
M30
