G04*
G04 #@! TF.GenerationSoftware,Altium Limited,Altium Designer,25.1.2 (22)*
G04*
G04 Layer_Color=32768*
%FSLAX25Y25*%
%MOIN*%
G70*
G04*
G04 #@! TF.SameCoordinates,8C14AA3A-0FC9-406D-BE4B-2EB75CFADBCC*
G04*
G04*
G04 #@! TF.FilePolarity,Positive*
G04*
G01*
G75*
%ADD10C,0.00787*%
%ADD45C,0.00394*%
%ADD46C,0.00197*%
D10*
X479035Y169291D02*
Y177165D01*
X464075D02*
X479035D01*
X464075Y169291D02*
Y177165D01*
Y169291D02*
X479035D01*
X480839Y184720D02*
Y193233D01*
X463468D02*
X480839D01*
X463468Y184720D02*
Y193233D01*
Y184720D02*
X480839D01*
X442905Y169095D02*
Y177362D01*
Y169095D02*
X458670D01*
Y177362D01*
X442905D02*
X458670D01*
X457792Y184720D02*
Y193233D01*
X440421D02*
X457792D01*
X440421Y184720D02*
Y193233D01*
Y184720D02*
X457792D01*
X392256D02*
Y193233D01*
X374886D02*
X392256D01*
X374886Y184720D02*
Y193233D01*
Y184720D02*
X392256D01*
X390453Y169291D02*
Y177165D01*
X375492D02*
X390453D01*
X375492Y169291D02*
Y177165D01*
Y169291D02*
X390453D01*
X354323Y169095D02*
Y177362D01*
Y169095D02*
X370087D01*
Y177362D01*
X354323D02*
X370087D01*
X369209Y184720D02*
Y193233D01*
X351838D02*
X369209D01*
X351838Y184720D02*
Y193233D01*
Y184720D02*
X369209D01*
X284154Y169291D02*
Y177165D01*
X269193D02*
X284154D01*
X269193Y169291D02*
Y177165D01*
Y169291D02*
X284154D01*
X285957Y184720D02*
Y193233D01*
X268586D02*
X285957D01*
X268586Y184720D02*
Y193233D01*
Y184720D02*
X285957D01*
X249107Y169095D02*
Y177362D01*
Y169095D02*
X264872D01*
Y177362D01*
X249107D02*
X264872D01*
X264591Y184720D02*
Y193233D01*
X247220D02*
X264591D01*
X247220Y184720D02*
Y193233D01*
Y184720D02*
X264591D01*
X196201Y169291D02*
Y177165D01*
X181240D02*
X196201D01*
X181240Y169291D02*
Y177165D01*
Y169291D02*
X196201D01*
X198004Y184720D02*
Y193233D01*
X180634D02*
X198004D01*
X180634Y184720D02*
Y193233D01*
Y184720D02*
X198004D01*
X161155Y169095D02*
Y177362D01*
Y169095D02*
X176919D01*
Y177362D01*
X161155D02*
X176919D01*
X176638Y184720D02*
Y193233D01*
X159267D02*
X176638D01*
X159267Y184720D02*
Y193233D01*
Y184720D02*
X176638D01*
X431004Y335433D02*
X480807D01*
X431004Y284055D02*
Y335433D01*
Y284055D02*
X480807D01*
Y335433D01*
X440626Y272752D02*
X449138D01*
X440626Y255382D02*
Y272752D01*
Y255382D02*
X449138D01*
Y272752D01*
X452437D02*
X460949D01*
X452437Y255382D02*
Y272752D01*
Y255382D02*
X460949D01*
Y272752D01*
X464248D02*
X472760D01*
X464248Y255382D02*
Y272752D01*
Y255382D02*
X472760D01*
Y272752D01*
X474090Y345358D02*
X482603D01*
Y362729D01*
X474090D02*
X482603D01*
X474090Y345358D02*
Y362729D01*
X440626Y345358D02*
X449138D01*
Y362729D01*
X440626D02*
X449138D01*
X440626Y345358D02*
Y362729D01*
X452437Y345358D02*
X460949D01*
Y362729D01*
X452437D02*
X460949D01*
X452437Y345358D02*
Y362729D01*
D45*
X246063Y236221D02*
X250000D01*
X248031Y234252D02*
Y238189D01*
X295748Y236968D02*
X299685D01*
X297716Y235000D02*
Y238937D01*
X465846Y353937D02*
X469783D01*
X467815Y351969D02*
Y355906D01*
D46*
X436201Y161693D02*
X496240D01*
Y102874D02*
Y161693D01*
Y102874D02*
X498504D01*
Y20984D02*
Y102874D01*
X433937Y20984D02*
X498504D01*
X433937D02*
Y102874D01*
X436201D01*
Y161693D01*
X347618D02*
X407657D01*
Y102874D02*
Y161693D01*
Y102874D02*
X409921D01*
Y20984D02*
Y102874D01*
X345354Y20984D02*
X409921D01*
X345354D02*
Y102874D01*
X347618D01*
Y161693D01*
X241319D02*
X301358D01*
Y102874D02*
Y161693D01*
Y102874D02*
X303622D01*
Y20984D02*
Y102874D01*
X239055Y20984D02*
X303622D01*
X239055D02*
Y102874D01*
X241319D01*
Y161693D01*
X153366D02*
X213405D01*
Y102874D02*
Y161693D01*
Y102874D02*
X215669D01*
Y20984D02*
Y102874D01*
X151102Y20984D02*
X215669D01*
X151102D02*
Y102874D01*
X153366D01*
Y161693D01*
X244094Y228543D02*
Y243898D01*
X251969Y228543D02*
Y243898D01*
X244094Y228543D02*
X251969D01*
X244094Y243898D02*
X251969D01*
X471752Y346260D02*
Y361614D01*
X463878Y346260D02*
Y361614D01*
X471752D01*
X463878Y346260D02*
X471752D01*
M02*
