G04*
G04 #@! TF.GenerationSoftware,Altium Limited,Altium Designer,25.1.2 (22)*
G04*
G04 Layer_Color=8388736*
%FSLAX25Y25*%
%MOIN*%
G70*
G04*
G04 #@! TF.SameCoordinates,8C14AA3A-0FC9-406D-BE4B-2EB75CFADBCC*
G04*
G04*
G04 #@! TF.FilePolarity,Negative*
G04*
G01*
G75*
%ADD15R,0.04134X0.07087*%
%ADD16R,0.04166X0.06544*%
%ADD17R,0.04935X0.07103*%
%ADD19R,0.03937X0.06102*%
%ADD20R,0.06102X0.03937*%
%ADD21R,0.05512X0.03150*%
%ADD22R,0.05906X0.03150*%
%ADD23R,0.05906X0.05118*%
%ADD24R,0.05906X0.05906*%
%ADD25R,0.06890X0.02756*%
%ADD26R,0.06544X0.04166*%
%ADD27R,0.07093X0.04731*%
%ADD28C,0.07400*%
%ADD29R,0.05904X0.05904*%
%ADD30C,0.05904*%
%ADD31C,0.12211*%
%ADD32C,0.06306*%
%ADD33R,0.06306X0.06306*%
%ADD34C,0.05400*%
D15*
X466535Y173228D02*
D03*
X476575D02*
D03*
X377953D02*
D03*
X387992D02*
D03*
X271654D02*
D03*
X281693D02*
D03*
X183701D02*
D03*
X193740D02*
D03*
D16*
X466535Y188976D02*
D03*
X477772D02*
D03*
X443488D02*
D03*
X454724D02*
D03*
X377953D02*
D03*
X389189D02*
D03*
X354906D02*
D03*
X366142D02*
D03*
X271654D02*
D03*
X282890D02*
D03*
X250287D02*
D03*
X261524D02*
D03*
X183701D02*
D03*
X194937D02*
D03*
X162335D02*
D03*
X173571D02*
D03*
D17*
X455808Y173228D02*
D03*
X445766D02*
D03*
X367226D02*
D03*
X357184D02*
D03*
X262011D02*
D03*
X251969D02*
D03*
X174058D02*
D03*
X164016D02*
D03*
D19*
X471161Y331988D02*
D03*
D20*
X477362Y287697D02*
D03*
D21*
X467815Y286122D02*
D03*
D22*
X465256Y333169D02*
D03*
D23*
X435335Y332087D02*
D03*
D24*
Y287402D02*
D03*
D25*
X434842Y327362D02*
D03*
Y323031D02*
D03*
Y318701D02*
D03*
Y314370D02*
D03*
Y310039D02*
D03*
Y305709D02*
D03*
Y301378D02*
D03*
Y297047D02*
D03*
D26*
X444882Y258449D02*
D03*
Y269685D02*
D03*
X456693Y258449D02*
D03*
Y269685D02*
D03*
X468504Y258449D02*
D03*
Y269685D02*
D03*
X478346Y359661D02*
D03*
Y348425D02*
D03*
X444882Y359661D02*
D03*
Y348425D02*
D03*
X456693Y359661D02*
D03*
Y348425D02*
D03*
D27*
X248031Y231102D02*
D03*
Y241339D02*
D03*
X467815Y359055D02*
D03*
Y348819D02*
D03*
D28*
X191339Y287402D02*
D03*
X201339D02*
D03*
X211339D02*
D03*
X221339D02*
D03*
X341339D02*
D03*
X331339D02*
D03*
X321339D02*
D03*
X311339D02*
D03*
X301339D02*
D03*
X291339D02*
D03*
X281339D02*
D03*
X271339D02*
D03*
X261339D02*
D03*
X251339D02*
D03*
X241339D02*
D03*
X231339D02*
D03*
X341339Y367402D02*
D03*
X331339D02*
D03*
X321339D02*
D03*
X311339D02*
D03*
X301339D02*
D03*
X291339D02*
D03*
X281339D02*
D03*
X271339D02*
D03*
X261339D02*
D03*
X251339D02*
D03*
X241339D02*
D03*
X231339D02*
D03*
D29*
X466221Y157795D02*
D03*
X377638D02*
D03*
X271339D02*
D03*
X183386D02*
D03*
D30*
X476221D02*
D03*
X387638D02*
D03*
X281339D02*
D03*
X193386D02*
D03*
D31*
X446220Y137795D02*
D03*
X486221D02*
D03*
X357638D02*
D03*
X397638D02*
D03*
X251339D02*
D03*
X291339D02*
D03*
X163386D02*
D03*
X203386D02*
D03*
D32*
X327716Y251969D02*
D03*
X317717D02*
D03*
X307716D02*
D03*
X297716D02*
D03*
X287717D02*
D03*
X277716D02*
D03*
X267717D02*
D03*
X327716Y221969D02*
D03*
X317717D02*
D03*
X307716D02*
D03*
X297716D02*
D03*
X287717D02*
D03*
X277716D02*
D03*
D33*
X267717D02*
D03*
D34*
X427264Y318406D02*
D03*
M02*
